<svg width="73" height="316" viewBox="0 0 73 316" fill="none" xmlns="http://www.w3.org/2000/svg">
<path d="M49.1 3.47559H57.5L36.5 45.1831L15.5 3.47559H31.2715L36.5 13.1469L41.8473 3.47559H49.1Z" fill="#41B883"/>
<path d="M23.5 3.47559L36.5539 27.805L49.5 3.47559H41.5166L36.5539 12.833L31.4834 3.47559H23.5Z" fill="#35495E"/>
<path d="M26.8816 51.2727L29.4725 58.6193H29.5748L32.1657 51.2727H33.2736L30.0691 60H28.9782L25.7736 51.2727H26.8816ZM38.6216 57.3239V53.4545H39.6273V60H38.6216V58.892H38.5534C38.4 59.2244 38.1614 59.5071 37.8375 59.7401C37.5137 59.9702 37.1046 60.0852 36.6103 60.0852C36.2012 60.0852 35.8375 59.9957 35.5194 59.8168C35.2012 59.6349 34.9512 59.3622 34.7694 58.9986C34.5875 58.6321 34.4966 58.1705 34.4966 57.6136V53.4545H35.5023V57.5455C35.5023 58.0227 35.6358 58.4034 35.9029 58.6875C36.1728 58.9716 36.5165 59.1136 36.9341 59.1136C37.1841 59.1136 37.4384 59.0497 37.6969 58.9219C37.9583 58.794 38.177 58.598 38.3532 58.3338C38.5321 58.0696 38.6216 57.733 38.6216 57.3239ZM44.2136 60.1364C43.5829 60.1364 43.0389 59.9972 42.5815 59.7188C42.127 59.4375 41.7761 59.0455 41.5289 58.5426C41.2846 58.0369 41.1625 57.4489 41.1625 56.7784C41.1625 56.108 41.2846 55.517 41.5289 55.0057C41.7761 54.4915 42.1199 54.0909 42.5602 53.804C43.0034 53.5142 43.5204 53.3693 44.1113 53.3693C44.4522 53.3693 44.7889 53.4261 45.1213 53.5398C45.4537 53.6534 45.7562 53.8381 46.0289 54.0938C46.3017 54.3466 46.519 54.6818 46.6809 55.0994C46.8429 55.517 46.9238 56.0312 46.9238 56.642V57.0682H41.8784V56.1989H45.9011C45.9011 55.8295 45.8272 55.5 45.6795 55.2102C45.5346 54.9205 45.3272 54.6918 45.0574 54.5241C44.7903 54.3565 44.475 54.2727 44.1113 54.2727C43.7108 54.2727 43.3642 54.3722 43.0716 54.571C42.7818 54.767 42.5588 55.0227 42.4025 55.3381C42.2463 55.6534 42.1681 55.9915 42.1681 56.3523V56.9318C42.1681 57.4261 42.2534 57.8452 42.4238 58.1889C42.5971 58.5298 42.8372 58.7898 43.144 58.9688C43.4508 59.1449 43.8074 59.233 44.2136 59.233C44.4778 59.233 44.7164 59.196 44.9295 59.1222C45.1454 59.0455 45.3315 58.9318 45.4877 58.7812C45.644 58.6278 45.7647 58.4375 45.85 58.2102L46.8216 58.483C46.7193 58.8125 46.5474 59.1023 46.3059 59.3523C46.0645 59.5994 45.7662 59.7926 45.411 59.9318C45.0559 60.0682 44.6568 60.1364 44.2136 60.1364Z" fill="white"/>
<path d="M37.5 70C37.5 69.4477 37.0523 69 36.5 69C35.9477 69 35.5 69.4477 35.5 70H37.5ZM35.7929 136.707C36.1834 137.098 36.8166 137.098 37.2071 136.707L43.5711 130.343C43.9616 129.953 43.9616 129.319 43.5711 128.929C43.1805 128.538 42.5474 128.538 42.1569 128.929L36.5 134.586L30.8431 128.929C30.4526 128.538 29.8195 128.538 29.4289 128.929C29.0384 129.319 29.0384 129.953 29.4289 130.343L35.7929 136.707ZM35.5 70L35.5 136H37.5L37.5 70H35.5Z" fill="white"/>
<path fill-rule="evenodd" clip-rule="evenodd" d="M15 153C15 151.011 15.7902 149.103 17.1967 147.697C18.6032 146.29 20.5109 145.5 22.5 145.5H50.5C52.0741 145.5 53.6083 145.995 54.8853 146.916C56.1623 147.836 57.1174 149.135 57.6151 150.628C58.1129 152.122 58.1282 153.734 57.6589 155.236C57.1895 156.739 56.2593 158.056 55 159C56.2593 159.944 57.1895 161.261 57.6589 162.764C58.1282 164.266 58.1129 165.878 57.6151 167.372C57.1174 168.865 56.1623 170.164 54.8853 171.084C53.6083 172.005 52.0741 172.5 50.5 172.5H38V175.708C39.832 176.226 41.274 177.668 41.792 179.5H56.5C56.8978 179.5 57.2794 179.658 57.5607 179.939C57.842 180.221 58 180.602 58 181C58 181.398 57.842 181.779 57.5607 182.061C57.2794 182.342 56.8978 182.5 56.5 182.5H41.794C41.4671 183.652 40.7735 184.666 39.8182 185.388C38.863 186.109 37.6983 186.5 36.501 186.5C35.3037 186.5 34.139 186.109 33.1838 185.388C32.2286 184.666 31.5349 183.652 31.208 182.5H16.5C16.1022 182.5 15.7207 182.342 15.4393 182.061C15.158 181.779 15 181.398 15 181C15 180.602 15.158 180.221 15.4393 179.939C15.7207 179.658 16.1022 179.5 16.5 179.5H31.208C31.4657 178.598 31.9491 177.776 32.6126 177.113C33.2761 176.449 34.0978 175.966 35 175.708V172.5H22.5C20.9259 172.5 19.3917 172.005 18.1147 171.084C16.8377 170.164 15.8827 168.865 15.3849 167.372C14.8871 165.878 14.8718 164.266 15.3412 162.764C15.8105 161.261 16.7407 159.944 18 159C17.0674 158.302 16.3105 157.397 15.7897 156.355C15.2689 155.313 14.9984 154.165 15 153ZM22.5 157.5C21.3065 157.5 20.1619 157.026 19.318 156.182C18.4741 155.338 18 154.193 18 153C18 151.807 18.4741 150.662 19.318 149.818C20.1619 148.974 21.3065 148.5 22.5 148.5H50.5C51.6935 148.5 52.8381 148.974 53.682 149.818C54.5259 150.662 55 151.807 55 153C55 154.193 54.5259 155.338 53.682 156.182C52.8381 157.026 51.6935 157.5 50.5 157.5H22.5ZM50.5 160.5H22.5C21.3065 160.5 20.1619 160.974 19.318 161.818C18.4741 162.662 18 163.807 18 165C18 166.193 18.4741 167.338 19.318 168.182C20.1619 169.026 21.3065 169.5 22.5 169.5H50.5C51.6935 169.5 52.8381 169.026 53.682 168.182C54.5259 167.338 55 166.193 55 165C55 163.807 54.5259 162.662 53.682 161.818C52.8381 160.974 51.6935 160.5 50.5 160.5ZM37 153C37 152.602 37.158 152.221 37.4393 151.939C37.7207 151.658 38.1022 151.5 38.5 151.5H50.5C50.8978 151.5 51.2794 151.658 51.5607 151.939C51.842 152.221 52 152.602 52 153C52 153.398 51.842 153.779 51.5607 154.061C51.2794 154.342 50.8978 154.5 50.5 154.5H38.5C38.1022 154.5 37.7207 154.342 37.4393 154.061C37.158 153.779 37 153.398 37 153ZM37 165C37 164.602 37.158 164.221 37.4393 163.939C37.7207 163.658 38.1022 163.5 38.5 163.5H50.5C50.8978 163.5 51.2794 163.658 51.5607 163.939C51.842 164.221 52 164.602 52 165C52 165.398 51.842 165.779 51.5607 166.061C51.2794 166.342 50.8978 166.5 50.5 166.5H38.5C38.1022 166.5 37.7207 166.342 37.4393 166.061C37.158 165.779 37 165.398 37 165ZM36.5 178.5C36.1717 178.5 35.8466 178.565 35.5433 178.69C35.24 178.816 34.9644 179 34.7322 179.232C34.5001 179.464 34.3159 179.74 34.1903 180.043C34.0647 180.347 34 180.672 34 181C34 181.328 34.0647 181.653 34.1903 181.957C34.3159 182.26 34.5001 182.536 34.7322 182.768C34.9644 183 35.24 183.184 35.5433 183.31C35.8466 183.435 36.1717 183.5 36.5 183.5C37.163 183.5 37.7989 183.237 38.2678 182.768C38.7366 182.299 39 181.663 39 181C39 180.337 38.7366 179.701 38.2678 179.232C37.7989 178.763 37.163 178.5 36.5 178.5Z" fill="white"/>
<path d="M26.5 153C26.5 153.53 26.2893 154.039 25.9142 154.414C25.5391 154.789 25.0304 155 24.5 155C23.9696 155 23.4609 154.789 23.0858 154.414C22.7107 154.039 22.5 153.53 22.5 153C22.5 152.47 22.7107 151.961 23.0858 151.586C23.4609 151.211 23.9696 151 24.5 151C25.0304 151 25.5391 151.211 25.9142 151.586C26.2893 151.961 26.5 152.47 26.5 153ZM26.5 165C26.5 165.53 26.2893 166.039 25.9142 166.414C25.5391 166.789 25.0304 167 24.5 167C23.9696 167 23.4609 166.789 23.0858 166.414C22.7107 166.039 22.5 165.53 22.5 165C22.5 164.47 22.7107 163.961 23.0858 163.586C23.4609 163.211 23.9696 163 24.5 163C25.0304 163 25.5391 163.211 25.9142 163.586C26.2893 163.961 26.5 164.47 26.5 165Z" fill="white"/>
<path d="M24.1506 197.92L23.2472 198.176C23.1903 198.026 23.1065 197.879 22.9957 197.737C22.8878 197.592 22.7401 197.473 22.5526 197.379C22.3651 197.286 22.125 197.239 21.8324 197.239C21.4318 197.239 21.098 197.331 20.831 197.516C20.5668 197.697 20.4347 197.929 20.4347 198.21C20.4347 198.46 20.5256 198.658 20.7074 198.803C20.8892 198.947 21.1733 199.068 21.5597 199.165L22.5312 199.403C23.1165 199.545 23.5526 199.763 23.8395 200.055C24.1264 200.345 24.2699 200.719 24.2699 201.176C24.2699 201.551 24.1619 201.886 23.946 202.182C23.733 202.477 23.4347 202.71 23.0511 202.881C22.6676 203.051 22.2216 203.136 21.7131 203.136C21.0455 203.136 20.4929 202.991 20.0554 202.702C19.6179 202.412 19.3409 201.989 19.2244 201.432L20.179 201.193C20.2699 201.545 20.4418 201.81 20.6946 201.986C20.9503 202.162 21.2841 202.25 21.696 202.25C22.1648 202.25 22.5369 202.151 22.8125 201.952C23.0909 201.75 23.2301 201.509 23.2301 201.227C23.2301 201 23.1506 200.81 22.9915 200.656C22.8324 200.5 22.5881 200.384 22.2585 200.307L21.1676 200.051C20.5682 199.909 20.1278 199.689 19.8466 199.391C19.5682 199.089 19.429 198.713 19.429 198.261C19.429 197.892 19.5327 197.565 19.7401 197.281C19.9503 196.997 20.2358 196.774 20.5966 196.612C20.9602 196.45 21.3722 196.369 21.8324 196.369C22.4801 196.369 22.9886 196.511 23.358 196.795C23.7301 197.08 23.9943 197.455 24.1506 197.92ZM28.5281 203.136C27.8974 203.136 27.3533 202.997 26.896 202.719C26.4414 202.438 26.0906 202.045 25.8434 201.543C25.5991 201.037 25.4769 200.449 25.4769 199.778C25.4769 199.108 25.5991 198.517 25.8434 198.006C26.0906 197.491 26.4343 197.091 26.8746 196.804C27.3178 196.514 27.8349 196.369 28.4258 196.369C28.7667 196.369 29.1033 196.426 29.4357 196.54C29.7681 196.653 30.0707 196.838 30.3434 197.094C30.6161 197.347 30.8335 197.682 30.9954 198.099C31.1573 198.517 31.2383 199.031 31.2383 199.642V200.068H26.1928V199.199H30.2156C30.2156 198.83 30.1417 198.5 29.994 198.21C29.8491 197.92 29.6417 197.692 29.3718 197.524C29.1048 197.357 28.7894 197.273 28.4258 197.273C28.0252 197.273 27.6786 197.372 27.386 197.571C27.0962 197.767 26.8732 198.023 26.717 198.338C26.5607 198.653 26.4826 198.991 26.4826 199.352V199.932C26.4826 200.426 26.5678 200.845 26.7383 201.189C26.9116 201.53 27.1516 201.79 27.4585 201.969C27.7653 202.145 28.1218 202.233 28.5281 202.233C28.7923 202.233 29.0309 202.196 29.244 202.122C29.4599 202.045 29.646 201.932 29.8022 201.781C29.9585 201.628 30.0792 201.437 30.1644 201.21L31.136 201.483C31.0337 201.812 30.8619 202.102 30.6204 202.352C30.3789 202.599 30.0806 202.793 29.7255 202.932C29.3704 203.068 28.9712 203.136 28.5281 203.136ZM32.7681 203V196.455H33.7397V197.443H33.8079C33.9272 197.119 34.1431 196.857 34.4556 196.655C34.7681 196.453 35.1204 196.352 35.5124 196.352C35.5863 196.352 35.6786 196.354 35.7894 196.357C35.9002 196.359 35.984 196.364 36.0408 196.369V197.392C36.0067 197.384 35.9286 197.371 35.8065 197.354C35.6871 197.334 35.5607 197.324 35.4272 197.324C35.109 197.324 34.8249 197.391 34.5749 197.524C34.3278 197.655 34.1317 197.837 33.9869 198.07C33.8448 198.3 33.7738 198.562 33.7738 198.858V203H32.7681ZM42.7844 196.455L40.364 203H39.3413L36.9208 196.455H38.0117L39.8185 201.67H39.8867L41.6935 196.455H42.7844ZM46.6218 203.136C45.9911 203.136 45.4471 202.997 44.9897 202.719C44.5352 202.438 44.1843 202.045 43.9371 201.543C43.6928 201.037 43.5707 200.449 43.5707 199.778C43.5707 199.108 43.6928 198.517 43.9371 198.006C44.1843 197.491 44.5281 197.091 44.9684 196.804C45.4116 196.514 45.9286 196.369 46.5195 196.369C46.8604 196.369 47.1971 196.426 47.5295 196.54C47.8619 196.653 48.1644 196.838 48.4371 197.094C48.7099 197.347 48.9272 197.682 49.0891 198.099C49.2511 198.517 49.332 199.031 49.332 199.642V200.068H44.2866V199.199H48.3093C48.3093 198.83 48.2354 198.5 48.0877 198.21C47.9428 197.92 47.7354 197.692 47.4656 197.524C47.1985 197.357 46.8832 197.273 46.5195 197.273C46.119 197.273 45.7724 197.372 45.4798 197.571C45.19 197.767 44.967 198.023 44.8107 198.338C44.6545 198.653 44.5763 198.991 44.5763 199.352V199.932C44.5763 200.426 44.6616 200.845 44.832 201.189C45.0053 201.53 45.2454 201.79 45.5522 201.969C45.859 202.145 46.2156 202.233 46.6218 202.233C46.886 202.233 47.1246 202.196 47.3377 202.122C47.5536 202.045 47.7397 201.932 47.896 201.781C48.0522 201.628 48.1729 201.437 48.2582 201.21L49.2298 201.483C49.1275 201.812 48.9556 202.102 48.7141 202.352C48.4727 202.599 48.1744 202.793 47.8192 202.932C47.4641 203.068 47.065 203.136 46.6218 203.136ZM50.8619 203V196.455H51.8335V197.443H51.9016C52.021 197.119 52.2369 196.857 52.5494 196.655C52.8619 196.453 53.2141 196.352 53.6062 196.352C53.68 196.352 53.7724 196.354 53.8832 196.357C53.994 196.359 54.0778 196.364 54.1346 196.369V197.392C54.1005 197.384 54.0224 197.371 53.9002 197.354C53.7809 197.334 53.6545 197.324 53.521 197.324C53.2028 197.324 52.9187 197.391 52.6687 197.524C52.4215 197.655 52.2255 197.837 52.0806 198.07C51.9386 198.3 51.8675 198.562 51.8675 198.858V203H50.8619Z" fill="white"/>
<path d="M37.2499 212.985C37.2415 212.433 36.7871 211.992 36.2349 212C35.6826 212.008 35.2417 212.463 35.2501 213.015L37.2499 212.985ZM36.0537 246.718C36.4501 247.102 37.0832 247.093 37.4677 246.696L43.7346 240.237C44.1191 239.84 44.1095 239.207 43.7131 238.823C43.3167 238.438 42.6836 238.448 42.2991 238.844L36.7286 244.586L30.9867 239.015C30.5903 238.631 29.9572 238.64 29.5726 239.037C29.1881 239.433 29.1976 240.066 29.594 240.451L36.0537 246.718ZM35.2501 213.015L35.2814 215.078L37.2811 215.047L37.2499 212.985L35.2501 213.015ZM35.3439 219.203L35.4064 223.328L37.4061 223.297L37.3436 219.172L35.3439 219.203ZM35.4689 227.453L35.5314 231.578L37.5311 231.547L37.4686 227.422L35.4689 227.453ZM35.5939 235.703L35.6564 239.828L37.6561 239.797L37.5936 235.672L35.5939 235.703ZM35.7189 243.953L35.7501 246.015L37.7499 245.985L37.7186 243.922L35.7189 243.953ZM37.2499 212.985C37.2415 212.433 36.7871 211.992 36.2349 212C35.6826 212.008 35.2417 212.463 35.2501 213.015L37.2499 212.985ZM36.0537 246.718C36.4501 247.102 37.0832 247.093 37.4677 246.696L43.7346 240.237C44.1191 239.84 44.1095 239.207 43.7131 238.823C43.3167 238.438 42.6836 238.448 42.2991 238.844L36.7286 244.586L30.9867 239.015C30.5903 238.631 29.9572 238.64 29.5726 239.037C29.1881 239.433 29.1976 240.066 29.594 240.451L36.0537 246.718ZM35.2501 213.015L35.2814 215.078L37.2811 215.047L37.2499 212.985L35.2501 213.015ZM35.3439 219.203L35.4064 223.328L37.4061 223.297L37.3436 219.172L35.3439 219.203ZM35.4689 227.453L35.5314 231.578L37.5311 231.547L37.4686 227.422L35.4689 227.453ZM35.5939 235.703L35.6564 239.828L37.6561 239.797L37.5936 235.672L35.5939 235.703ZM35.7189 243.953L35.7501 246.015L37.7499 245.985L37.7186 243.922L35.7189 243.953Z" fill="white"/>
<path d="M63.875 255.984H9.125C7.61244 255.984 6.16183 256.585 5.09228 257.655C4.02274 258.724 3.42188 260.175 3.42188 261.688V307.312C3.42188 308.825 4.02274 310.276 5.09228 311.345C6.16183 312.415 7.61244 313.016 9.125 313.016H63.875C65.3876 313.016 66.8382 312.415 67.9077 311.345C68.9773 310.276 69.5781 308.825 69.5781 307.312V261.688C69.5781 260.175 68.9773 258.724 67.9077 257.655C66.8382 256.585 65.3876 255.984 63.875 255.984ZM67.2969 307.312C67.2969 308.22 66.9364 309.09 66.2946 309.732C65.6529 310.374 64.7825 310.734 63.875 310.734H9.125C8.21746 310.734 7.3471 310.374 6.70537 309.732C6.06364 309.09 5.70312 308.22 5.70312 307.312V267.391H67.2969V307.312ZM5.70312 265.109V261.688C5.70312 260.78 6.06364 259.91 6.70537 259.268C7.3471 258.626 8.21746 258.266 9.125 258.266H63.875C64.7825 258.266 65.6529 258.626 66.2946 259.268C66.9364 259.91 67.2969 260.78 67.2969 261.688V265.109H5.70312ZM62.7344 261.688C62.7344 261.913 62.6675 262.134 62.5421 262.321C62.4168 262.509 62.2387 262.655 62.0302 262.741C61.8218 262.828 61.5925 262.85 61.3712 262.806C61.15 262.762 60.9467 262.654 60.7872 262.494C60.6277 262.335 60.5191 262.131 60.475 261.91C60.431 261.689 60.4536 261.459 60.54 261.251C60.6263 261.043 60.7725 260.864 60.9601 260.739C61.1476 260.614 61.3682 260.547 61.5938 260.547C61.8963 260.547 62.1864 260.667 62.4003 260.881C62.6142 261.095 62.7344 261.385 62.7344 261.688ZM59.3125 261.688C59.3125 261.913 59.2456 262.134 59.1203 262.321C58.9949 262.509 58.8168 262.655 58.6084 262.741C58.3999 262.828 58.1706 262.85 57.9493 262.806C57.7281 262.762 57.5248 262.654 57.3653 262.494C57.2058 262.335 57.0972 262.131 57.0532 261.91C57.0092 261.689 57.0317 261.459 57.1181 261.251C57.2044 261.043 57.3506 260.864 57.5382 260.739C57.7258 260.614 57.9463 260.547 58.1719 260.547C58.4744 260.547 58.7645 260.667 58.9784 260.881C59.1923 261.095 59.3125 261.385 59.3125 261.688ZM55.8906 261.688C55.8906 261.913 55.8237 262.134 55.6984 262.321C55.5731 262.509 55.3949 262.655 55.1865 262.741C54.9781 262.828 54.7487 262.85 54.5275 262.806C54.3062 262.762 54.103 262.654 53.9435 262.494C53.7839 262.335 53.6753 262.131 53.6313 261.91C53.5873 261.689 53.6099 261.459 53.6962 261.251C53.7825 261.043 53.9287 260.864 54.1163 260.739C54.3039 260.614 54.5244 260.547 54.75 260.547C55.0525 260.547 55.3426 260.667 55.5565 260.881C55.7705 261.095 55.8906 261.385 55.8906 261.688Z" fill="white"/>
<rect x="17" y="285" width="39" height="7" rx="3.5" stroke="white" stroke-width="2"/>
<rect x="19.75" y="287.75" width="10.5" height="1.5" rx="0.75" fill="white" stroke="white" stroke-width="1.5"/>
</svg>
