<svg width="73" height="316" viewBox="0 0 73 316" fill="none" xmlns="http://www.w3.org/2000/svg">
<path d="M27.5 3C25.9087 3 24.3826 3.63214 23.2574 4.75736C22.1321 5.88258 21.5 7.4087 21.5 9V39C21.5 40.5913 22.1321 42.1174 23.2574 43.2426C24.3826 44.3679 25.9087 45 27.5 45H45.5C47.0913 45 48.6174 44.3679 49.7426 43.2426C50.8679 42.1174 51.5 40.5913 51.5 39V16.242C51.4989 15.0489 51.0242 13.9051 50.18 13.062L41.441 4.317C41.0229 3.8992 40.5267 3.56785 39.9805 3.34188C39.4344 3.1159 38.8491 2.99973 38.258 3H27.5ZM24.5 9C24.5 8.20435 24.8161 7.44129 25.3787 6.87868C25.9413 6.31607 26.7044 6 27.5 6H36.5V13.5C36.5 14.6935 36.9741 15.8381 37.818 16.682C38.6619 17.5259 39.8065 18 41 18H48.5V39C48.5 39.7956 48.1839 40.5587 47.6213 41.1213C47.0587 41.6839 46.2956 42 45.5 42H27.5C26.7044 42 25.9413 41.6839 25.3787 41.1213C24.8161 40.5587 24.5 39.7956 24.5 39V9ZM47.879 15H41C40.6022 15 40.2206 14.842 39.9393 14.5607C39.658 14.2794 39.5 13.8978 39.5 13.5V6.621L47.879 15Z" fill="white"/>
<path d="M33.8137 51.2727H34.8706V57.5114C34.8706 58.0682 34.7683 58.5412 34.5637 58.9304C34.3592 59.3196 34.0708 59.6151 33.6987 59.8168C33.3265 60.0185 32.8876 60.1193 32.3819 60.1193C31.9047 60.1193 31.4799 60.0327 31.1078 59.8594C30.7356 59.6832 30.443 59.4332 30.2299 59.1094C30.0169 58.7855 29.9103 58.4006 29.9103 57.9545H30.9501C30.9501 58.2017 31.0112 58.4176 31.1333 58.6023C31.2583 58.7841 31.4288 58.9261 31.6447 59.0284C31.8606 59.1307 32.1064 59.1818 32.3819 59.1818C32.6859 59.1818 32.9444 59.1179 33.1575 58.9901C33.3706 58.8622 33.5325 58.6747 33.6433 58.4276C33.7569 58.1776 33.8137 57.8722 33.8137 57.5114V51.2727ZM41.7612 53.4545C41.71 53.0227 41.5027 52.6875 41.139 52.4489C40.7754 52.2102 40.3294 52.0909 39.801 52.0909C39.4146 52.0909 39.0765 52.1534 38.7868 52.2784C38.4998 52.4034 38.2754 52.5753 38.1135 52.794C37.9544 53.0128 37.8748 53.2614 37.8748 53.5398C37.8748 53.7727 37.9302 53.973 38.041 54.1406C38.1547 54.3054 38.2995 54.4432 38.4757 54.554C38.6518 54.6619 38.8365 54.7514 39.0297 54.8224C39.2228 54.8906 39.4004 54.946 39.5623 54.9886L40.4487 55.2273C40.676 55.2869 40.9288 55.3693 41.2072 55.4744C41.4885 55.5795 41.7569 55.723 42.0126 55.9048C42.2711 56.0838 42.4842 56.3139 42.6518 56.5952C42.8194 56.8764 42.9032 57.2216 42.9032 57.6307C42.9032 58.1023 42.7797 58.5284 42.5325 58.9091C42.2882 59.2898 41.9302 59.5923 41.4586 59.8168C40.9899 60.0412 40.4203 60.1534 39.7498 60.1534C39.1248 60.1534 38.5836 60.0526 38.1262 59.8509C37.6717 59.6491 37.3137 59.3679 37.0524 59.0071C36.7939 58.6463 36.6475 58.2273 36.6135 57.75H37.7044C37.7328 58.0795 37.8436 58.3523 38.0368 58.5682C38.2328 58.7812 38.4799 58.9403 38.7782 59.0455C39.0794 59.1477 39.4032 59.1989 39.7498 59.1989C40.1532 59.1989 40.5154 59.1335 40.8365 59.0028C41.1575 58.8693 41.4118 58.6847 41.5993 58.4489C41.7868 58.2102 41.8805 57.9318 41.8805 57.6136C41.8805 57.3239 41.7995 57.0881 41.6376 56.9062C41.4757 56.7244 41.2626 56.5767 40.9984 56.4631C40.7342 56.3494 40.4487 56.25 40.1419 56.1648L39.068 55.858C38.3862 55.6619 37.8464 55.3821 37.4487 55.0185C37.051 54.6548 36.8521 54.179 36.8521 53.5909C36.8521 53.1023 36.9842 52.6761 37.2484 52.3125C37.5154 51.946 37.8734 51.6619 38.3223 51.4602C38.774 51.2557 39.2782 51.1534 39.835 51.1534C40.3975 51.1534 40.8975 51.2543 41.335 51.456C41.7725 51.6548 42.1191 51.9276 42.3748 52.2741C42.6333 52.6207 42.7697 53.0142 42.7839 53.4545H41.7612Z" fill="white"/>
<path d="M37.5 70C37.5 69.4477 37.0523 69 36.5 69C35.9477 69 35.5 69.4477 35.5 70H37.5ZM35.7929 136.707C36.1834 137.098 36.8166 137.098 37.2071 136.707L43.5711 130.343C43.9616 129.953 43.9616 129.319 43.5711 128.929C43.1805 128.538 42.5474 128.538 42.1569 128.929L36.5 134.586L30.8431 128.929C30.4526 128.538 29.8195 128.538 29.4289 128.929C29.0384 129.319 29.0384 129.953 29.4289 130.343L35.7929 136.707ZM35.5 70L35.5 136H37.5L37.5 70H35.5Z" fill="white"/>
<path d="M49.1 146.476H57.5L36.5 188.183L15.5 146.476H31.2715L36.5 156.147L41.8473 146.476H49.1Z" fill="#41B883"/>
<path d="M23.5 146.476L36.5539 170.805L49.5 146.476H41.5166L36.5539 155.833L31.4834 146.476H23.5Z" fill="#35495E"/>
<path d="M26.8816 194.273L29.4725 201.619H29.5748L32.1657 194.273H33.2736L30.0691 203H28.9782L25.7736 194.273H26.8816ZM38.6216 200.324V196.455H39.6273V203H38.6216V201.892H38.5534C38.4 202.224 38.1614 202.507 37.8375 202.74C37.5137 202.97 37.1046 203.085 36.6103 203.085C36.2012 203.085 35.8375 202.996 35.5194 202.817C35.2012 202.635 34.9512 202.362 34.7694 201.999C34.5875 201.632 34.4966 201.17 34.4966 200.614V196.455H35.5023V200.545C35.5023 201.023 35.6358 201.403 35.9029 201.688C36.1728 201.972 36.5165 202.114 36.9341 202.114C37.1841 202.114 37.4384 202.05 37.6969 201.922C37.9583 201.794 38.177 201.598 38.3532 201.334C38.5321 201.07 38.6216 200.733 38.6216 200.324ZM44.2136 203.136C43.5829 203.136 43.0389 202.997 42.5815 202.719C42.127 202.438 41.7761 202.045 41.5289 201.543C41.2846 201.037 41.1625 200.449 41.1625 199.778C41.1625 199.108 41.2846 198.517 41.5289 198.006C41.7761 197.491 42.1199 197.091 42.5602 196.804C43.0034 196.514 43.5204 196.369 44.1113 196.369C44.4522 196.369 44.7889 196.426 45.1213 196.54C45.4537 196.653 45.7562 196.838 46.0289 197.094C46.3017 197.347 46.519 197.682 46.6809 198.099C46.8429 198.517 46.9238 199.031 46.9238 199.642V200.068H41.8784V199.199H45.9011C45.9011 198.83 45.8272 198.5 45.6795 198.21C45.5346 197.92 45.3272 197.692 45.0574 197.524C44.7903 197.357 44.475 197.273 44.1113 197.273C43.7108 197.273 43.3642 197.372 43.0716 197.571C42.7818 197.767 42.5588 198.023 42.4025 198.338C42.2463 198.653 42.1681 198.991 42.1681 199.352V199.932C42.1681 200.426 42.2534 200.845 42.4238 201.189C42.5971 201.53 42.8372 201.79 43.144 201.969C43.4508 202.145 43.8074 202.233 44.2136 202.233C44.4778 202.233 44.7164 202.196 44.9295 202.122C45.1454 202.045 45.3315 201.932 45.4877 201.781C45.644 201.628 45.7647 201.437 45.85 201.21L46.8216 201.483C46.7193 201.812 46.5474 202.102 46.3059 202.352C46.0645 202.599 45.7662 202.793 45.411 202.932C45.0559 203.068 44.6568 203.136 44.2136 203.136Z" fill="white"/>
<path d="M37.2499 212.985C37.2415 212.433 36.7871 211.992 36.2349 212C35.6826 212.008 35.2417 212.463 35.2501 213.015L37.2499 212.985ZM36.0537 246.718C36.4501 247.102 37.0832 247.093 37.4677 246.696L43.7346 240.237C44.1191 239.84 44.1095 239.207 43.7131 238.823C43.3167 238.438 42.6836 238.448 42.2991 238.844L36.7286 244.586L30.9867 239.015C30.5903 238.631 29.9572 238.64 29.5726 239.037C29.1881 239.433 29.1976 240.066 29.594 240.451L36.0537 246.718ZM35.2501 213.015L35.2814 215.078L37.2811 215.047L37.2499 212.985L35.2501 213.015ZM35.3439 219.203L35.4064 223.328L37.4061 223.297L37.3436 219.172L35.3439 219.203ZM35.4689 227.453L35.5314 231.578L37.5311 231.547L37.4686 227.422L35.4689 227.453ZM35.5939 235.703L35.6564 239.828L37.6561 239.797L37.5936 235.672L35.5939 235.703ZM35.7189 243.953L35.7501 246.015L37.7499 245.985L37.7186 243.922L35.7189 243.953ZM37.2499 212.985C37.2415 212.433 36.7871 211.992 36.2349 212C35.6826 212.008 35.2417 212.463 35.2501 213.015L37.2499 212.985ZM36.0537 246.718C36.4501 247.102 37.0832 247.093 37.4677 246.696L43.7346 240.237C44.1191 239.84 44.1095 239.207 43.7131 238.823C43.3167 238.438 42.6836 238.448 42.2991 238.844L36.7286 244.586L30.9867 239.015C30.5903 238.631 29.9572 238.64 29.5726 239.037C29.1881 239.433 29.1976 240.066 29.594 240.451L36.0537 246.718ZM35.2501 213.015L35.2814 215.078L37.2811 215.047L37.2499 212.985L35.2501 213.015ZM35.3439 219.203L35.4064 223.328L37.4061 223.297L37.3436 219.172L35.3439 219.203ZM35.4689 227.453L35.5314 231.578L37.5311 231.547L37.4686 227.422L35.4689 227.453ZM35.5939 235.703L35.6564 239.828L37.6561 239.797L37.5936 235.672L35.5939 235.703ZM35.7189 243.953L35.7501 246.015L37.7499 245.985L37.7186 243.922L35.7189 243.953Z" fill="white"/>
<path d="M63.875 255.938H9.125C7.61244 255.938 6.16183 256.529 5.09228 257.582C4.02274 258.635 3.42188 260.063 3.42188 261.552V306.464C3.42188 307.953 4.02274 309.38 5.09228 310.433C6.16183 311.486 7.61244 312.078 9.125 312.078H63.875C65.3876 312.078 66.8382 311.486 67.9077 310.433C68.9773 309.38 69.5781 307.953 69.5781 306.464V261.552C69.5781 260.063 68.9773 258.635 67.9077 257.582C66.8382 256.529 65.3876 255.938 63.875 255.938ZM67.2969 306.464C67.2969 307.357 66.9364 308.214 66.2946 308.845C65.6529 309.477 64.7825 309.832 63.875 309.832H9.125C8.21746 309.832 7.3471 309.477 6.70537 308.845C6.06364 308.214 5.70312 307.357 5.70312 306.464V267.166H67.2969V306.464ZM5.70312 264.92V261.552C5.70312 260.658 6.06364 259.801 6.70537 259.17C7.3471 258.538 8.21746 258.183 9.125 258.183H63.875C64.7825 258.183 65.6529 258.538 66.2946 259.17C66.9364 259.801 67.2969 260.658 67.2969 261.552V264.92H5.70312ZM62.7344 261.552C62.7344 261.774 62.6675 261.991 62.5421 262.175C62.4168 262.36 62.2387 262.504 62.0302 262.589C61.8218 262.674 61.5925 262.696 61.3712 262.653C61.15 262.609 60.9467 262.502 60.7872 262.345C60.6277 262.188 60.5191 261.988 60.475 261.771C60.431 261.553 60.4536 261.327 60.54 261.122C60.6263 260.917 60.7725 260.741 60.9601 260.618C61.1476 260.495 61.3682 260.429 61.5938 260.429C61.8963 260.429 62.1864 260.547 62.4003 260.758C62.6142 260.968 62.7344 261.254 62.7344 261.552ZM59.3125 261.552C59.3125 261.774 59.2456 261.991 59.1203 262.175C58.9949 262.36 58.8168 262.504 58.6084 262.589C58.4 262.674 58.1706 262.696 57.9493 262.653C57.7281 262.609 57.5248 262.502 57.3653 262.345C57.2058 262.188 57.0972 261.988 57.0532 261.771C57.0092 261.553 57.0317 261.327 57.1181 261.122C57.2044 260.917 57.3506 260.741 57.5382 260.618C57.7258 260.495 57.9463 260.429 58.1719 260.429C58.4744 260.429 58.7645 260.547 58.9784 260.758C59.1923 260.968 59.3125 261.254 59.3125 261.552ZM55.8906 261.552C55.8906 261.774 55.8237 261.991 55.6984 262.175C55.5731 262.36 55.3949 262.504 55.1865 262.589C54.9781 262.674 54.7487 262.696 54.5275 262.653C54.3062 262.609 54.103 262.502 53.9435 262.345C53.7839 262.188 53.6753 261.988 53.6313 261.771C53.5873 261.553 53.6099 261.327 53.6962 261.122C53.7825 260.917 53.9287 260.741 54.1163 260.618C54.3039 260.495 54.5244 260.429 54.75 260.429C55.0525 260.429 55.3426 260.547 55.5565 260.758C55.7705 260.968 55.8906 261.254 55.8906 261.552ZM11.4062 307.586H34.2188C34.5213 307.586 34.8114 307.468 35.0253 307.258C35.2392 307.047 35.3594 306.761 35.3594 306.464V270.534C35.3594 270.236 35.2392 269.951 35.0253 269.74C34.8114 269.529 34.5213 269.411 34.2188 269.411H11.4062C11.1037 269.411 10.8136 269.529 10.5997 269.74C10.3858 269.951 10.2656 270.236 10.2656 270.534V306.464C10.2656 306.761 10.3858 307.047 10.5997 307.258C10.8136 307.468 11.1037 307.586 11.4062 307.586ZM12.5469 271.657H33.0781V305.341H12.5469V271.657ZM38.7812 280.639H61.5938C61.8963 280.639 62.1864 280.521 62.4003 280.31C62.6142 280.1 62.7344 279.814 62.7344 279.516V270.534C62.7344 270.236 62.6142 269.951 62.4003 269.74C62.1864 269.529 61.8963 269.411 61.5938 269.411H38.7812C38.4787 269.411 38.1886 269.529 37.9747 269.74C37.7608 269.951 37.6406 270.236 37.6406 270.534V279.516C37.6406 279.814 37.7608 280.1 37.9747 280.31C38.1886 280.521 38.4787 280.639 38.7812 280.639ZM39.9219 271.657H60.4531V278.394H39.9219V271.657ZM38.7812 294.113H61.5938C61.8963 294.113 62.1864 293.994 62.4003 293.784C62.6142 293.573 62.7344 293.288 62.7344 292.99V284.008C62.7344 283.71 62.6142 283.424 62.4003 283.214C62.1864 283.003 61.8963 282.885 61.5938 282.885H38.7812C38.4787 282.885 38.1886 283.003 37.9747 283.214C37.7608 283.424 37.6406 283.71 37.6406 284.008V292.99C37.6406 293.288 37.7608 293.573 37.9747 293.784C38.1886 293.994 38.4787 294.113 38.7812 294.113ZM39.9219 285.13H60.4531V291.867H39.9219V285.13ZM38.7812 307.586H61.5938C61.8963 307.586 62.1864 307.468 62.4003 307.258C62.6142 307.047 62.7344 306.761 62.7344 306.464V297.481C62.7344 297.183 62.6142 296.898 62.4003 296.687C62.1864 296.477 61.8963 296.358 61.5938 296.358H38.7812C38.4787 296.358 38.1886 296.477 37.9747 296.687C37.7608 296.898 37.6406 297.183 37.6406 297.481V306.464C37.6406 306.761 37.7608 307.047 37.9747 307.258C38.1886 307.468 38.4787 307.586 38.7812 307.586ZM39.9219 298.604H60.4531V305.341H39.9219V298.604Z" fill="white"/>
</svg>
