<svg width="111" height="333" viewBox="0 0 111 333" fill="none" xmlns="http://www.w3.org/2000/svg">
<path d="M2 2C3.34934 10.4598 6.02002 18.8964 8.28704 26.8321C15.0719 50.5827 22.0766 74.3792 29.869 97.5139C42.577 135.243 59.8011 170.689 68.2516 211.054C69.7599 218.258 70.8677 225.633 72.0027 232.969C72.5853 236.734 72.8574 241.112 74.0368 244.637C75.2475 248.255 76.6976 251.692 78.0784 255.183C80.5326 261.387 82.1902 268.141 84.207 274.63C87.1341 284.048 90.6578 293.246 94.6942 301.818C96.2788 305.183 98.0903 309.136 99 313" stroke="#FF0000" stroke-width="3" stroke-linecap="round"/>
<path d="M109 2C96.4262 39.9652 80.899 75.8715 66.5612 112.564C58.012 134.442 50.4336 157.132 41.6223 178.797C35.7307 193.284 29.7562 207.339 22.9985 221.034C7.24712 252.956 10.3121 295.731 4 331" stroke="#FF0000" stroke-width="3" stroke-linecap="round"/>
</svg>
