<svg width="97" height="316" viewBox="0 0 97 316" fill="none" xmlns="http://www.w3.org/2000/svg">
<path d="M61.1 3.47559H69.5L48.5 45.1831L27.5 3.47559H43.2715L48.5 13.1469L53.8473 3.47559H61.1Z" fill="#41B883"/>
<path d="M35.5 3.47559L48.5539 27.805L61.5 3.47559H53.5166L48.5539 12.833L43.4834 3.47559H35.5Z" fill="#35495E"/>
<path d="M28.6921 51.2727L31.283 58.6193H31.3853L33.9762 51.2727H35.0842L31.8796 60H30.7887L27.5842 51.2727H28.6921ZM40.4322 57.3239V53.4545H41.4379V60H40.4322V58.892H40.364C40.2106 59.2244 39.9719 59.5071 39.6481 59.7401C39.3242 59.9702 38.9151 60.0852 38.4208 60.0852C38.0117 60.0852 37.6481 59.9957 37.3299 59.8168C37.0117 59.6349 36.7617 59.3622 36.5799 58.9986C36.3981 58.6321 36.3072 58.1705 36.3072 57.6136V53.4545H37.3129V57.5455C37.3129 58.0227 37.4464 58.4034 37.7134 58.6875C37.9833 58.9716 38.3271 59.1136 38.7447 59.1136C38.9947 59.1136 39.2489 59.0497 39.5075 58.9219C39.7688 58.794 39.9876 58.598 40.1637 58.3338C40.3427 58.0696 40.4322 57.733 40.4322 57.3239ZM46.0241 60.1364C45.3935 60.1364 44.8494 59.9972 44.392 59.7188C43.9375 59.4375 43.5866 59.0455 43.3395 58.5426C43.0952 58.0369 42.973 57.4489 42.973 56.7784C42.973 56.108 43.0952 55.517 43.3395 55.0057C43.5866 54.4915 43.9304 54.0909 44.3707 53.804C44.8139 53.5142 45.331 53.3693 45.9219 53.3693C46.2628 53.3693 46.5994 53.4261 46.9318 53.5398C47.2642 53.6534 47.5668 53.8381 47.8395 54.0938C48.1122 54.3466 48.3295 54.6818 48.4915 55.0994C48.6534 55.517 48.7344 56.0312 48.7344 56.642V57.0682H43.6889V56.1989H47.7116C47.7116 55.8295 47.6378 55.5 47.4901 55.2102C47.3452 54.9205 47.1378 54.6918 46.8679 54.5241C46.6009 54.3565 46.2855 54.2727 45.9219 54.2727C45.5213 54.2727 45.1747 54.3722 44.8821 54.571C44.5923 54.767 44.3693 55.0227 44.2131 55.3381C44.0568 55.6534 43.9787 55.9915 43.9787 56.3523V56.9318C43.9787 57.4261 44.0639 57.8452 44.2344 58.1889C44.4077 58.5298 44.6477 58.7898 44.9545 58.9688C45.2614 59.1449 45.6179 59.233 46.0241 59.233C46.2884 59.233 46.527 59.196 46.7401 59.1222C46.956 59.0455 47.142 58.9318 47.2983 58.7812C47.4545 58.6278 47.5753 58.4375 47.6605 58.2102L48.6321 58.483C48.5298 58.8125 48.358 59.1023 48.1165 59.3523C47.875 59.5994 47.5767 59.7926 47.2216 59.9318C46.8665 60.0682 46.4673 60.1364 46.0241 60.1364ZM58.2756 54.9205L57.3722 55.1761C57.3153 55.0256 57.2315 54.8793 57.1207 54.7372C57.0128 54.5923 56.8651 54.473 56.6776 54.3793C56.4901 54.2855 56.25 54.2386 55.9574 54.2386C55.5568 54.2386 55.223 54.331 54.956 54.5156C54.6918 54.6974 54.5597 54.929 54.5597 55.2102C54.5597 55.4602 54.6506 55.6577 54.8324 55.8026C55.0142 55.9474 55.2983 56.0682 55.6847 56.1648L56.6562 56.4034C57.2415 56.5455 57.6776 56.7628 57.9645 57.0554C58.2514 57.3452 58.3949 57.7187 58.3949 58.1761C58.3949 58.5511 58.2869 58.8864 58.071 59.1818C57.858 59.4773 57.5597 59.7102 57.1761 59.8807C56.7926 60.0511 56.3466 60.1364 55.8381 60.1364C55.1705 60.1364 54.6179 59.9915 54.1804 59.7017C53.7429 59.4119 53.4659 58.9886 53.3494 58.4318L54.304 58.1932C54.3949 58.5455 54.5668 58.8097 54.8196 58.9858C55.0753 59.1619 55.4091 59.25 55.821 59.25C56.2898 59.25 56.6619 59.1506 56.9375 58.9517C57.2159 58.75 57.3551 58.5085 57.3551 58.2273C57.3551 58 57.2756 57.8097 57.1165 57.6562C56.9574 57.5 56.7131 57.3835 56.3835 57.3068L55.2926 57.0511C54.6932 56.9091 54.2528 56.6889 53.9716 56.3906C53.6932 56.0895 53.554 55.7131 53.554 55.2614C53.554 54.892 53.6577 54.5653 53.8651 54.2812C54.0753 53.9972 54.3608 53.7741 54.7216 53.6122C55.0852 53.4503 55.4972 53.3693 55.9574 53.3693C56.6051 53.3693 57.1136 53.5114 57.483 53.7955C57.8551 54.0795 58.1193 54.4545 58.2756 54.9205ZM64.5451 54.9205L63.6417 55.1761C63.5849 55.0256 63.5011 54.8793 63.3903 54.7372C63.2823 54.5923 63.1346 54.473 62.9471 54.3793C62.7596 54.2855 62.5195 54.2386 62.2269 54.2386C61.8263 54.2386 61.4925 54.331 61.2255 54.5156C60.9613 54.6974 60.8292 54.929 60.8292 55.2102C60.8292 55.4602 60.9201 55.6577 61.1019 55.8026C61.2837 55.9474 61.5678 56.0682 61.9542 56.1648L62.9258 56.4034C63.511 56.5455 63.9471 56.7628 64.234 57.0554C64.521 57.3452 64.6644 57.7187 64.6644 58.1761C64.6644 58.5511 64.5565 58.8864 64.3406 59.1818C64.1275 59.4773 63.8292 59.7102 63.4457 59.8807C63.0621 60.0511 62.6161 60.1364 62.1076 60.1364C61.44 60.1364 60.8874 59.9915 60.4499 59.7017C60.0124 59.4119 59.7354 58.9886 59.619 58.4318L60.5735 58.1932C60.6644 58.5455 60.8363 58.8097 61.0891 58.9858C61.3448 59.1619 61.6786 59.25 62.0906 59.25C62.5593 59.25 62.9315 59.1506 63.207 58.9517C63.4854 58.75 63.6246 58.5085 63.6246 58.2273C63.6246 58 63.5451 57.8097 63.386 57.6562C63.2269 57.5 62.9826 57.3835 62.6531 57.3068L61.5621 57.0511C60.9627 56.9091 60.5224 56.6889 60.2411 56.3906C59.9627 56.0895 59.8235 55.7131 59.8235 55.2614C59.8235 54.892 59.9272 54.5653 60.1346 54.2812C60.3448 53.9972 60.6303 53.7741 60.9911 53.6122C61.3548 53.4503 61.7667 53.3693 62.2269 53.3693C62.8746 53.3693 63.3832 53.5114 63.7525 53.7955C64.1246 54.0795 64.3888 54.4545 64.5451 54.9205ZM66.1783 60V53.4545H67.1499V54.4432H67.218C67.3374 54.1193 67.5533 53.8565 67.8658 53.6548C68.1783 53.4531 68.5305 53.3523 68.9226 53.3523C68.9964 53.3523 69.0888 53.3537 69.1996 53.3565C69.3104 53.3594 69.3942 53.3636 69.451 53.3693V54.392C69.4169 54.3835 69.3388 54.3707 69.2166 54.3537C69.0973 54.3338 68.9709 54.3239 68.8374 54.3239C68.5192 54.3239 68.2351 54.3906 67.9851 54.5241C67.7379 54.6548 67.5419 54.8366 67.397 55.0696C67.255 55.2997 67.1839 55.5625 67.1839 55.858V60H66.1783Z" fill="white"/>
<path d="M49.5 70C49.5 69.4477 49.0523 69 48.5 69C47.9477 69 47.5 69.4477 47.5 70H49.5ZM47.7929 136.707C48.1834 137.098 48.8166 137.098 49.2071 136.707L55.5711 130.343C55.9616 129.953 55.9616 129.319 55.5711 128.929C55.1805 128.538 54.5474 128.538 54.1569 128.929L48.5 134.586L42.8431 128.929C42.4526 128.538 41.8195 128.538 41.4289 128.929C41.0384 129.319 41.0384 129.953 41.4289 130.343L47.7929 136.707ZM47.5 70L47.5 136H49.5L49.5 70H47.5Z" fill="white"/>
<path d="M19.9164 167.562V171.5H18.9107V162.773H19.9164V165.977H20.0016C20.155 165.639 20.3851 165.371 20.6919 165.172C21.0016 164.97 21.4135 164.869 21.9277 164.869C22.3738 164.869 22.7644 164.959 23.0996 165.138C23.4348 165.314 23.6948 165.585 23.8794 165.952C24.0669 166.315 24.1607 166.778 24.1607 167.341V171.5H23.155V167.409C23.155 166.889 23.0201 166.487 22.7502 166.203C22.4831 165.916 22.1124 165.773 21.638 165.773C21.3084 165.773 21.013 165.842 20.7516 165.982C20.4931 166.121 20.2885 166.324 20.138 166.591C19.9902 166.858 19.9164 167.182 19.9164 167.562ZM26.4139 173.955C26.2434 173.955 26.0914 173.94 25.9579 173.912C25.8244 173.886 25.7321 173.861 25.6809 173.835L25.9366 172.949C26.1809 173.011 26.3968 173.034 26.5843 173.017C26.7718 173 26.938 172.916 27.0829 172.766C27.2306 172.618 27.3656 172.378 27.4877 172.045L27.6752 171.534L25.2548 164.955H26.3457L28.1525 170.17H28.2207L30.0275 164.955H31.1184L28.34 172.455C28.215 172.793 28.0602 173.072 27.8755 173.294C27.6909 173.518 27.4764 173.685 27.2321 173.793C26.9906 173.901 26.7179 173.955 26.4139 173.955ZM34.6831 171.636C34.1376 171.636 33.6561 171.499 33.2385 171.223C32.8208 170.945 32.4941 170.553 32.2583 170.047C32.0225 169.538 31.9047 168.938 31.9047 168.244C31.9047 167.557 32.0225 166.96 32.2583 166.455C32.4941 165.949 32.8223 165.558 33.2427 165.283C33.6632 165.007 34.149 164.869 34.7001 164.869C35.1262 164.869 35.4629 164.94 35.71 165.082C35.96 165.222 36.1504 165.381 36.2811 165.56C36.4146 165.736 36.5183 165.881 36.5922 165.994H36.6774V162.773H37.6831V171.5H36.7115V170.494H36.5922C36.5183 170.614 36.4132 170.764 36.2768 170.946C36.1404 171.125 35.9458 171.286 35.693 171.428C35.4402 171.567 35.1035 171.636 34.6831 171.636ZM34.8194 170.733C35.2228 170.733 35.5637 170.628 35.8422 170.418C36.1206 170.205 36.3322 169.911 36.4771 169.536C36.622 169.158 36.6944 168.722 36.6944 168.227C36.6944 167.739 36.6234 167.311 36.4814 166.945C36.3393 166.575 36.1291 166.288 35.8507 166.084C35.5723 165.876 35.2285 165.773 34.8194 165.773C34.3933 165.773 34.0382 165.882 33.7541 166.101C33.4728 166.317 33.2612 166.611 33.1191 166.983C32.9799 167.352 32.9103 167.767 32.9103 168.227C32.9103 168.693 32.9814 169.116 33.1234 169.497C33.2683 169.875 33.4814 170.176 33.7626 170.401C34.0467 170.622 34.399 170.733 34.8194 170.733ZM39.6646 171.5V164.955H40.6362V165.943H40.7044C40.8237 165.619 41.0396 165.357 41.3521 165.155C41.6646 164.953 42.0169 164.852 42.4089 164.852C42.4828 164.852 42.5751 164.854 42.6859 164.857C42.7967 164.859 42.8805 164.864 42.9373 164.869V165.892C42.9032 165.884 42.8251 165.871 42.7029 165.854C42.5836 165.834 42.4572 165.824 42.3237 165.824C42.0055 165.824 41.7214 165.891 41.4714 166.024C41.2243 166.155 41.0282 166.337 40.8833 166.57C40.7413 166.8 40.6703 167.062 40.6703 167.358V171.5H39.6646ZM46.0556 171.653C45.6408 171.653 45.2644 171.575 44.9263 171.419C44.5882 171.26 44.3198 171.031 44.1209 170.733C43.9221 170.432 43.8226 170.068 43.8226 169.642C43.8226 169.267 43.8965 168.963 44.0442 168.73C44.1919 168.494 44.3894 168.31 44.6365 168.176C44.8837 168.043 45.1564 167.943 45.4547 167.878C45.7559 167.81 46.0584 167.756 46.3624 167.716C46.7601 167.665 47.0826 167.626 47.3297 167.601C47.5797 167.572 47.7615 167.526 47.8752 167.46C47.9917 167.395 48.0499 167.281 48.0499 167.119V167.085C48.0499 166.665 47.9348 166.338 47.7047 166.105C47.4775 165.872 47.1323 165.756 46.6692 165.756C46.1891 165.756 45.8127 165.861 45.54 166.071C45.2672 166.281 45.0755 166.506 44.9647 166.744L44.0101 166.403C44.1806 166.006 44.4078 165.696 44.6919 165.474C44.9789 165.25 45.2914 165.094 45.6294 165.006C45.9703 164.915 46.3056 164.869 46.6351 164.869C46.8453 164.869 47.0868 164.895 47.3596 164.946C47.6351 164.994 47.9007 165.095 48.1564 165.249C48.415 165.402 48.6294 165.634 48.7999 165.943C48.9703 166.253 49.0556 166.668 49.0556 167.188V171.5H48.0499V170.614H47.9988C47.9306 170.756 47.8169 170.908 47.6578 171.07C47.4988 171.232 47.2871 171.369 47.0229 171.483C46.7587 171.597 46.4363 171.653 46.0556 171.653ZM46.209 170.75C46.6067 170.75 46.9419 170.672 47.2147 170.516C47.4902 170.359 47.6976 170.158 47.8368 169.911C47.9789 169.663 48.0499 169.403 48.0499 169.131V168.21C48.0073 168.261 47.9135 168.308 47.7686 168.351C47.6266 168.391 47.4618 168.426 47.2743 168.457C47.0897 168.486 46.9093 168.511 46.7331 168.534C46.5598 168.554 46.4192 168.571 46.3113 168.585C46.0499 168.619 45.8056 168.675 45.5783 168.751C45.3539 168.825 45.1721 168.937 45.0328 169.088C44.8965 169.236 44.8283 169.437 44.8283 169.693C44.8283 170.043 44.9576 170.307 45.2161 170.486C45.4775 170.662 45.8084 170.75 46.209 170.75ZM53.7377 164.955V165.807H50.3457V164.955H53.7377ZM51.3343 163.386H52.34V169.625C52.34 169.909 52.3812 170.122 52.4636 170.264C52.5488 170.403 52.6568 170.497 52.7875 170.545C52.921 170.591 53.0616 170.614 53.2093 170.614C53.3201 170.614 53.411 170.608 53.4821 170.597C53.5531 170.582 53.6099 170.571 53.6525 170.562L53.8571 171.466C53.7889 171.491 53.6937 171.517 53.5716 171.543C53.4494 171.571 53.2946 171.585 53.1071 171.585C52.823 171.585 52.5446 171.524 52.2718 171.402C52.002 171.28 51.7775 171.094 51.5985 170.844C51.4224 170.594 51.3343 170.278 51.3343 169.898V163.386ZM55.2505 171.5V164.955H56.2562V171.5H55.2505ZM55.7619 163.864C55.5659 163.864 55.3968 163.797 55.2548 163.663C55.1156 163.53 55.046 163.369 55.046 163.182C55.046 162.994 55.1156 162.834 55.2548 162.7C55.3968 162.567 55.5659 162.5 55.7619 162.5C55.9579 162.5 56.1255 162.567 56.2647 162.7C56.4068 162.834 56.4778 162.994 56.4778 163.182C56.4778 163.369 56.4068 163.53 56.2647 163.663C56.1255 163.797 55.9579 163.864 55.7619 163.864ZM60.7573 171.636C60.1664 171.636 59.6479 171.496 59.2019 171.214C58.7587 170.933 58.4121 170.54 58.1621 170.034C57.915 169.528 57.7914 168.937 57.7914 168.261C57.7914 167.58 57.915 166.984 58.1621 166.476C58.4121 165.967 58.7587 165.572 59.2019 165.291C59.6479 165.01 60.1664 164.869 60.7573 164.869C61.3482 164.869 61.8652 165.01 62.3084 165.291C62.7544 165.572 63.101 165.967 63.3482 166.476C63.5982 166.984 63.7232 167.58 63.7232 168.261C63.7232 168.937 63.5982 169.528 63.3482 170.034C63.101 170.54 62.7544 170.933 62.3084 171.214C61.8652 171.496 61.3482 171.636 60.7573 171.636ZM60.7573 170.733C61.2061 170.733 61.5755 170.618 61.8652 170.388C62.155 170.158 62.3695 169.855 62.5087 169.48C62.6479 169.105 62.7175 168.699 62.7175 168.261C62.7175 167.824 62.6479 167.416 62.5087 167.038C62.3695 166.661 62.155 166.355 61.8652 166.122C61.5755 165.889 61.2061 165.773 60.7573 165.773C60.3084 165.773 59.9391 165.889 59.6493 166.122C59.3596 166.355 59.1451 166.661 59.0059 167.038C58.8667 167.416 58.7971 167.824 58.7971 168.261C58.7971 168.699 58.8667 169.105 59.0059 169.48C59.1451 169.855 59.3596 170.158 59.6493 170.388C59.9391 170.618 60.3084 170.733 60.7573 170.733ZM66.264 167.562V171.5H65.2583V164.955H66.2299V165.977H66.3152C66.4686 165.645 66.7015 165.378 67.014 165.176C67.3265 164.972 67.7299 164.869 68.2243 164.869C68.6674 164.869 69.0552 164.96 69.3876 165.142C69.72 165.321 69.9785 165.594 70.1632 165.96C70.3478 166.324 70.4402 166.784 70.4402 167.341V171.5H69.4345V167.409C69.4345 166.895 69.301 166.494 69.0339 166.207C68.7669 165.918 68.4004 165.773 67.9345 165.773C67.6135 165.773 67.3265 165.842 67.0737 165.982C66.8237 166.121 66.6262 166.324 66.4814 166.591C66.3365 166.858 66.264 167.182 66.264 167.562ZM78.7381 162.364L75.9256 172.812H75.0051L77.8176 162.364H78.7381ZM14.3521 186.5V179.955H15.3237V180.943H15.3919C15.5112 180.619 15.7271 180.357 16.0396 180.155C16.3521 179.953 16.7044 179.852 17.0964 179.852C17.1703 179.852 17.2626 179.854 17.3734 179.857C17.4842 179.859 17.568 179.864 17.6248 179.869V180.892C17.5907 180.884 17.5126 180.871 17.3904 180.854C17.2711 180.834 17.1447 180.824 17.0112 180.824C16.693 180.824 16.4089 180.891 16.1589 181.024C15.9118 181.155 15.7157 181.337 15.5708 181.57C15.4288 181.8 15.3578 182.062 15.3578 182.358V186.5H14.3521ZM21.362 186.636C20.7314 186.636 20.1873 186.497 19.7299 186.219C19.2754 185.938 18.9245 185.545 18.6774 185.043C18.4331 184.537 18.3109 183.949 18.3109 183.278C18.3109 182.608 18.4331 182.017 18.6774 181.506C18.9245 180.991 19.2683 180.591 19.7086 180.304C20.1518 180.014 20.6689 179.869 21.2598 179.869C21.6007 179.869 21.9373 179.926 22.2697 180.04C22.6021 180.153 22.9047 180.338 23.1774 180.594C23.4501 180.847 23.6674 181.182 23.8294 181.599C23.9913 182.017 24.0723 182.531 24.0723 183.142V183.568H19.0268V182.699H23.0495C23.0495 182.33 22.9757 182 22.8279 181.71C22.6831 181.42 22.4757 181.192 22.2058 181.024C21.9387 180.857 21.6234 180.773 21.2598 180.773C20.8592 180.773 20.5126 180.872 20.22 181.071C19.9302 181.267 19.7072 181.523 19.551 181.838C19.3947 182.153 19.3166 182.491 19.3166 182.852V183.432C19.3166 183.926 19.4018 184.345 19.5723 184.689C19.7456 185.03 19.9856 185.29 20.2924 185.469C20.5993 185.645 20.9558 185.733 21.362 185.733C21.6262 185.733 21.8649 185.696 22.0779 185.622C22.2939 185.545 22.4799 185.432 22.6362 185.281C22.7924 185.128 22.9132 184.937 22.9984 184.71L23.97 184.983C23.8677 185.312 23.6958 185.602 23.4544 185.852C23.2129 186.099 22.9146 186.293 22.5595 186.432C22.2044 186.568 21.8052 186.636 21.362 186.636ZM29.3521 182.29V183.227H25.5339V182.29H29.3521ZM32.1273 182.562V186.5H31.1216V177.773H32.1273V180.977H32.2125C32.3659 180.639 32.5961 180.371 32.9029 180.172C33.2125 179.97 33.6245 179.869 34.1387 179.869C34.5847 179.869 34.9753 179.959 35.3105 180.138C35.6458 180.314 35.9057 180.585 36.0904 180.952C36.2779 181.315 36.3716 181.778 36.3716 182.341V186.5H35.3659V182.409C35.3659 181.889 35.231 181.487 34.9611 181.203C34.6941 180.916 34.3233 180.773 33.8489 180.773C33.5194 180.773 33.2239 180.842 32.9625 180.982C32.704 181.121 32.4995 181.324 32.3489 181.591C32.2012 181.858 32.1273 182.182 32.1273 182.562ZM38.6248 188.955C38.4544 188.955 38.3024 188.94 38.1689 188.912C38.0353 188.886 37.943 188.861 37.8919 188.835L38.1475 187.949C38.3919 188.011 38.6078 188.034 38.7953 188.017C38.9828 188 39.149 187.916 39.2939 187.766C39.4416 187.618 39.5765 187.378 39.6987 187.045L39.8862 186.534L37.4657 179.955H38.5566L40.3635 185.17H40.4316L42.2385 179.955H43.3294L40.551 187.455C40.426 187.793 40.2711 188.072 40.0865 188.294C39.9018 188.518 39.6873 188.685 39.443 188.793C39.2015 188.901 38.9288 188.955 38.6248 188.955ZM46.894 186.636C46.3485 186.636 45.867 186.499 45.4494 186.223C45.0318 185.945 44.7051 185.553 44.4693 185.047C44.2335 184.538 44.1156 183.938 44.1156 183.244C44.1156 182.557 44.2335 181.96 44.4693 181.455C44.7051 180.949 45.0332 180.558 45.4537 180.283C45.8741 180.007 46.3599 179.869 46.911 179.869C47.3372 179.869 47.6738 179.94 47.921 180.082C48.171 180.222 48.3613 180.381 48.492 180.56C48.6255 180.736 48.7292 180.881 48.8031 180.994H48.8883V177.773H49.894V186.5H48.9224V185.494H48.8031C48.7292 185.614 48.6241 185.764 48.4877 185.946C48.3514 186.125 48.1568 186.286 47.9039 186.428C47.6511 186.567 47.3145 186.636 46.894 186.636ZM47.0304 185.733C47.4338 185.733 47.7747 185.628 48.0531 185.418C48.3315 185.205 48.5431 184.911 48.688 184.536C48.8329 184.158 48.9054 183.722 48.9054 183.227C48.9054 182.739 48.8343 182.311 48.6923 181.945C48.5502 181.575 48.34 181.288 48.0616 181.084C47.7832 180.876 47.4395 180.773 47.0304 180.773C46.6042 180.773 46.2491 180.882 45.965 181.101C45.6838 181.317 45.4721 181.611 45.3301 181.983C45.1909 182.352 45.1213 182.767 45.1213 183.227C45.1213 183.693 45.1923 184.116 45.3343 184.497C45.4792 184.875 45.6923 185.176 45.9735 185.401C46.2576 185.622 46.6099 185.733 47.0304 185.733ZM51.8755 186.5V179.955H52.8471V180.943H52.9153C53.0346 180.619 53.2505 180.357 53.563 180.155C53.8755 179.953 54.2278 179.852 54.6199 179.852C54.6937 179.852 54.786 179.854 54.8968 179.857C55.0076 179.859 55.0914 179.864 55.1483 179.869V180.892C55.1142 180.884 55.036 180.871 54.9139 180.854C54.7946 180.834 54.6681 180.824 54.5346 180.824C54.2164 180.824 53.9324 180.891 53.6824 181.024C53.4352 181.155 53.2392 181.337 53.0943 181.57C52.9522 181.8 52.8812 182.062 52.8812 182.358V186.5H51.8755ZM58.2665 186.653C57.8517 186.653 57.4753 186.575 57.1373 186.419C56.7992 186.26 56.5307 186.031 56.3319 185.733C56.133 185.432 56.0336 185.068 56.0336 184.642C56.0336 184.267 56.1074 183.963 56.2551 183.73C56.4029 183.494 56.6003 183.31 56.8475 183.176C57.0946 183.043 57.3674 182.943 57.6657 182.878C57.9668 182.81 58.2694 182.756 58.5733 182.716C58.9711 182.665 59.2935 182.626 59.5407 182.601C59.7907 182.572 59.9725 182.526 60.0861 182.46C60.2026 182.395 60.2608 182.281 60.2608 182.119V182.085C60.2608 181.665 60.1458 181.338 59.9157 181.105C59.6884 180.872 59.3432 180.756 58.8801 180.756C58.4 180.756 58.0236 180.861 57.7509 181.071C57.4782 181.281 57.2864 181.506 57.1756 181.744L56.2211 181.403C56.3915 181.006 56.6188 180.696 56.9029 180.474C57.1898 180.25 57.5023 180.094 57.8404 180.006C58.1813 179.915 58.5165 179.869 58.8461 179.869C59.0563 179.869 59.2978 179.895 59.5705 179.946C59.8461 179.994 60.1117 180.095 60.3674 180.249C60.6259 180.402 60.8404 180.634 61.0108 180.943C61.1813 181.253 61.2665 181.668 61.2665 182.188V186.5H60.2608V185.614H60.2097C60.1415 185.756 60.0279 185.908 59.8688 186.07C59.7097 186.232 59.498 186.369 59.2338 186.483C58.9696 186.597 58.6472 186.653 58.2665 186.653ZM58.4199 185.75C58.8176 185.75 59.1529 185.672 59.4256 185.516C59.7012 185.359 59.9086 185.158 60.0478 184.911C60.1898 184.663 60.2608 184.403 60.2608 184.131V183.21C60.2182 183.261 60.1245 183.308 59.9796 183.351C59.8375 183.391 59.6728 183.426 59.4853 183.457C59.3006 183.486 59.1202 183.511 58.9441 183.534C58.7708 183.554 58.6301 183.571 58.5222 183.585C58.2608 183.619 58.0165 183.675 57.7892 183.751C57.5648 183.825 57.383 183.937 57.2438 184.088C57.1074 184.236 57.0392 184.437 57.0392 184.693C57.0392 185.043 57.1685 185.307 57.427 185.486C57.6884 185.662 58.0194 185.75 58.4199 185.75ZM65.9487 179.955V180.807H62.5566V179.955H65.9487ZM63.5453 178.386H64.551V184.625C64.551 184.909 64.5922 185.122 64.6745 185.264C64.7598 185.403 64.8677 185.497 64.9984 185.545C65.1319 185.591 65.2725 185.614 65.4203 185.614C65.5311 185.614 65.622 185.608 65.693 185.597C65.764 185.582 65.8208 185.571 65.8635 185.562L66.068 186.466C65.9998 186.491 65.9047 186.517 65.7825 186.543C65.6603 186.571 65.5055 186.585 65.318 186.585C65.0339 186.585 64.7555 186.524 64.4828 186.402C64.2129 186.28 63.9885 186.094 63.8095 185.844C63.6333 185.594 63.5453 185.278 63.5453 184.898V178.386ZM67.4615 186.5V179.955H68.4672V186.5H67.4615ZM67.9728 178.864C67.7768 178.864 67.6078 178.797 67.4657 178.663C67.3265 178.53 67.2569 178.369 67.2569 178.182C67.2569 177.994 67.3265 177.834 67.4657 177.7C67.6078 177.567 67.7768 177.5 67.9728 177.5C68.1689 177.5 68.3365 177.567 68.4757 177.7C68.6177 177.834 68.6887 177.994 68.6887 178.182C68.6887 178.369 68.6177 178.53 68.4757 178.663C68.3365 178.797 68.1689 178.864 67.9728 178.864ZM72.9682 186.636C72.3773 186.636 71.8588 186.496 71.4128 186.214C70.9696 185.933 70.623 185.54 70.373 185.034C70.1259 184.528 70.0023 183.937 70.0023 183.261C70.0023 182.58 70.1259 181.984 70.373 181.476C70.623 180.967 70.9696 180.572 71.4128 180.291C71.8588 180.01 72.3773 179.869 72.9682 179.869C73.5591 179.869 74.0762 180.01 74.5194 180.291C74.9654 180.572 75.312 180.967 75.5591 181.476C75.8091 181.984 75.9341 182.58 75.9341 183.261C75.9341 183.937 75.8091 184.528 75.5591 185.034C75.312 185.54 74.9654 185.933 74.5194 186.214C74.0762 186.496 73.5591 186.636 72.9682 186.636ZM72.9682 185.733C73.4171 185.733 73.7864 185.618 74.0762 185.388C74.3659 185.158 74.5804 184.855 74.7196 184.48C74.8588 184.105 74.9284 183.699 74.9284 183.261C74.9284 182.824 74.8588 182.416 74.7196 182.038C74.5804 181.661 74.3659 181.355 74.0762 181.122C73.7864 180.889 73.4171 180.773 72.9682 180.773C72.5194 180.773 72.15 180.889 71.8603 181.122C71.5705 181.355 71.356 181.661 71.2168 182.038C71.0776 182.416 71.008 182.824 71.008 183.261C71.008 183.699 71.0776 184.105 71.2168 184.48C71.356 184.855 71.5705 185.158 71.8603 185.388C72.15 185.618 72.5194 185.733 72.9682 185.733ZM78.475 182.562V186.5H77.4693V179.955H78.4409V180.977H78.5261C78.6795 180.645 78.9125 180.378 79.225 180.176C79.5375 179.972 79.9409 179.869 80.4352 179.869C80.8784 179.869 81.2662 179.96 81.5985 180.142C81.9309 180.321 82.1895 180.594 82.3741 180.96C82.5588 181.324 82.6511 181.784 82.6511 182.341V186.5H81.6454V182.409C81.6454 181.895 81.5119 181.494 81.2449 181.207C80.9778 180.918 80.6113 180.773 80.1454 180.773C79.8244 180.773 79.5375 180.842 79.2846 180.982C79.0346 181.121 78.8372 181.324 78.6923 181.591C78.5474 181.858 78.475 182.182 78.475 182.562Z" fill="white"/>
<path d="M49.2499 212.985C49.2415 212.433 48.7871 211.992 48.2349 212C47.6826 212.008 47.2417 212.463 47.2501 213.015L49.2499 212.985ZM48.0537 246.718C48.4501 247.102 49.0832 247.093 49.4677 246.696L55.7346 240.237C56.1191 239.84 56.1095 239.207 55.7131 238.823C55.3167 238.438 54.6836 238.448 54.2991 238.844L48.7286 244.586L42.9867 239.015C42.5903 238.631 41.9572 238.64 41.5726 239.037C41.1881 239.433 41.1976 240.066 41.594 240.451L48.0537 246.718ZM47.2501 213.015L47.2814 215.078L49.2811 215.047L49.2499 212.985L47.2501 213.015ZM47.3439 219.203L47.4064 223.328L49.4061 223.297L49.3436 219.172L47.3439 219.203ZM47.4689 227.453L47.5314 231.578L49.5311 231.547L49.4686 227.422L47.4689 227.453ZM47.5939 235.703L47.6564 239.828L49.6561 239.797L49.5936 235.672L47.5939 235.703ZM47.7189 243.953L47.7501 246.015L49.7499 245.985L49.7186 243.922L47.7189 243.953ZM49.2499 212.985C49.2415 212.433 48.7871 211.992 48.2349 212C47.6826 212.008 47.2417 212.463 47.2501 213.015L49.2499 212.985ZM48.0537 246.718C48.4501 247.102 49.0832 247.093 49.4677 246.696L55.7346 240.237C56.1191 239.84 56.1095 239.207 55.7131 238.823C55.3167 238.438 54.6836 238.448 54.2991 238.844L48.7286 244.586L42.9867 239.015C42.5903 238.631 41.9572 238.64 41.5726 239.037C41.1881 239.433 41.1976 240.066 41.594 240.451L48.0537 246.718ZM47.2501 213.015L47.2814 215.078L49.2811 215.047L49.2499 212.985L47.2501 213.015ZM47.3439 219.203L47.4064 223.328L49.4061 223.297L49.3436 219.172L47.3439 219.203ZM47.4689 227.453L47.5314 231.578L49.5311 231.547L49.4686 227.422L47.4689 227.453ZM47.5939 235.703L47.6564 239.828L49.6561 239.797L49.5936 235.672L47.5939 235.703ZM47.7189 243.953L47.7501 246.015L49.7499 245.985L49.7186 243.922L47.7189 243.953Z" fill="white"/>
<path d="M75.875 255.938H21.125C19.6124 255.938 18.1618 256.529 17.0923 257.582C16.0227 258.635 15.4219 260.063 15.4219 261.552V306.464C15.4219 307.953 16.0227 309.38 17.0923 310.433C18.1618 311.486 19.6124 312.078 21.125 312.078H75.875C77.3876 312.078 78.8382 311.486 79.9077 310.433C80.9773 309.38 81.5781 307.953 81.5781 306.464V261.552C81.5781 260.063 80.9773 258.635 79.9077 257.582C78.8382 256.529 77.3876 255.938 75.875 255.938ZM79.2969 306.464C79.2969 307.357 78.9364 308.214 78.2946 308.845C77.6529 309.477 76.7825 309.832 75.875 309.832H21.125C20.2175 309.832 19.3471 309.477 18.7054 308.845C18.0636 308.214 17.7031 307.357 17.7031 306.464V267.166H79.2969V306.464ZM17.7031 264.92V261.552C17.7031 260.658 18.0636 259.801 18.7054 259.17C19.3471 258.538 20.2175 258.183 21.125 258.183H75.875C76.7825 258.183 77.6529 258.538 78.2946 259.17C78.9364 259.801 79.2969 260.658 79.2969 261.552V264.92H17.7031ZM74.7344 261.552C74.7344 261.774 74.6675 261.991 74.5421 262.175C74.4168 262.36 74.2387 262.504 74.0302 262.589C73.8218 262.674 73.5925 262.696 73.3712 262.653C73.15 262.609 72.9467 262.502 72.7872 262.345C72.6277 262.188 72.5191 261.988 72.475 261.771C72.431 261.553 72.4536 261.327 72.54 261.122C72.6263 260.917 72.7725 260.741 72.9601 260.618C73.1476 260.495 73.3682 260.429 73.5938 260.429C73.8963 260.429 74.1864 260.547 74.4003 260.758C74.6142 260.968 74.7344 261.254 74.7344 261.552ZM71.3125 261.552C71.3125 261.774 71.2456 261.991 71.1203 262.175C70.9949 262.36 70.8168 262.504 70.6084 262.589C70.4 262.674 70.1706 262.696 69.9493 262.653C69.7281 262.609 69.5248 262.502 69.3653 262.345C69.2058 262.188 69.0972 261.988 69.0532 261.771C69.0092 261.553 69.0317 261.327 69.1181 261.122C69.2044 260.917 69.3506 260.741 69.5382 260.618C69.7258 260.495 69.9463 260.429 70.1719 260.429C70.4744 260.429 70.7645 260.547 70.9784 260.758C71.1923 260.968 71.3125 261.254 71.3125 261.552ZM67.8906 261.552C67.8906 261.774 67.8237 261.991 67.6984 262.175C67.5731 262.36 67.3949 262.504 67.1865 262.589C66.9781 262.674 66.7487 262.696 66.5275 262.653C66.3062 262.609 66.103 262.502 65.9435 262.345C65.7839 262.188 65.6753 261.988 65.6313 261.771C65.5873 261.553 65.6099 261.327 65.6962 261.122C65.7825 260.917 65.9287 260.741 66.1163 260.618C66.3039 260.495 66.5244 260.429 66.75 260.429C67.0525 260.429 67.3426 260.547 67.5565 260.758C67.7705 260.968 67.8906 261.254 67.8906 261.552ZM23.4062 307.586H46.2188C46.5213 307.586 46.8114 307.468 47.0253 307.258C47.2392 307.047 47.3594 306.761 47.3594 306.464V270.534C47.3594 270.236 47.2392 269.951 47.0253 269.74C46.8114 269.529 46.5213 269.411 46.2188 269.411H23.4062C23.1037 269.411 22.8136 269.529 22.5997 269.74C22.3858 269.951 22.2656 270.236 22.2656 270.534V306.464C22.2656 306.761 22.3858 307.047 22.5997 307.258C22.8136 307.468 23.1037 307.586 23.4062 307.586ZM24.5469 271.657H45.0781V305.341H24.5469V271.657ZM50.7812 280.639H73.5938C73.8963 280.639 74.1864 280.521 74.4003 280.31C74.6142 280.1 74.7344 279.814 74.7344 279.516V270.534C74.7344 270.236 74.6142 269.951 74.4003 269.74C74.1864 269.529 73.8963 269.411 73.5938 269.411H50.7812C50.4787 269.411 50.1886 269.529 49.9747 269.74C49.7608 269.951 49.6406 270.236 49.6406 270.534V279.516C49.6406 279.814 49.7608 280.1 49.9747 280.31C50.1886 280.521 50.4787 280.639 50.7812 280.639ZM51.9219 271.657H72.4531V278.394H51.9219V271.657ZM50.7812 294.113H73.5938C73.8963 294.113 74.1864 293.994 74.4003 293.784C74.6142 293.573 74.7344 293.288 74.7344 292.99V284.008C74.7344 283.71 74.6142 283.424 74.4003 283.214C74.1864 283.003 73.8963 282.885 73.5938 282.885H50.7812C50.4787 282.885 50.1886 283.003 49.9747 283.214C49.7608 283.424 49.6406 283.71 49.6406 284.008V292.99C49.6406 293.288 49.7608 293.573 49.9747 293.784C50.1886 293.994 50.4787 294.113 50.7812 294.113ZM51.9219 285.13H72.4531V291.867H51.9219V285.13ZM50.7812 307.586H73.5938C73.8963 307.586 74.1864 307.468 74.4003 307.258C74.6142 307.047 74.7344 306.761 74.7344 306.464V297.481C74.7344 297.183 74.6142 296.898 74.4003 296.687C74.1864 296.477 73.8963 296.358 73.5938 296.358H50.7812C50.4787 296.358 50.1886 296.477 49.9747 296.687C49.7608 296.898 49.6406 297.183 49.6406 297.481V306.464C49.6406 306.761 49.7608 307.047 49.9747 307.258C50.1886 307.468 50.4787 307.586 50.7812 307.586ZM51.9219 298.604H72.4531V305.341H51.9219V298.604Z" fill="white"/>
</svg>
