<svg width="516" height="146" viewBox="0 0 516 146" fill="none" xmlns="http://www.w3.org/2000/svg">
<path d="M36.6 44.4756H45L24 86.1831L3 44.4756H18.7715L24 54.1469L29.3473 44.4756H36.6Z" fill="#41B883"/>
<path d="M11 44.4756L24.0539 68.805L37 44.4756H29.0166L24.0539 53.833L18.9834 44.4756H11Z" fill="#35495E"/>
<path d="M14.3816 92.2727L16.9725 99.6193H17.0748L19.6657 92.2727H20.7736L17.5691 101H16.4782L13.2736 92.2727H14.3816ZM26.1216 98.3239V94.4545H27.1273V101H26.1216V99.892H26.0534C25.9 100.224 25.6614 100.507 25.3375 100.74C25.0137 100.97 24.6046 101.085 24.1103 101.085C23.7012 101.085 23.3375 100.996 23.0194 100.817C22.7012 100.635 22.4512 100.362 22.2694 99.9986C22.0875 99.6321 21.9966 99.1705 21.9966 98.6136V94.4545H23.0023V98.5455C23.0023 99.0227 23.1358 99.4034 23.4029 99.6875C23.6728 99.9716 24.0165 100.114 24.4341 100.114C24.6841 100.114 24.9384 100.05 25.1969 99.9219C25.4583 99.794 25.677 99.598 25.8532 99.3338C26.0321 99.0696 26.1216 98.733 26.1216 98.3239ZM31.7136 101.136C31.0829 101.136 30.5389 100.997 30.0815 100.719C29.627 100.438 29.2761 100.045 29.0289 99.5426C28.7846 99.0369 28.6625 98.4489 28.6625 97.7784C28.6625 97.108 28.7846 96.517 29.0289 96.0057C29.2761 95.4915 29.6199 95.0909 30.0602 94.804C30.5034 94.5142 31.0204 94.3693 31.6113 94.3693C31.9522 94.3693 32.2889 94.4261 32.6213 94.5398C32.9537 94.6534 33.2562 94.8381 33.5289 95.0938C33.8017 95.3466 34.019 95.6818 34.1809 96.0994C34.3429 96.517 34.4238 97.0312 34.4238 97.642V98.0682H29.3784V97.1989H33.4011C33.4011 96.8295 33.3272 96.5 33.1795 96.2102C33.0346 95.9205 32.8272 95.6918 32.5574 95.5241C32.2903 95.3565 31.975 95.2727 31.6113 95.2727C31.2108 95.2727 30.8642 95.3722 30.5716 95.571C30.2818 95.767 30.0588 96.0227 29.9025 96.3381C29.7463 96.6534 29.6681 96.9915 29.6681 97.3523V97.9318C29.6681 98.4261 29.7534 98.8452 29.9238 99.1889C30.0971 99.5298 30.3372 99.7898 30.644 99.9688C30.9508 100.145 31.3074 100.233 31.7136 100.233C31.9778 100.233 32.2164 100.196 32.4295 100.122C32.6454 100.045 32.8315 99.9318 32.9877 99.7812C33.144 99.6278 33.2647 99.4375 33.35 99.2102L34.3216 99.483C34.2193 99.8125 34.0474 100.102 33.8059 100.352C33.5645 100.599 33.2662 100.793 32.911 100.932C32.5559 101.068 32.1568 101.136 31.7136 101.136Z" fill="white"/>
<path d="M149.5 3C147.909 3 146.383 3.63214 145.257 4.75736C144.132 5.88258 143.5 7.4087 143.5 9V39C143.5 40.5913 144.132 42.1174 145.257 43.2426C146.383 44.3679 147.909 45 149.5 45H167.5C169.091 45 170.617 44.3679 171.743 43.2426C172.868 42.1174 173.5 40.5913 173.5 39V16.242C173.499 15.0489 173.024 13.9051 172.18 13.062L163.441 4.317C163.023 3.8992 162.527 3.56785 161.981 3.34188C161.434 3.1159 160.849 2.99973 160.258 3H149.5ZM146.5 9C146.5 8.20435 146.816 7.44129 147.379 6.87868C147.941 6.31607 148.704 6 149.5 6H158.5V13.5C158.5 14.6935 158.974 15.8381 159.818 16.682C160.662 17.5259 161.807 18 163 18H170.5V39C170.5 39.7956 170.184 40.5587 169.621 41.1213C169.059 41.6839 168.296 42 167.5 42H149.5C148.704 42 147.941 41.6839 147.379 41.1213C146.816 40.5587 146.5 39.7956 146.5 39V9ZM169.879 15H163C162.602 15 162.221 14.842 161.939 14.5607C161.658 14.2794 161.5 13.8978 161.5 13.5V6.621L169.879 15Z" fill="white"/>
<path d="M149.719 54.9205L148.816 55.1761C148.759 55.0256 148.675 54.8793 148.564 54.7372C148.456 54.5923 148.308 54.473 148.121 54.3793C147.933 54.2855 147.693 54.2386 147.401 54.2386C147 54.2386 146.666 54.331 146.399 54.5156C146.135 54.6974 146.003 54.929 146.003 55.2102C146.003 55.4602 146.094 55.6577 146.276 55.8026C146.458 55.9474 146.742 56.0682 147.128 56.1648L148.1 56.4034C148.685 56.5455 149.121 56.7628 149.408 57.0554C149.695 57.3452 149.838 57.7187 149.838 58.1761C149.838 58.5511 149.73 58.8864 149.514 59.1818C149.301 59.4773 149.003 59.7102 148.619 59.8807C148.236 60.0511 147.79 60.1364 147.281 60.1364C146.614 60.1364 146.061 59.9915 145.624 59.7017C145.186 59.4119 144.909 58.9886 144.793 58.4318L145.747 58.1932C145.838 58.5455 146.01 58.8097 146.263 58.9858C146.519 59.1619 146.852 59.25 147.264 59.25C147.733 59.25 148.105 59.1506 148.381 58.9517C148.659 58.75 148.798 58.5085 148.798 58.2273C148.798 58 148.719 57.8097 148.56 57.6562C148.401 57.5 148.156 57.3835 147.827 57.3068L146.736 57.0511C146.137 56.9091 145.696 56.6889 145.415 56.3906C145.137 56.0895 144.997 55.7131 144.997 55.2614C144.997 54.892 145.101 54.5653 145.308 54.2812C145.519 53.9972 145.804 53.7741 146.165 53.6122C146.529 53.4503 146.941 53.3693 147.401 53.3693C148.048 53.3693 148.557 53.5114 148.926 53.7955C149.298 54.0795 149.563 54.4545 149.719 54.9205ZM155.988 54.9205L155.085 55.1761C155.028 55.0256 154.944 54.8793 154.834 54.7372C154.726 54.5923 154.578 54.473 154.39 54.3793C154.203 54.2855 153.963 54.2386 153.67 54.2386C153.27 54.2386 152.936 54.331 152.669 54.5156C152.405 54.6974 152.273 54.929 152.273 55.2102C152.273 55.4602 152.363 55.6577 152.545 55.8026C152.727 55.9474 153.011 56.0682 153.398 56.1648L154.369 56.4034C154.954 56.5455 155.39 56.7628 155.677 57.0554C155.964 57.3452 156.108 57.7187 156.108 58.1761C156.108 58.5511 156 58.8864 155.784 59.1818C155.571 59.4773 155.273 59.7102 154.889 59.8807C154.506 60.0511 154.059 60.1364 153.551 60.1364C152.883 60.1364 152.331 59.9915 151.893 59.7017C151.456 59.4119 151.179 58.9886 151.062 58.4318L152.017 58.1932C152.108 58.5455 152.28 58.8097 152.532 58.9858C152.788 59.1619 153.122 59.25 153.534 59.25C154.003 59.25 154.375 59.1506 154.65 58.9517C154.929 58.75 155.068 58.5085 155.068 58.2273C155.068 58 154.988 57.8097 154.829 57.6562C154.67 57.5 154.426 57.3835 154.096 57.3068L153.006 57.0511C152.406 56.9091 151.966 56.6889 151.684 56.3906C151.406 56.0895 151.267 55.7131 151.267 55.2614C151.267 54.892 151.371 54.5653 151.578 54.2812C151.788 53.9972 152.074 53.7741 152.434 53.6122C152.798 53.4503 153.21 53.3693 153.67 53.3693C154.318 53.3693 154.827 53.5114 155.196 53.7955C155.568 54.0795 155.832 54.4545 155.988 54.9205ZM157.622 60V53.4545H158.593V54.4432H158.661C158.781 54.1193 158.997 53.8565 159.309 53.6548C159.622 53.4531 159.974 53.3523 160.366 53.3523C160.44 53.3523 160.532 53.3537 160.643 53.3565C160.754 53.3594 160.838 53.3636 160.894 53.3693V54.392C160.86 54.3835 160.782 54.3707 160.66 54.3537C160.541 54.3338 160.414 54.3239 160.281 54.3239C159.963 54.3239 159.678 54.3906 159.428 54.5241C159.181 54.6548 158.985 54.8366 158.84 55.0696C158.698 55.2997 158.627 55.5625 158.627 55.858V60H157.622ZM162.069 60.0682C161.859 60.0682 161.679 59.9929 161.528 59.8423C161.378 59.6918 161.302 59.5114 161.302 59.3011C161.302 59.0909 161.378 58.9105 161.528 58.7599C161.679 58.6094 161.859 58.5341 162.069 58.5341C162.28 58.5341 162.46 58.6094 162.611 58.7599C162.761 58.9105 162.836 59.0909 162.836 59.3011C162.836 59.4403 162.801 59.5682 162.73 59.6847C162.662 59.8011 162.569 59.8949 162.453 59.9659C162.339 60.0341 162.211 60.0682 162.069 60.0682ZM164.641 53.4545H165.647V60.4773C165.647 60.8807 165.577 61.2301 165.438 61.5256C165.302 61.821 165.094 62.0497 164.816 62.2116C164.54 62.3736 164.192 62.4545 163.772 62.4545C163.738 62.4545 163.704 62.4545 163.67 62.4545C163.635 62.4545 163.601 62.4545 163.567 62.4545V61.517C163.601 61.517 163.633 61.517 163.661 61.517C163.689 61.517 163.721 61.517 163.755 61.517C164.062 61.517 164.286 61.4261 164.428 61.2443C164.57 61.0653 164.641 60.8097 164.641 60.4773V53.4545ZM165.135 52.3636C164.939 52.3636 164.77 52.2969 164.628 52.1634C164.489 52.0298 164.42 51.8693 164.42 51.6818C164.42 51.4943 164.489 51.3338 164.628 51.2003C164.77 51.0668 164.939 51 165.135 51C165.331 51 165.499 51.0668 165.638 51.2003C165.78 51.3338 165.851 51.4943 165.851 51.6818C165.851 51.8693 165.78 52.0298 165.638 52.1634C165.499 52.2969 165.331 52.3636 165.135 52.3636ZM172.125 54.9205L171.222 55.1761C171.165 55.0256 171.081 54.8793 170.97 54.7372C170.862 54.5923 170.715 54.473 170.527 54.3793C170.34 54.2855 170.1 54.2386 169.807 54.2386C169.406 54.2386 169.073 54.331 168.806 54.5156C168.541 54.6974 168.409 54.929 168.409 55.2102C168.409 55.4602 168.5 55.6577 168.682 55.8026C168.864 55.9474 169.148 56.0682 169.534 56.1648L170.506 56.4034C171.091 56.5455 171.527 56.7628 171.814 57.0554C172.101 57.3452 172.244 57.7187 172.244 58.1761C172.244 58.5511 172.137 58.8864 171.921 59.1818C171.708 59.4773 171.409 59.7102 171.026 59.8807C170.642 60.0511 170.196 60.1364 169.688 60.1364C169.02 60.1364 168.468 59.9915 168.03 59.7017C167.593 59.4119 167.316 58.9886 167.199 58.4318L168.154 58.1932C168.244 58.5455 168.416 58.8097 168.669 58.9858C168.925 59.1619 169.259 59.25 169.671 59.25C170.139 59.25 170.512 59.1506 170.787 58.9517C171.066 58.75 171.205 58.5085 171.205 58.2273C171.205 58 171.125 57.8097 170.966 57.6562C170.807 57.5 170.563 57.3835 170.233 57.3068L169.142 57.0511C168.543 56.9091 168.102 56.6889 167.821 56.3906C167.543 56.0895 167.404 55.7131 167.404 55.2614C167.404 54.892 167.507 54.5653 167.715 54.2812C167.925 53.9972 168.21 53.7741 168.571 53.6122C168.935 53.4503 169.347 53.3693 169.807 53.3693C170.455 53.3693 170.963 53.5114 171.333 53.7955C171.705 54.0795 171.969 54.4545 172.125 54.9205Z" fill="white"/>
<path d="M149.5 86C147.909 86 146.383 86.6321 145.257 87.7574C144.132 88.8826 143.5 90.4087 143.5 92V122C143.5 123.591 144.132 125.117 145.257 126.243C146.383 127.368 147.909 128 149.5 128H167.5C169.091 128 170.617 127.368 171.743 126.243C172.868 125.117 173.5 123.591 173.5 122V99.242C173.499 98.0489 173.024 96.9051 172.18 96.062L163.441 87.317C163.023 86.8992 162.527 86.5679 161.981 86.3419C161.434 86.1159 160.849 85.9997 160.258 86H149.5ZM146.5 92C146.5 91.2044 146.816 90.4413 147.379 89.8787C147.941 89.3161 148.704 89 149.5 89H158.5V96.5C158.5 97.6935 158.974 98.8381 159.818 99.682C160.662 100.526 161.807 101 163 101H170.5V122C170.5 122.796 170.184 123.559 169.621 124.121C169.059 124.684 168.296 125 167.5 125H149.5C148.704 125 147.941 124.684 147.379 124.121C146.816 123.559 146.5 122.796 146.5 122V92ZM169.879 98H163C162.602 98 162.221 97.842 161.939 97.5607C161.658 97.2794 161.5 96.8978 161.5 96.5V89.621L169.879 98Z" fill="white"/>
<path d="M139.68 143V136.455H140.652V137.477H140.737C140.873 137.128 141.094 136.857 141.398 136.663C141.702 136.467 142.067 136.369 142.493 136.369C142.925 136.369 143.284 136.467 143.571 136.663C143.861 136.857 144.086 137.128 144.248 137.477H144.317C144.484 137.139 144.736 136.871 145.071 136.672C145.406 136.47 145.808 136.369 146.277 136.369C146.862 136.369 147.341 136.553 147.713 136.919C148.085 137.283 148.271 137.849 148.271 138.619V143H147.265V138.619C147.265 138.136 147.133 137.791 146.869 137.584C146.605 137.376 146.294 137.273 145.936 137.273C145.476 137.273 145.119 137.412 144.866 137.69C144.613 137.966 144.487 138.315 144.487 138.739V143H143.464V138.517C143.464 138.145 143.344 137.845 143.102 137.618C142.861 137.388 142.55 137.273 142.169 137.273C141.907 137.273 141.663 137.342 141.436 137.482C141.211 137.621 141.03 137.814 140.89 138.061C140.754 138.305 140.686 138.588 140.686 138.909V143H139.68ZM152.036 143.153C151.621 143.153 151.245 143.075 150.907 142.919C150.569 142.76 150.3 142.531 150.101 142.233C149.903 141.932 149.803 141.568 149.803 141.142C149.803 140.767 149.877 140.463 150.025 140.23C150.172 139.994 150.37 139.81 150.617 139.676C150.864 139.543 151.137 139.443 151.435 139.378C151.736 139.31 152.039 139.256 152.343 139.216C152.741 139.165 153.063 139.126 153.31 139.101C153.56 139.072 153.742 139.026 153.856 138.96C153.972 138.895 154.03 138.781 154.03 138.619V138.585C154.03 138.165 153.915 137.838 153.685 137.605C153.458 137.372 153.113 137.256 152.65 137.256C152.17 137.256 151.793 137.361 151.52 137.571C151.248 137.781 151.056 138.006 150.945 138.244L149.991 137.903C150.161 137.506 150.388 137.196 150.672 136.974C150.959 136.75 151.272 136.594 151.61 136.506C151.951 136.415 152.286 136.369 152.616 136.369C152.826 136.369 153.067 136.395 153.34 136.446C153.616 136.494 153.881 136.595 154.137 136.749C154.395 136.902 154.61 137.134 154.78 137.443C154.951 137.753 155.036 138.168 155.036 138.688V143H154.03V142.114H153.979C153.911 142.256 153.797 142.408 153.638 142.57C153.479 142.732 153.268 142.869 153.003 142.983C152.739 143.097 152.417 143.153 152.036 143.153ZM152.189 142.25C152.587 142.25 152.922 142.172 153.195 142.016C153.471 141.859 153.678 141.658 153.817 141.411C153.959 141.163 154.03 140.903 154.03 140.631V139.71C153.988 139.761 153.894 139.808 153.749 139.851C153.607 139.891 153.442 139.926 153.255 139.957C153.07 139.986 152.89 140.011 152.714 140.034C152.54 140.054 152.4 140.071 152.292 140.085C152.03 140.119 151.786 140.175 151.559 140.251C151.334 140.325 151.153 140.437 151.013 140.588C150.877 140.736 150.809 140.937 150.809 141.193C150.809 141.543 150.938 141.807 151.197 141.986C151.458 142.162 151.789 142.25 152.189 142.25ZM156.872 143V136.455H157.877V143H156.872ZM157.383 135.364C157.187 135.364 157.018 135.297 156.876 135.163C156.737 135.03 156.667 134.869 156.667 134.682C156.667 134.494 156.737 134.334 156.876 134.2C157.018 134.067 157.187 134 157.383 134C157.579 134 157.747 134.067 157.886 134.2C158.028 134.334 158.099 134.494 158.099 134.682C158.099 134.869 158.028 135.03 157.886 135.163C157.747 135.297 157.579 135.364 157.383 135.364ZM160.725 139.062V143H159.719V136.455H160.691V137.477H160.776C160.93 137.145 161.162 136.878 161.475 136.676C161.787 136.472 162.191 136.369 162.685 136.369C163.128 136.369 163.516 136.46 163.849 136.642C164.181 136.821 164.439 137.094 164.624 137.46C164.809 137.824 164.901 138.284 164.901 138.841V143H163.895V138.909C163.895 138.395 163.762 137.994 163.495 137.707C163.228 137.418 162.861 137.273 162.395 137.273C162.074 137.273 161.787 137.342 161.535 137.482C161.285 137.621 161.087 137.824 160.942 138.091C160.797 138.358 160.725 138.682 160.725 139.062ZM167.472 143.068C167.262 143.068 167.081 142.993 166.931 142.842C166.78 142.692 166.705 142.511 166.705 142.301C166.705 142.091 166.78 141.911 166.931 141.76C167.081 141.609 167.262 141.534 167.472 141.534C167.682 141.534 167.862 141.609 168.013 141.76C168.164 141.911 168.239 142.091 168.239 142.301C168.239 142.44 168.203 142.568 168.132 142.685C168.064 142.801 167.972 142.895 167.855 142.966C167.742 143.034 167.614 143.068 167.472 143.068ZM170.044 136.455H171.049V143.477C171.049 143.881 170.98 144.23 170.84 144.526C170.704 144.821 170.497 145.05 170.218 145.212C169.943 145.374 169.595 145.455 169.174 145.455C169.14 145.455 169.106 145.455 169.072 145.455C169.038 145.455 169.004 145.455 168.97 145.455V144.517C169.004 144.517 169.035 144.517 169.063 144.517C169.092 144.517 169.123 144.517 169.157 144.517C169.464 144.517 169.688 144.426 169.83 144.244C169.972 144.065 170.044 143.81 170.044 143.477V136.455ZM170.538 135.364C170.342 135.364 170.173 135.297 170.031 135.163C169.892 135.03 169.822 134.869 169.822 134.682C169.822 134.494 169.892 134.334 170.031 134.2C170.173 134.067 170.342 134 170.538 134C170.734 134 170.901 134.067 171.041 134.2C171.183 134.334 171.254 134.494 171.254 134.682C171.254 134.869 171.183 135.03 171.041 135.163C170.901 135.297 170.734 135.364 170.538 135.364ZM177.528 137.92L176.624 138.176C176.567 138.026 176.483 137.879 176.373 137.737C176.265 137.592 176.117 137.473 175.93 137.379C175.742 137.286 175.502 137.239 175.209 137.239C174.809 137.239 174.475 137.331 174.208 137.516C173.944 137.697 173.812 137.929 173.812 138.21C173.812 138.46 173.903 138.658 174.084 138.803C174.266 138.947 174.55 139.068 174.937 139.165L175.908 139.403C176.493 139.545 176.93 139.763 177.216 140.055C177.503 140.345 177.647 140.719 177.647 141.176C177.647 141.551 177.539 141.886 177.323 142.182C177.11 142.477 176.812 142.71 176.428 142.881C176.045 143.051 175.599 143.136 175.09 143.136C174.422 143.136 173.87 142.991 173.432 142.702C172.995 142.412 172.718 141.989 172.601 141.432L173.556 141.193C173.647 141.545 173.819 141.81 174.072 141.986C174.327 142.162 174.661 142.25 175.073 142.25C175.542 142.25 175.914 142.151 176.189 141.952C176.468 141.75 176.607 141.509 176.607 141.227C176.607 141 176.528 140.81 176.368 140.656C176.209 140.5 175.965 140.384 175.635 140.307L174.545 140.051C173.945 139.909 173.505 139.689 173.224 139.391C172.945 139.089 172.806 138.713 172.806 138.261C172.806 137.892 172.91 137.565 173.117 137.281C173.327 136.997 173.613 136.774 173.974 136.612C174.337 136.45 174.749 136.369 175.209 136.369C175.857 136.369 176.366 136.511 176.735 136.795C177.107 137.08 177.371 137.455 177.528 137.92Z" fill="white"/>
<path d="M51.5 71.5C50.9477 71.5 50.5 71.9477 50.5 72.5C50.5 73.0523 50.9477 73.5 51.5 73.5V71.5ZM130.207 32.2071C130.598 31.8166 130.598 31.1834 130.207 30.7929L123.843 24.4289C123.453 24.0384 122.819 24.0384 122.429 24.4289C122.038 24.8195 122.038 25.4526 122.429 25.8431L128.086 31.5L122.429 37.1569C122.038 37.5474 122.038 38.1805 122.429 38.5711C122.819 38.9616 123.453 38.9616 123.843 38.5711L130.207 32.2071ZM89.5 52C89.5 52.5523 89.9477 53 90.5 53C91.0523 53 91.5 52.5523 91.5 52H89.5ZM91.5 52C91.5 51.4477 91.0523 51 90.5 51C89.9477 51 89.5 51.4477 89.5 52H91.5ZM53.8125 73.5C54.3648 73.5 54.8125 73.0523 54.8125 72.5C54.8125 71.9477 54.3648 71.5 53.8125 71.5V73.5ZM58.4375 71.5C57.8852 71.5 57.4375 71.9477 57.4375 72.5C57.4375 73.0523 57.8852 73.5 58.4375 73.5V71.5ZM63.0625 73.5C63.6148 73.5 64.0625 73.0523 64.0625 72.5C64.0625 71.9477 63.6148 71.5 63.0625 71.5V73.5ZM67.6875 71.5C67.1352 71.5 66.6875 71.9477 66.6875 72.5C66.6875 73.0523 67.1352 73.5 67.6875 73.5V71.5ZM72.8068 73.3183C73.3545 73.2469 73.7405 72.745 73.6691 72.1974C73.5977 71.6497 73.0958 71.2637 72.5481 71.3351L72.8068 73.3183ZM77.4641 70.0207C76.9539 70.2323 76.7119 70.8173 76.9234 71.3275C77.135 71.8377 77.72 72.0797 78.2302 71.8682L77.4641 70.0207ZM83.0894 69.0576C83.5273 68.7211 83.6095 68.0933 83.273 67.6554C82.9365 67.2174 82.3087 67.1352 81.8707 67.4718L83.0894 69.0576ZM85.4718 63.8707C85.1352 64.3087 85.2174 64.9365 85.6554 65.273C86.0933 65.6095 86.7211 65.5273 87.0576 65.0894L85.4718 63.8707ZM89.8682 60.2302C90.0797 59.72 89.8377 59.135 89.3275 58.9234C88.8173 58.7119 88.2323 58.9539 88.0207 59.4641L89.8682 60.2302ZM89.3351 54.5481C89.2637 55.0958 89.6497 55.5977 90.1974 55.6691C90.745 55.7405 91.2469 55.3545 91.3183 54.8068L89.3351 54.5481ZM91.6649 49.4519C91.7363 48.9042 91.3503 48.4023 90.8026 48.3309C90.255 48.2595 89.7531 48.6455 89.6817 49.1932L91.6649 49.4519ZM91.1318 43.7698C90.9203 44.28 91.1623 44.865 91.6725 45.0766C92.1827 45.2881 92.7677 45.0461 92.9793 44.5359L91.1318 43.7698ZM95.5282 40.1293C95.8648 39.6913 95.7826 39.0635 95.3446 38.727C94.9067 38.3905 94.2789 38.4727 93.9424 38.9106L95.5282 40.1293ZM97.9106 34.9424C97.4727 35.2789 97.3905 35.9067 97.727 36.3446C98.0635 36.7826 98.6913 36.8648 99.1293 36.5282L97.9106 34.9424ZM103.536 33.9793C104.046 33.7677 104.288 33.1827 104.077 32.6725C103.865 32.1623 103.28 31.9203 102.77 32.1318L103.536 33.9793ZM108.193 30.6817C107.646 30.7531 107.259 31.255 107.331 31.8026C107.402 32.3503 107.904 32.7363 108.452 32.6649L108.193 30.6817ZM113.312 32.5C113.865 32.5 114.312 32.0523 114.312 31.5C114.312 30.9477 113.865 30.5 113.312 30.5V32.5ZM117.937 30.5C117.385 30.5 116.937 30.9477 116.937 31.5C116.937 32.0523 117.385 32.5 117.937 32.5V30.5ZM122.562 32.5C123.115 32.5 123.562 32.0523 123.562 31.5C123.562 30.9477 123.115 30.5 122.562 30.5V32.5ZM127.187 30.5C126.635 30.5 126.187 30.9477 126.187 31.5C126.187 32.0523 126.635 32.5 127.187 32.5V30.5ZM51.5 73.5H53.8125V71.5H51.5V73.5ZM58.4375 73.5H63.0625V71.5H58.4375V73.5ZM67.6875 73.5H70V71.5H67.6875V73.5ZM70 73.5C70.9508 73.5 71.8877 73.4382 72.8068 73.3183L72.5481 71.3351C71.7146 71.4439 70.8641 71.5 70 71.5V73.5ZM78.2302 71.8682C79.9786 71.1431 81.6103 70.1943 83.0894 69.0576L81.8707 67.4718C80.5286 68.5032 79.0489 69.3636 77.4641 70.0207L78.2302 71.8682ZM87.0576 65.0894C88.1943 63.6103 89.1431 61.9786 89.8682 60.2302L88.0207 59.4641C87.3635 61.0489 86.5032 62.5286 85.4718 63.8707L87.0576 65.0894ZM91.3183 54.8068C91.4382 53.8878 91.5 52.9508 91.5 52H89.5C89.5 52.8641 89.4439 53.7146 89.3351 54.5481L91.3183 54.8068ZM91.5 52C91.5 51.1359 91.5561 50.2854 91.6649 49.4519L89.6817 49.1932C89.5618 50.1123 89.5 51.0492 89.5 52H91.5ZM92.9793 44.5359C93.6364 42.9511 94.4968 41.4714 95.5282 40.1293L93.9424 38.9106C92.8057 40.3897 91.8569 42.0214 91.1318 43.7698L92.9793 44.5359ZM99.1293 36.5282C100.471 35.4968 101.951 34.6365 103.536 33.9793L102.77 32.1318C101.021 32.8569 99.3897 33.8057 97.9106 34.9424L99.1293 36.5282ZM108.452 32.6649C109.285 32.5561 110.136 32.5 111 32.5V30.5C110.049 30.5 109.112 30.5618 108.193 30.6817L108.452 32.6649ZM111 32.5H113.312V30.5H111V32.5ZM117.937 32.5H122.562V30.5H117.937V32.5ZM127.187 32.5H129.5V30.5H127.187V32.5Z" fill="white"/>
<path d="M51.5 71.5C50.9477 71.5 50.5 71.9477 50.5 72.5C50.5 73.0523 50.9477 73.5 51.5 73.5V71.5ZM130.207 115.207C130.598 114.817 130.598 114.183 130.207 113.793L123.843 107.429C123.453 107.038 122.819 107.038 122.429 107.429C122.038 107.819 122.038 108.453 122.429 108.843L128.086 114.5L122.429 120.157C122.038 120.547 122.038 121.181 122.429 121.571C122.819 121.962 123.453 121.962 123.843 121.571L130.207 115.207ZM91.5 93.5C91.5 92.9477 91.0523 92.5 90.5 92.5C89.9477 92.5 89.5 92.9477 89.5 93.5H91.5ZM89.5 93.5C89.5 94.0523 89.9477 94.5 90.5 94.5C91.0523 94.5 91.5 94.0523 91.5 93.5H89.5ZM53.75 73.5C54.3023 73.5 54.75 73.0523 54.75 72.5C54.75 71.9477 54.3023 71.5 53.75 71.5V73.5ZM58.25 71.5C57.6977 71.5 57.25 71.9477 57.25 72.5C57.25 73.0523 57.6977 73.5 58.25 73.5V71.5ZM62.75 73.5C63.3023 73.5 63.75 73.0523 63.75 72.5C63.75 71.9477 63.3023 71.5 62.75 71.5V73.5ZM67.25 71.5C66.6977 71.5 66.25 71.9477 66.25 72.5C66.25 73.0523 66.6977 73.5 67.25 73.5V71.5ZM72.1134 73.6691C72.6611 73.7405 73.163 73.3545 73.2344 72.8068C73.3058 72.2592 72.9198 71.7573 72.3721 71.6859L72.1134 73.6691ZM77.9216 73.1698C77.4114 72.9582 76.8264 73.2003 76.6148 73.7104C76.4033 74.2206 76.6453 74.8057 77.1555 75.0172L77.9216 73.1698ZM81.6751 77.6315C82.1131 77.9681 82.7409 77.8859 83.0774 77.4479C83.4139 77.01 83.3317 76.3822 82.8938 76.0457L81.6751 77.6315ZM86.9543 80.1062C86.6178 79.6683 85.99 79.5861 85.5521 79.9226C85.1141 80.2591 85.0319 80.8869 85.3685 81.3249L86.9543 80.1062ZM87.9828 85.8445C88.1943 86.3547 88.7794 86.5967 89.2896 86.3852C89.7997 86.1736 90.0418 85.5886 89.8302 85.0784L87.9828 85.8445ZM91.3141 90.6279C91.2427 90.0802 90.7408 89.6942 90.1932 89.7656C89.6455 89.837 89.2595 90.3389 89.3309 90.8866L91.3141 90.6279ZM89.6859 96.3721C89.7573 96.9198 90.2592 97.3058 90.8068 97.2344C91.3545 97.163 91.7405 96.6611 91.6691 96.1134L89.6859 96.3721ZM93.0172 101.155C92.8057 100.645 92.2206 100.403 91.7104 100.615C91.2003 100.826 90.9582 101.411 91.1698 101.922L93.0172 101.155ZM94.0457 106.894C94.3822 107.332 95.01 107.414 95.4479 107.077C95.8859 106.741 95.9681 106.113 95.6315 105.675L94.0457 106.894ZM99.3249 109.368C98.8869 109.032 98.2591 109.114 97.9226 109.552C97.5861 109.99 97.6683 110.618 98.1062 110.954L99.3249 109.368ZM103.078 113.83C103.589 114.042 104.174 113.8 104.385 113.29C104.597 112.779 104.355 112.194 103.845 111.983L103.078 113.83ZM108.887 113.331C108.339 113.259 107.837 113.646 107.766 114.193C107.694 114.741 108.08 115.243 108.628 115.314L108.887 113.331ZM116 115.5C116.552 115.5 117 115.052 117 114.5C117 113.948 116.552 113.5 116 113.5V115.5ZM125 113.5C124.448 113.5 124 113.948 124 114.5C124 115.052 124.448 115.5 125 115.5V113.5ZM51.5 73.5H53.75V71.5H51.5V73.5ZM58.25 73.5H62.75V71.5H58.25V73.5ZM67.25 73.5H69.5V71.5H67.25V73.5ZM69.5 73.5C70.3862 73.5 71.2585 73.5576 72.1134 73.6691L72.3721 71.6859C71.4317 71.5632 70.473 71.5 69.5 71.5V73.5ZM77.1555 75.0172C78.7809 75.6912 80.2986 76.5737 81.6751 77.6315L82.8938 76.0457C81.3803 74.8826 79.7107 73.9117 77.9216 73.1698L77.1555 75.0172ZM85.3685 81.3249C86.4263 82.7014 87.3088 84.2191 87.9828 85.8445L89.8302 85.0784C89.0883 83.2893 88.1174 81.6198 86.9543 80.1062L85.3685 81.3249ZM89.3309 90.8866C89.4424 91.7415 89.5 92.6138 89.5 93.5H91.5C91.5 92.527 91.4368 91.5683 91.3141 90.6279L89.3309 90.8866ZM89.5 93.5C89.5 94.473 89.5632 95.4317 89.6859 96.3721L91.6691 96.1134C91.5576 95.2585 91.5 94.3862 91.5 93.5H89.5ZM91.1698 101.922C91.9117 103.711 92.8826 105.38 94.0457 106.894L95.6315 105.675C94.5737 104.299 93.6912 102.781 93.0172 101.155L91.1698 101.922ZM98.1062 110.954C99.6198 112.117 101.289 113.088 103.078 113.83L103.845 111.983C102.219 111.309 100.701 110.426 99.3249 109.368L98.1062 110.954ZM108.628 115.314C109.568 115.437 110.527 115.5 111.5 115.5V113.5C110.614 113.5 109.741 113.442 108.887 113.331L108.628 115.314ZM111.5 115.5H116V113.5H111.5V115.5ZM125 115.5H129.5V113.5H125V115.5Z" fill="white"/>
</svg>
