<svg width="97" height="316" viewBox="0 0 97 316" fill="none" xmlns="http://www.w3.org/2000/svg">
<path fill-rule="evenodd" clip-rule="evenodd" d="M27 10C27 8.01088 27.7902 6.10322 29.1967 4.6967C30.6032 3.29018 32.5109 2.5 34.5 2.5H62.5C64.0741 2.5 65.6083 2.99528 66.8853 3.91568C68.1623 4.83609 69.1174 6.13495 69.6151 7.62829C70.1129 9.12163 70.1282 10.7337 69.6589 12.2363C69.1895 13.7388 68.2593 15.0555 67 16C68.2593 16.9445 69.1895 18.2612 69.6589 19.7637C70.1282 21.2663 70.1129 22.8784 69.6151 24.3717C69.1174 25.865 68.1623 27.1639 66.8853 28.0843C65.6083 29.0047 64.0741 29.5 62.5 29.5H50V32.708C51.832 33.226 53.274 34.668 53.792 36.5H68.5C68.8978 36.5 69.2794 36.658 69.5607 36.9393C69.842 37.2206 70 37.6022 70 38C70 38.3978 69.842 38.7794 69.5607 39.0607C69.2794 39.342 68.8978 39.5 68.5 39.5H53.794C53.4671 40.6518 52.7735 41.6656 51.8182 42.3875C50.863 43.1094 49.6983 43.5 48.501 43.5C47.3037 43.5 46.139 43.1094 45.1838 42.3875C44.2286 41.6656 43.5349 40.6518 43.208 39.5H28.5C28.1022 39.5 27.7207 39.342 27.4393 39.0607C27.158 38.7794 27 38.3978 27 38C27 37.6022 27.158 37.2206 27.4393 36.9393C27.7207 36.658 28.1022 36.5 28.5 36.5H43.208C43.4657 35.5977 43.9491 34.7761 44.6126 34.1126C45.2761 33.4491 46.0978 32.9657 47 32.708V29.5H34.5C32.9259 29.5 31.3917 29.0047 30.1147 28.0843C28.8377 27.1639 27.8827 25.865 27.3849 24.3717C26.8871 22.8784 26.8718 21.2663 27.3412 19.7637C27.8105 18.2612 28.7407 16.9445 30 16C29.0674 15.3025 28.3105 14.3968 27.7897 13.3552C27.2689 12.3135 26.9984 11.1646 27 10ZM34.5 14.5C33.3065 14.5 32.1619 14.0259 31.318 13.182C30.4741 12.3381 30 11.1935 30 10C30 8.80653 30.4741 7.66193 31.318 6.81802C32.1619 5.97411 33.3065 5.5 34.5 5.5H62.5C63.6935 5.5 64.8381 5.97411 65.682 6.81802C66.5259 7.66193 67 8.80653 67 10C67 11.1935 66.5259 12.3381 65.682 13.182C64.8381 14.0259 63.6935 14.5 62.5 14.5H34.5ZM62.5 17.5H34.5C33.3065 17.5 32.1619 17.9741 31.318 18.818C30.4741 19.6619 30 20.8065 30 22C30 23.1935 30.4741 24.3381 31.318 25.182C32.1619 26.0259 33.3065 26.5 34.5 26.5H62.5C63.6935 26.5 64.8381 26.0259 65.682 25.182C66.5259 24.3381 67 23.1935 67 22C67 20.8065 66.5259 19.6619 65.682 18.818C64.8381 17.9741 63.6935 17.5 62.5 17.5ZM49 10C49 9.60218 49.158 9.22064 49.4393 8.93934C49.7207 8.65804 50.1022 8.5 50.5 8.5H62.5C62.8978 8.5 63.2794 8.65804 63.5607 8.93934C63.842 9.22064 64 9.60218 64 10C64 10.3978 63.842 10.7794 63.5607 11.0607C63.2794 11.342 62.8978 11.5 62.5 11.5H50.5C50.1022 11.5 49.7207 11.342 49.4393 11.0607C49.158 10.7794 49 10.3978 49 10ZM49 22C49 21.6022 49.158 21.2206 49.4393 20.9393C49.7207 20.658 50.1022 20.5 50.5 20.5H62.5C62.8978 20.5 63.2794 20.658 63.5607 20.9393C63.842 21.2206 64 21.6022 64 22C64 22.3978 63.842 22.7794 63.5607 23.0607C63.2794 23.342 62.8978 23.5 62.5 23.5H50.5C50.1022 23.5 49.7207 23.342 49.4393 23.0607C49.158 22.7794 49 22.3978 49 22ZM48.5 35.5C48.1717 35.5 47.8466 35.5647 47.5433 35.6903C47.24 35.8159 46.9644 36.0001 46.7322 36.2322C46.5001 36.4644 46.3159 36.74 46.1903 37.0433C46.0647 37.3466 46 37.6717 46 38C46 38.3283 46.0647 38.6534 46.1903 38.9567C46.3159 39.26 46.5001 39.5356 46.7322 39.7678C46.9644 39.9999 47.24 40.1841 47.5433 40.3097C47.8466 40.4353 48.1717 40.5 48.5 40.5C49.163 40.5 49.7989 40.2366 50.2678 39.7678C50.7366 39.2989 51 38.663 51 38C51 37.337 50.7366 36.7011 50.2678 36.2322C49.7989 35.7634 49.163 35.5 48.5 35.5Z" fill="white"/>
<path d="M38.5 10C38.5 10.5304 38.2893 11.0391 37.9142 11.4142C37.5391 11.7893 37.0304 12 36.5 12C35.9696 12 35.4609 11.7893 35.0858 11.4142C34.7107 11.0391 34.5 10.5304 34.5 10C34.5 9.46957 34.7107 8.96086 35.0858 8.58579C35.4609 8.21071 35.9696 8 36.5 8C37.0304 8 37.5391 8.21071 37.9142 8.58579C38.2893 8.96086 38.5 9.46957 38.5 10ZM38.5 22C38.5 22.5304 38.2893 23.0391 37.9142 23.4142C37.5391 23.7893 37.0304 24 36.5 24C35.9696 24 35.4609 23.7893 35.0858 23.4142C34.7107 23.0391 34.5 22.5304 34.5 22C34.5 21.4696 34.7107 20.9609 35.0858 20.5858C35.4609 20.2107 35.9696 20 36.5 20C37.0304 20 37.5391 20.2107 37.9142 20.5858C38.2893 20.9609 38.5 21.4696 38.5 22Z" fill="white"/>
<path d="M36.1506 54.9205L35.2472 55.1761C35.1903 55.0256 35.1065 54.8793 34.9957 54.7372C34.8878 54.5923 34.7401 54.473 34.5526 54.3793C34.3651 54.2855 34.125 54.2386 33.8324 54.2386C33.4318 54.2386 33.098 54.331 32.831 54.5156C32.5668 54.6974 32.4347 54.929 32.4347 55.2102C32.4347 55.4602 32.5256 55.6577 32.7074 55.8026C32.8892 55.9474 33.1733 56.0682 33.5597 56.1648L34.5312 56.4034C35.1165 56.5455 35.5526 56.7628 35.8395 57.0554C36.1264 57.3452 36.2699 57.7187 36.2699 58.1761C36.2699 58.5511 36.1619 58.8864 35.946 59.1818C35.733 59.4773 35.4347 59.7102 35.0511 59.8807C34.6676 60.0511 34.2216 60.1364 33.7131 60.1364C33.0455 60.1364 32.4929 59.9915 32.0554 59.7017C31.6179 59.4119 31.3409 58.9886 31.2244 58.4318L32.179 58.1932C32.2699 58.5455 32.4418 58.8097 32.6946 58.9858C32.9503 59.1619 33.2841 59.25 33.696 59.25C34.1648 59.25 34.5369 59.1506 34.8125 58.9517C35.0909 58.75 35.2301 58.5085 35.2301 58.2273C35.2301 58 35.1506 57.8097 34.9915 57.6562C34.8324 57.5 34.5881 57.3835 34.2585 57.3068L33.1676 57.0511C32.5682 56.9091 32.1278 56.6889 31.8466 56.3906C31.5682 56.0895 31.429 55.7131 31.429 55.2614C31.429 54.892 31.5327 54.5653 31.7401 54.2812C31.9503 53.9972 32.2358 53.7741 32.5966 53.6122C32.9602 53.4503 33.3722 53.3693 33.8324 53.3693C34.4801 53.3693 34.9886 53.5114 35.358 53.7955C35.7301 54.0795 35.9943 54.4545 36.1506 54.9205ZM40.5281 60.1364C39.8974 60.1364 39.3533 59.9972 38.896 59.7188C38.4414 59.4375 38.0906 59.0455 37.8434 58.5426C37.5991 58.0369 37.4769 57.4489 37.4769 56.7784C37.4769 56.108 37.5991 55.517 37.8434 55.0057C38.0906 54.4915 38.4343 54.0909 38.8746 53.804C39.3178 53.5142 39.8349 53.3693 40.4258 53.3693C40.7667 53.3693 41.1033 53.4261 41.4357 53.5398C41.7681 53.6534 42.0707 53.8381 42.3434 54.0938C42.6161 54.3466 42.8335 54.6818 42.9954 55.0994C43.1573 55.517 43.2383 56.0312 43.2383 56.642V57.0682H38.1928V56.1989H42.2156C42.2156 55.8295 42.1417 55.5 41.994 55.2102C41.8491 54.9205 41.6417 54.6918 41.3718 54.5241C41.1048 54.3565 40.7894 54.2727 40.4258 54.2727C40.0252 54.2727 39.6786 54.3722 39.386 54.571C39.0962 54.767 38.8732 55.0227 38.717 55.3381C38.5607 55.6534 38.4826 55.9915 38.4826 56.3523V56.9318C38.4826 57.4261 38.5678 57.8452 38.7383 58.1889C38.9116 58.5298 39.1516 58.7898 39.4585 58.9688C39.7653 59.1449 40.1218 59.233 40.5281 59.233C40.7923 59.233 41.0309 59.196 41.244 59.1222C41.4599 59.0455 41.646 58.9318 41.8022 58.7812C41.9585 58.6278 42.0792 58.4375 42.1644 58.2102L43.136 58.483C43.0337 58.8125 42.8619 59.1023 42.6204 59.3523C42.3789 59.5994 42.0806 59.7926 41.7255 59.9318C41.3704 60.0682 40.9712 60.1364 40.5281 60.1364ZM44.7681 60V53.4545H45.7397V54.4432H45.8079C45.9272 54.1193 46.1431 53.8565 46.4556 53.6548C46.7681 53.4531 47.1204 53.3523 47.5124 53.3523C47.5863 53.3523 47.6786 53.3537 47.7894 53.3565C47.9002 53.3594 47.984 53.3636 48.0408 53.3693V54.392C48.0067 54.3835 47.9286 54.3707 47.8065 54.3537C47.6871 54.3338 47.5607 54.3239 47.4272 54.3239C47.109 54.3239 46.8249 54.3906 46.5749 54.5241C46.3278 54.6548 46.1317 54.8366 45.9869 55.0696C45.8448 55.2997 45.7738 55.5625 45.7738 55.858V60H44.7681ZM54.7844 53.4545L52.364 60H51.3413L48.9208 53.4545H50.0117L51.8185 58.6705H51.8867L53.6935 53.4545H54.7844ZM58.6218 60.1364C57.9911 60.1364 57.4471 59.9972 56.9897 59.7188C56.5352 59.4375 56.1843 59.0455 55.9371 58.5426C55.6928 58.0369 55.5707 57.4489 55.5707 56.7784C55.5707 56.108 55.6928 55.517 55.9371 55.0057C56.1843 54.4915 56.5281 54.0909 56.9684 53.804C57.4116 53.5142 57.9286 53.3693 58.5195 53.3693C58.8604 53.3693 59.1971 53.4261 59.5295 53.5398C59.8619 53.6534 60.1644 53.8381 60.4371 54.0938C60.7099 54.3466 60.9272 54.6818 61.0891 55.0994C61.2511 55.517 61.332 56.0312 61.332 56.642V57.0682H56.2866V56.1989H60.3093C60.3093 55.8295 60.2354 55.5 60.0877 55.2102C59.9428 54.9205 59.7354 54.6918 59.4656 54.5241C59.1985 54.3565 58.8832 54.2727 58.5195 54.2727C58.119 54.2727 57.7724 54.3722 57.4798 54.571C57.19 54.767 56.967 55.0227 56.8107 55.3381C56.6545 55.6534 56.5763 55.9915 56.5763 56.3523V56.9318C56.5763 57.4261 56.6616 57.8452 56.832 58.1889C57.0053 58.5298 57.2454 58.7898 57.5522 58.9688C57.859 59.1449 58.2156 59.233 58.6218 59.233C58.886 59.233 59.1246 59.196 59.3377 59.1222C59.5536 59.0455 59.7397 58.9318 59.896 58.7812C60.0522 58.6278 60.1729 58.4375 60.2582 58.2102L61.2298 58.483C61.1275 58.8125 60.9556 59.1023 60.7141 59.3523C60.4727 59.5994 60.1744 59.7926 59.8192 59.9318C59.4641 60.0682 59.065 60.1364 58.6218 60.1364ZM62.8619 60V53.4545H63.8335V54.4432H63.9016C64.021 54.1193 64.2369 53.8565 64.5494 53.6548C64.8619 53.4531 65.2141 53.3523 65.6062 53.3523C65.68 53.3523 65.7724 53.3537 65.8832 53.3565C65.994 53.3594 66.0778 53.3636 66.1346 53.3693V54.392C66.1005 54.3835 66.0224 54.3707 65.9002 54.3537C65.7809 54.3338 65.6545 54.3239 65.521 54.3239C65.2028 54.3239 64.9187 54.3906 64.6687 54.5241C64.4215 54.6548 64.2255 54.8366 64.0806 55.0696C63.9386 55.2997 63.8675 55.5625 63.8675 55.858V60H62.8619Z" fill="white"/>
<path d="M49.5 70C49.5 69.4477 49.0523 69 48.5 69C47.9477 69 47.5 69.4477 47.5 70H49.5ZM47.7929 136.707C48.1834 137.098 48.8166 137.098 49.2071 136.707L55.5711 130.343C55.9616 129.953 55.9616 129.319 55.5711 128.929C55.1805 128.538 54.5474 128.538 54.1569 128.929L48.5 134.586L42.8431 128.929C42.4526 128.538 41.8195 128.538 41.4289 128.929C41.0384 129.319 41.0384 129.953 41.4289 130.343L47.7929 136.707ZM47.5 70L47.5 136H49.5L49.5 70H47.5Z" fill="white"/>
<path d="M15.5 146C13.9087 146 12.3826 146.632 11.2574 147.757C10.1321 148.883 9.5 150.409 9.5 152V182C9.5 183.591 10.1321 185.117 11.2574 186.243C12.3826 187.368 13.9087 188 15.5 188H33.5C35.0913 188 36.6174 187.368 37.7426 186.243C38.8679 185.117 39.5 183.591 39.5 182V159.242C39.4989 158.049 39.0242 156.905 38.18 156.062L29.441 147.317C29.0229 146.899 28.5267 146.568 27.9805 146.342C27.4344 146.116 26.8491 146 26.258 146H15.5ZM12.5 152C12.5 151.204 12.8161 150.441 13.3787 149.879C13.9413 149.316 14.7044 149 15.5 149H24.5V156.5C24.5 157.693 24.9741 158.838 25.818 159.682C26.6619 160.526 27.8065 161 29 161H36.5V182C36.5 182.796 36.1839 183.559 35.6213 184.121C35.0587 184.684 34.2956 185 33.5 185H15.5C14.7044 185 13.9413 184.684 13.3787 184.121C12.8161 183.559 12.5 182.796 12.5 182V152ZM35.879 158H29C28.6022 158 28.2206 157.842 27.9393 157.561C27.658 157.279 27.5 156.898 27.5 156.5V149.621L35.879 158Z" fill="white"/>
<path d="M8.55291 203V194.273H9.60973V198.159H14.2631V194.273H15.32V203H14.2631V199.097H9.60973V203H8.55291ZM16.9585 195.21V194.273H23.5039V195.21H20.7596V203H19.7028V195.21H16.9585ZM25.1349 194.273H26.3963L29.3622 201.517H29.4645L32.4304 194.273H33.6918V203H32.7031V196.369H32.6179L29.8906 203H28.9361L26.2088 196.369H26.1236V203H25.1349V194.273ZM35.8107 203V194.273H36.8675V202.062H40.9244V203H35.8107Z" fill="white"/>
<path d="M85.1 146.476H93.5L72.5 188.183L51.5 146.476H67.2715L72.5 156.147L77.8473 146.476H85.1Z" fill="#41B883"/>
<path d="M59.5 146.476L72.5539 170.805L85.5 146.476H77.5166L72.5539 155.833L67.4834 146.476H59.5Z" fill="#35495E"/>
<path d="M52.6921 194.273L55.283 201.619H55.3853L57.9762 194.273H59.0842L55.8796 203H54.7887L51.5842 194.273H52.6921ZM64.4322 200.324V196.455H65.4379V203H64.4322V201.892H64.364C64.2106 202.224 63.9719 202.507 63.6481 202.74C63.3242 202.97 62.9151 203.085 62.4208 203.085C62.0117 203.085 61.6481 202.996 61.3299 202.817C61.0117 202.635 60.7617 202.362 60.5799 201.999C60.3981 201.632 60.3072 201.17 60.3072 200.614V196.455H61.3129V200.545C61.3129 201.023 61.4464 201.403 61.7134 201.688C61.9833 201.972 62.3271 202.114 62.7447 202.114C62.9947 202.114 63.2489 202.05 63.5075 201.922C63.7688 201.794 63.9876 201.598 64.1637 201.334C64.3427 201.07 64.4322 200.733 64.4322 200.324ZM70.0241 203.136C69.3935 203.136 68.8494 202.997 68.392 202.719C67.9375 202.438 67.5866 202.045 67.3395 201.543C67.0952 201.037 66.973 200.449 66.973 199.778C66.973 199.108 67.0952 198.517 67.3395 198.006C67.5866 197.491 67.9304 197.091 68.3707 196.804C68.8139 196.514 69.331 196.369 69.9219 196.369C70.2628 196.369 70.5994 196.426 70.9318 196.54C71.2642 196.653 71.5668 196.838 71.8395 197.094C72.1122 197.347 72.3295 197.682 72.4915 198.099C72.6534 198.517 72.7344 199.031 72.7344 199.642V200.068H67.6889V199.199H71.7116C71.7116 198.83 71.6378 198.5 71.4901 198.21C71.3452 197.92 71.1378 197.692 70.8679 197.524C70.6009 197.357 70.2855 197.273 69.9219 197.273C69.5213 197.273 69.1747 197.372 68.8821 197.571C68.5923 197.767 68.3693 198.023 68.2131 198.338C68.0568 198.653 67.9787 198.991 67.9787 199.352V199.932C67.9787 200.426 68.0639 200.845 68.2344 201.189C68.4077 201.53 68.6477 201.79 68.9545 201.969C69.2614 202.145 69.6179 202.233 70.0241 202.233C70.2884 202.233 70.527 202.196 70.7401 202.122C70.956 202.045 71.142 201.932 71.2983 201.781C71.4545 201.628 71.5753 201.437 71.6605 201.21L72.6321 201.483C72.5298 201.812 72.358 202.102 72.1165 202.352C71.875 202.599 71.5767 202.793 71.2216 202.932C70.8665 203.068 70.4673 203.136 70.0241 203.136ZM82.2756 197.92L81.3722 198.176C81.3153 198.026 81.2315 197.879 81.1207 197.737C81.0128 197.592 80.8651 197.473 80.6776 197.379C80.4901 197.286 80.25 197.239 79.9574 197.239C79.5568 197.239 79.223 197.331 78.956 197.516C78.6918 197.697 78.5597 197.929 78.5597 198.21C78.5597 198.46 78.6506 198.658 78.8324 198.803C79.0142 198.947 79.2983 199.068 79.6847 199.165L80.6562 199.403C81.2415 199.545 81.6776 199.763 81.9645 200.055C82.2514 200.345 82.3949 200.719 82.3949 201.176C82.3949 201.551 82.2869 201.886 82.071 202.182C81.858 202.477 81.5597 202.71 81.1761 202.881C80.7926 203.051 80.3466 203.136 79.8381 203.136C79.1705 203.136 78.6179 202.991 78.1804 202.702C77.7429 202.412 77.4659 201.989 77.3494 201.432L78.304 201.193C78.3949 201.545 78.5668 201.81 78.8196 201.986C79.0753 202.162 79.4091 202.25 79.821 202.25C80.2898 202.25 80.6619 202.151 80.9375 201.952C81.2159 201.75 81.3551 201.509 81.3551 201.227C81.3551 201 81.2756 200.81 81.1165 200.656C80.9574 200.5 80.7131 200.384 80.3835 200.307L79.2926 200.051C78.6932 199.909 78.2528 199.689 77.9716 199.391C77.6932 199.089 77.554 198.713 77.554 198.261C77.554 197.892 77.6577 197.565 77.8651 197.281C78.0753 196.997 78.3608 196.774 78.7216 196.612C79.0852 196.45 79.4972 196.369 79.9574 196.369C80.6051 196.369 81.1136 196.511 81.483 196.795C81.8551 197.08 82.1193 197.455 82.2756 197.92ZM88.5451 197.92L87.6417 198.176C87.5849 198.026 87.5011 197.879 87.3903 197.737C87.2823 197.592 87.1346 197.473 86.9471 197.379C86.7596 197.286 86.5195 197.239 86.2269 197.239C85.8263 197.239 85.4925 197.331 85.2255 197.516C84.9613 197.697 84.8292 197.929 84.8292 198.21C84.8292 198.46 84.9201 198.658 85.1019 198.803C85.2837 198.947 85.5678 199.068 85.9542 199.165L86.9258 199.403C87.511 199.545 87.9471 199.763 88.234 200.055C88.521 200.345 88.6644 200.719 88.6644 201.176C88.6644 201.551 88.5565 201.886 88.3406 202.182C88.1275 202.477 87.8292 202.71 87.4457 202.881C87.0621 203.051 86.6161 203.136 86.1076 203.136C85.44 203.136 84.8874 202.991 84.4499 202.702C84.0124 202.412 83.7354 201.989 83.619 201.432L84.5735 201.193C84.6644 201.545 84.8363 201.81 85.0891 201.986C85.3448 202.162 85.6786 202.25 86.0906 202.25C86.5593 202.25 86.9315 202.151 87.207 201.952C87.4854 201.75 87.6246 201.509 87.6246 201.227C87.6246 201 87.5451 200.81 87.386 200.656C87.2269 200.5 86.9826 200.384 86.6531 200.307L85.5621 200.051C84.9627 199.909 84.5224 199.689 84.2411 199.391C83.9627 199.089 83.8235 198.713 83.8235 198.261C83.8235 197.892 83.9272 197.565 84.1346 197.281C84.3448 196.997 84.6303 196.774 84.9911 196.612C85.3548 196.45 85.7667 196.369 86.2269 196.369C86.8746 196.369 87.3832 196.511 87.7525 196.795C88.1246 197.08 88.3888 197.455 88.5451 197.92ZM90.1783 203V196.455H91.1499V197.443H91.218C91.3374 197.119 91.5533 196.857 91.8658 196.655C92.1783 196.453 92.5305 196.352 92.9226 196.352C92.9964 196.352 93.0888 196.354 93.1996 196.357C93.3104 196.359 93.3942 196.364 93.451 196.369V197.392C93.4169 197.384 93.3388 197.371 93.2166 197.354C93.0973 197.334 92.9709 197.324 92.8374 197.324C92.5192 197.324 92.2351 197.391 91.9851 197.524C91.7379 197.655 91.5419 197.837 91.397 198.07C91.255 198.3 91.1839 198.562 91.1839 198.858V203H90.1783Z" fill="white"/>
<path d="M49.2499 212.985C49.2415 212.433 48.7871 211.992 48.2349 212C47.6826 212.008 47.2417 212.463 47.2501 213.015L49.2499 212.985ZM48.0537 246.718C48.4501 247.102 49.0832 247.093 49.4677 246.696L55.7346 240.237C56.1191 239.84 56.1095 239.207 55.7131 238.823C55.3167 238.438 54.6836 238.448 54.2991 238.844L48.7286 244.586L42.9867 239.015C42.5903 238.631 41.9572 238.64 41.5726 239.037C41.1881 239.433 41.1976 240.066 41.594 240.451L48.0537 246.718ZM47.2501 213.015L47.2814 215.078L49.2811 215.047L49.2499 212.985L47.2501 213.015ZM47.3439 219.203L47.4064 223.328L49.4061 223.297L49.3436 219.172L47.3439 219.203ZM47.4689 227.453L47.5314 231.578L49.5311 231.547L49.4686 227.422L47.4689 227.453ZM47.5939 235.703L47.6564 239.828L49.6561 239.797L49.5936 235.672L47.5939 235.703ZM47.7189 243.953L47.7501 246.015L49.7499 245.985L49.7186 243.922L47.7189 243.953ZM49.2499 212.985C49.2415 212.433 48.7871 211.992 48.2349 212C47.6826 212.008 47.2417 212.463 47.2501 213.015L49.2499 212.985ZM48.0537 246.718C48.4501 247.102 49.0832 247.093 49.4677 246.696L55.7346 240.237C56.1191 239.84 56.1095 239.207 55.7131 238.823C55.3167 238.438 54.6836 238.448 54.2991 238.844L48.7286 244.586L42.9867 239.015C42.5903 238.631 41.9572 238.64 41.5726 239.037C41.1881 239.433 41.1976 240.066 41.594 240.451L48.0537 246.718ZM47.2501 213.015L47.2814 215.078L49.2811 215.047L49.2499 212.985L47.2501 213.015ZM47.3439 219.203L47.4064 223.328L49.4061 223.297L49.3436 219.172L47.3439 219.203ZM47.4689 227.453L47.5314 231.578L49.5311 231.547L49.4686 227.422L47.4689 227.453ZM47.5939 235.703L47.6564 239.828L49.6561 239.797L49.5936 235.672L47.5939 235.703ZM47.7189 243.953L47.7501 246.015L49.7499 245.985L49.7186 243.922L47.7189 243.953Z" fill="white"/>
<path d="M75.875 255.984H21.125C19.6124 255.984 18.1618 256.585 17.0923 257.655C16.0227 258.724 15.4219 260.175 15.4219 261.688V307.312C15.4219 308.825 16.0227 310.276 17.0923 311.345C18.1618 312.415 19.6124 313.016 21.125 313.016H75.875C77.3876 313.016 78.8382 312.415 79.9077 311.345C80.9773 310.276 81.5781 308.825 81.5781 307.312V261.688C81.5781 260.175 80.9773 258.724 79.9077 257.655C78.8382 256.585 77.3876 255.984 75.875 255.984ZM79.2969 307.312C79.2969 308.22 78.9364 309.09 78.2946 309.732C77.6529 310.374 76.7825 310.734 75.875 310.734H21.125C20.2175 310.734 19.3471 310.374 18.7054 309.732C18.0636 309.09 17.7031 308.22 17.7031 307.312V267.391H79.2969V307.312ZM17.7031 265.109V261.688C17.7031 260.78 18.0636 259.91 18.7054 259.268C19.3471 258.626 20.2175 258.266 21.125 258.266H75.875C76.7825 258.266 77.6529 258.626 78.2946 259.268C78.9364 259.91 79.2969 260.78 79.2969 261.688V265.109H17.7031ZM74.7344 261.688C74.7344 261.913 74.6675 262.134 74.5421 262.321C74.4168 262.509 74.2387 262.655 74.0302 262.741C73.8218 262.828 73.5925 262.85 73.3712 262.806C73.15 262.762 72.9467 262.654 72.7872 262.494C72.6277 262.335 72.5191 262.131 72.475 261.91C72.431 261.689 72.4536 261.459 72.54 261.251C72.6263 261.043 72.7725 260.864 72.9601 260.739C73.1476 260.614 73.3682 260.547 73.5938 260.547C73.8963 260.547 74.1864 260.667 74.4003 260.881C74.6142 261.095 74.7344 261.385 74.7344 261.688ZM71.3125 261.688C71.3125 261.913 71.2456 262.134 71.1203 262.321C70.9949 262.509 70.8168 262.655 70.6084 262.741C70.3999 262.828 70.1706 262.85 69.9493 262.806C69.7281 262.762 69.5248 262.654 69.3653 262.494C69.2058 262.335 69.0972 262.131 69.0532 261.91C69.0092 261.689 69.0317 261.459 69.1181 261.251C69.2044 261.043 69.3506 260.864 69.5382 260.739C69.7258 260.614 69.9463 260.547 70.1719 260.547C70.4744 260.547 70.7645 260.667 70.9784 260.881C71.1923 261.095 71.3125 261.385 71.3125 261.688ZM67.8906 261.688C67.8906 261.913 67.8237 262.134 67.6984 262.321C67.5731 262.509 67.3949 262.655 67.1865 262.741C66.9781 262.828 66.7487 262.85 66.5275 262.806C66.3062 262.762 66.103 262.654 65.9435 262.494C65.7839 262.335 65.6753 262.131 65.6313 261.91C65.5873 261.689 65.6099 261.459 65.6962 261.251C65.7825 261.043 65.9287 260.864 66.1163 260.739C66.3039 260.614 66.5244 260.547 66.75 260.547C67.0525 260.547 67.3426 260.667 67.5565 260.881C67.7705 261.095 67.8906 261.385 67.8906 261.688Z" fill="white"/>
<rect x="29" y="285" width="39" height="7" rx="3.5" stroke="white" stroke-width="2"/>
<rect x="31.75" y="287.75" width="10.5" height="1.5" rx="0.75" fill="white" stroke="white" stroke-width="1.5"/>
</svg>
