<svg width="73" height="316" viewBox="0 0 73 316" fill="none" xmlns="http://www.w3.org/2000/svg">
<path fill-rule="evenodd" clip-rule="evenodd" d="M15 10C15 8.01088 15.7902 6.10322 17.1967 4.6967C18.6032 3.29018 20.5109 2.5 22.5 2.5H50.5C52.0741 2.5 53.6083 2.99528 54.8853 3.91568C56.1623 4.83609 57.1174 6.13495 57.6151 7.62829C58.1129 9.12163 58.1282 10.7337 57.6589 12.2363C57.1895 13.7388 56.2593 15.0555 55 16C56.2593 16.9445 57.1895 18.2612 57.6589 19.7637C58.1282 21.2663 58.1129 22.8784 57.6151 24.3717C57.1174 25.865 56.1623 27.1639 54.8853 28.0843C53.6083 29.0047 52.0741 29.5 50.5 29.5H38V32.708C39.832 33.226 41.274 34.668 41.792 36.5H56.5C56.8978 36.5 57.2794 36.658 57.5607 36.9393C57.842 37.2206 58 37.6022 58 38C58 38.3978 57.842 38.7794 57.5607 39.0607C57.2794 39.342 56.8978 39.5 56.5 39.5H41.794C41.4671 40.6518 40.7735 41.6656 39.8182 42.3875C38.863 43.1094 37.6983 43.5 36.501 43.5C35.3037 43.5 34.139 43.1094 33.1838 42.3875C32.2286 41.6656 31.5349 40.6518 31.208 39.5H16.5C16.1022 39.5 15.7207 39.342 15.4393 39.0607C15.158 38.7794 15 38.3978 15 38C15 37.6022 15.158 37.2206 15.4393 36.9393C15.7207 36.658 16.1022 36.5 16.5 36.5H31.208C31.4657 35.5977 31.9491 34.7761 32.6126 34.1126C33.2761 33.4491 34.0978 32.9657 35 32.708V29.5H22.5C20.9259 29.5 19.3917 29.0047 18.1147 28.0843C16.8377 27.1639 15.8827 25.865 15.3849 24.3717C14.8871 22.8784 14.8718 21.2663 15.3412 19.7637C15.8105 18.2612 16.7407 16.9445 18 16C17.0674 15.3025 16.3105 14.3968 15.7897 13.3552C15.2689 12.3135 14.9984 11.1646 15 10ZM22.5 14.5C21.3065 14.5 20.1619 14.0259 19.318 13.182C18.4741 12.3381 18 11.1935 18 10C18 8.80653 18.4741 7.66193 19.318 6.81802C20.1619 5.97411 21.3065 5.5 22.5 5.5H50.5C51.6935 5.5 52.8381 5.97411 53.682 6.81802C54.5259 7.66193 55 8.80653 55 10C55 11.1935 54.5259 12.3381 53.682 13.182C52.8381 14.0259 51.6935 14.5 50.5 14.5H22.5ZM50.5 17.5H22.5C21.3065 17.5 20.1619 17.9741 19.318 18.818C18.4741 19.6619 18 20.8065 18 22C18 23.1935 18.4741 24.3381 19.318 25.182C20.1619 26.0259 21.3065 26.5 22.5 26.5H50.5C51.6935 26.5 52.8381 26.0259 53.682 25.182C54.5259 24.3381 55 23.1935 55 22C55 20.8065 54.5259 19.6619 53.682 18.818C52.8381 17.9741 51.6935 17.5 50.5 17.5ZM37 10C37 9.60218 37.158 9.22064 37.4393 8.93934C37.7207 8.65804 38.1022 8.5 38.5 8.5H50.5C50.8978 8.5 51.2794 8.65804 51.5607 8.93934C51.842 9.22064 52 9.60218 52 10C52 10.3978 51.842 10.7794 51.5607 11.0607C51.2794 11.342 50.8978 11.5 50.5 11.5H38.5C38.1022 11.5 37.7207 11.342 37.4393 11.0607C37.158 10.7794 37 10.3978 37 10ZM37 22C37 21.6022 37.158 21.2206 37.4393 20.9393C37.7207 20.658 38.1022 20.5 38.5 20.5H50.5C50.8978 20.5 51.2794 20.658 51.5607 20.9393C51.842 21.2206 52 21.6022 52 22C52 22.3978 51.842 22.7794 51.5607 23.0607C51.2794 23.342 50.8978 23.5 50.5 23.5H38.5C38.1022 23.5 37.7207 23.342 37.4393 23.0607C37.158 22.7794 37 22.3978 37 22ZM36.5 35.5C36.1717 35.5 35.8466 35.5647 35.5433 35.6903C35.24 35.8159 34.9644 36.0001 34.7322 36.2322C34.5001 36.4644 34.3159 36.74 34.1903 37.0433C34.0647 37.3466 34 37.6717 34 38C34 38.3283 34.0647 38.6534 34.1903 38.9567C34.3159 39.26 34.5001 39.5356 34.7322 39.7678C34.9644 39.9999 35.24 40.1841 35.5433 40.3097C35.8466 40.4353 36.1717 40.5 36.5 40.5C37.163 40.5 37.7989 40.2366 38.2678 39.7678C38.7366 39.2989 39 38.663 39 38C39 37.337 38.7366 36.7011 38.2678 36.2322C37.7989 35.7634 37.163 35.5 36.5 35.5Z" fill="white"/>
<path d="M26.5 10C26.5 10.5304 26.2893 11.0391 25.9142 11.4142C25.5391 11.7893 25.0304 12 24.5 12C23.9696 12 23.4609 11.7893 23.0858 11.4142C22.7107 11.0391 22.5 10.5304 22.5 10C22.5 9.46957 22.7107 8.96086 23.0858 8.58579C23.4609 8.21071 23.9696 8 24.5 8C25.0304 8 25.5391 8.21071 25.9142 8.58579C26.2893 8.96086 26.5 9.46957 26.5 10ZM26.5 22C26.5 22.5304 26.2893 23.0391 25.9142 23.4142C25.5391 23.7893 25.0304 24 24.5 24C23.9696 24 23.4609 23.7893 23.0858 23.4142C22.7107 23.0391 22.5 22.5304 22.5 22C22.5 21.4696 22.7107 20.9609 23.0858 20.5858C23.4609 20.2107 23.9696 20 24.5 20C25.0304 20 25.5391 20.2107 25.9142 20.5858C26.2893 20.9609 26.5 21.4696 26.5 22Z" fill="white"/>
<path d="M24.1506 54.9205L23.2472 55.1761C23.1903 55.0256 23.1065 54.8793 22.9957 54.7372C22.8878 54.5923 22.7401 54.473 22.5526 54.3793C22.3651 54.2855 22.125 54.2386 21.8324 54.2386C21.4318 54.2386 21.098 54.331 20.831 54.5156C20.5668 54.6974 20.4347 54.929 20.4347 55.2102C20.4347 55.4602 20.5256 55.6577 20.7074 55.8026C20.8892 55.9474 21.1733 56.0682 21.5597 56.1648L22.5312 56.4034C23.1165 56.5455 23.5526 56.7628 23.8395 57.0554C24.1264 57.3452 24.2699 57.7187 24.2699 58.1761C24.2699 58.5511 24.1619 58.8864 23.946 59.1818C23.733 59.4773 23.4347 59.7102 23.0511 59.8807C22.6676 60.0511 22.2216 60.1364 21.7131 60.1364C21.0455 60.1364 20.4929 59.9915 20.0554 59.7017C19.6179 59.4119 19.3409 58.9886 19.2244 58.4318L20.179 58.1932C20.2699 58.5455 20.4418 58.8097 20.6946 58.9858C20.9503 59.1619 21.2841 59.25 21.696 59.25C22.1648 59.25 22.5369 59.1506 22.8125 58.9517C23.0909 58.75 23.2301 58.5085 23.2301 58.2273C23.2301 58 23.1506 57.8097 22.9915 57.6562C22.8324 57.5 22.5881 57.3835 22.2585 57.3068L21.1676 57.0511C20.5682 56.9091 20.1278 56.6889 19.8466 56.3906C19.5682 56.0895 19.429 55.7131 19.429 55.2614C19.429 54.892 19.5327 54.5653 19.7401 54.2812C19.9503 53.9972 20.2358 53.7741 20.5966 53.6122C20.9602 53.4503 21.3722 53.3693 21.8324 53.3693C22.4801 53.3693 22.9886 53.5114 23.358 53.7955C23.7301 54.0795 23.9943 54.4545 24.1506 54.9205ZM28.5281 60.1364C27.8974 60.1364 27.3533 59.9972 26.896 59.7188C26.4414 59.4375 26.0906 59.0455 25.8434 58.5426C25.5991 58.0369 25.4769 57.4489 25.4769 56.7784C25.4769 56.108 25.5991 55.517 25.8434 55.0057C26.0906 54.4915 26.4343 54.0909 26.8746 53.804C27.3178 53.5142 27.8349 53.3693 28.4258 53.3693C28.7667 53.3693 29.1033 53.4261 29.4357 53.5398C29.7681 53.6534 30.0707 53.8381 30.3434 54.0938C30.6161 54.3466 30.8335 54.6818 30.9954 55.0994C31.1573 55.517 31.2383 56.0312 31.2383 56.642V57.0682H26.1928V56.1989H30.2156C30.2156 55.8295 30.1417 55.5 29.994 55.2102C29.8491 54.9205 29.6417 54.6918 29.3718 54.5241C29.1048 54.3565 28.7894 54.2727 28.4258 54.2727C28.0252 54.2727 27.6786 54.3722 27.386 54.571C27.0962 54.767 26.8732 55.0227 26.717 55.3381C26.5607 55.6534 26.4826 55.9915 26.4826 56.3523V56.9318C26.4826 57.4261 26.5678 57.8452 26.7383 58.1889C26.9116 58.5298 27.1516 58.7898 27.4585 58.9688C27.7653 59.1449 28.1218 59.233 28.5281 59.233C28.7923 59.233 29.0309 59.196 29.244 59.1222C29.4599 59.0455 29.646 58.9318 29.8022 58.7812C29.9585 58.6278 30.0792 58.4375 30.1644 58.2102L31.136 58.483C31.0337 58.8125 30.8619 59.1023 30.6204 59.3523C30.3789 59.5994 30.0806 59.7926 29.7255 59.9318C29.3704 60.0682 28.9712 60.1364 28.5281 60.1364ZM32.7681 60V53.4545H33.7397V54.4432H33.8079C33.9272 54.1193 34.1431 53.8565 34.4556 53.6548C34.7681 53.4531 35.1204 53.3523 35.5124 53.3523C35.5863 53.3523 35.6786 53.3537 35.7894 53.3565C35.9002 53.3594 35.984 53.3636 36.0408 53.3693V54.392C36.0067 54.3835 35.9286 54.3707 35.8065 54.3537C35.6871 54.3338 35.5607 54.3239 35.4272 54.3239C35.109 54.3239 34.8249 54.3906 34.5749 54.5241C34.3278 54.6548 34.1317 54.8366 33.9869 55.0696C33.8448 55.2997 33.7738 55.5625 33.7738 55.858V60H32.7681ZM42.7844 53.4545L40.364 60H39.3413L36.9208 53.4545H38.0117L39.8185 58.6705H39.8867L41.6935 53.4545H42.7844ZM46.6218 60.1364C45.9911 60.1364 45.4471 59.9972 44.9897 59.7188C44.5352 59.4375 44.1843 59.0455 43.9371 58.5426C43.6928 58.0369 43.5707 57.4489 43.5707 56.7784C43.5707 56.108 43.6928 55.517 43.9371 55.0057C44.1843 54.4915 44.5281 54.0909 44.9684 53.804C45.4116 53.5142 45.9286 53.3693 46.5195 53.3693C46.8604 53.3693 47.1971 53.4261 47.5295 53.5398C47.8619 53.6534 48.1644 53.8381 48.4371 54.0938C48.7099 54.3466 48.9272 54.6818 49.0891 55.0994C49.2511 55.517 49.332 56.0312 49.332 56.642V57.0682H44.2866V56.1989H48.3093C48.3093 55.8295 48.2354 55.5 48.0877 55.2102C47.9428 54.9205 47.7354 54.6918 47.4656 54.5241C47.1985 54.3565 46.8832 54.2727 46.5195 54.2727C46.119 54.2727 45.7724 54.3722 45.4798 54.571C45.19 54.767 44.967 55.0227 44.8107 55.3381C44.6545 55.6534 44.5763 55.9915 44.5763 56.3523V56.9318C44.5763 57.4261 44.6616 57.8452 44.832 58.1889C45.0053 58.5298 45.2454 58.7898 45.5522 58.9688C45.859 59.1449 46.2156 59.233 46.6218 59.233C46.886 59.233 47.1246 59.196 47.3377 59.1222C47.5536 59.0455 47.7397 58.9318 47.896 58.7812C48.0522 58.6278 48.1729 58.4375 48.2582 58.2102L49.2298 58.483C49.1275 58.8125 48.9556 59.1023 48.7141 59.3523C48.4727 59.5994 48.1744 59.7926 47.8192 59.9318C47.4641 60.0682 47.065 60.1364 46.6218 60.1364ZM50.8619 60V53.4545H51.8335V54.4432H51.9016C52.021 54.1193 52.2369 53.8565 52.5494 53.6548C52.8619 53.4531 53.2141 53.3523 53.6062 53.3523C53.68 53.3523 53.7724 53.3537 53.8832 53.3565C53.994 53.3594 54.0778 53.3636 54.1346 53.3693V54.392C54.1005 54.3835 54.0224 54.3707 53.9002 54.3537C53.7809 54.3338 53.6545 54.3239 53.521 54.3239C53.2028 54.3239 52.9187 54.3906 52.6687 54.5241C52.4215 54.6548 52.2255 54.8366 52.0806 55.0696C51.9386 55.2997 51.8675 55.5625 51.8675 55.858V60H50.8619Z" fill="white"/>
<path d="M37.5 70C37.5 69.4477 37.0523 69 36.5 69C35.9477 69 35.5 69.4477 35.5 70H37.5ZM35.7929 136.707C36.1834 137.098 36.8166 137.098 37.2071 136.707L43.5711 130.343C43.9616 129.953 43.9616 129.319 43.5711 128.929C43.1805 128.538 42.5474 128.538 42.1569 128.929L36.5 134.586L30.8431 128.929C30.4526 128.538 29.8195 128.538 29.4289 128.929C29.0384 129.319 29.0384 129.953 29.4289 130.343L35.7929 136.707ZM35.5 70L35.5 136H37.5L37.5 70H35.5Z" fill="white"/>
<path d="M49.1 146.476H57.5L36.5 188.183L15.5 146.476H31.2715L36.5 156.147L41.8473 146.476H49.1Z" fill="#41B883"/>
<path d="M23.5 146.476L36.5539 170.805L49.5 146.476H41.5166L36.5539 155.833L31.4834 146.476H23.5Z" fill="#35495E"/>
<path d="M26.8816 194.273L29.4725 201.619H29.5748L32.1657 194.273H33.2736L30.0691 203H28.9782L25.7736 194.273H26.8816ZM38.6216 200.324V196.455H39.6273V203H38.6216V201.892H38.5534C38.4 202.224 38.1614 202.507 37.8375 202.74C37.5137 202.97 37.1046 203.085 36.6103 203.085C36.2012 203.085 35.8375 202.996 35.5194 202.817C35.2012 202.635 34.9512 202.362 34.7694 201.999C34.5875 201.632 34.4966 201.17 34.4966 200.614V196.455H35.5023V200.545C35.5023 201.023 35.6358 201.403 35.9029 201.688C36.1728 201.972 36.5165 202.114 36.9341 202.114C37.1841 202.114 37.4384 202.05 37.6969 201.922C37.9583 201.794 38.177 201.598 38.3532 201.334C38.5321 201.07 38.6216 200.733 38.6216 200.324ZM44.2136 203.136C43.5829 203.136 43.0389 202.997 42.5815 202.719C42.127 202.438 41.7761 202.045 41.5289 201.543C41.2846 201.037 41.1625 200.449 41.1625 199.778C41.1625 199.108 41.2846 198.517 41.5289 198.006C41.7761 197.491 42.1199 197.091 42.5602 196.804C43.0034 196.514 43.5204 196.369 44.1113 196.369C44.4522 196.369 44.7889 196.426 45.1213 196.54C45.4537 196.653 45.7562 196.838 46.0289 197.094C46.3017 197.347 46.519 197.682 46.6809 198.099C46.8429 198.517 46.9238 199.031 46.9238 199.642V200.068H41.8784V199.199H45.9011C45.9011 198.83 45.8272 198.5 45.6795 198.21C45.5346 197.92 45.3272 197.692 45.0574 197.524C44.7903 197.357 44.475 197.273 44.1113 197.273C43.7108 197.273 43.3642 197.372 43.0716 197.571C42.7818 197.767 42.5588 198.023 42.4025 198.338C42.2463 198.653 42.1681 198.991 42.1681 199.352V199.932C42.1681 200.426 42.2534 200.845 42.4238 201.189C42.5971 201.53 42.8372 201.79 43.144 201.969C43.4508 202.145 43.8074 202.233 44.2136 202.233C44.4778 202.233 44.7164 202.196 44.9295 202.122C45.1454 202.045 45.3315 201.932 45.4877 201.781C45.644 201.628 45.7647 201.437 45.85 201.21L46.8216 201.483C46.7193 201.812 46.5474 202.102 46.3059 202.352C46.0645 202.599 45.7662 202.793 45.411 202.932C45.0559 203.068 44.6568 203.136 44.2136 203.136Z" fill="white"/>
<path d="M37.2499 212.985C37.2415 212.433 36.7871 211.992 36.2349 212C35.6826 212.008 35.2417 212.463 35.2501 213.015L37.2499 212.985ZM36.0537 246.718C36.4501 247.102 37.0832 247.093 37.4677 246.696L43.7346 240.237C44.1191 239.84 44.1095 239.207 43.7131 238.823C43.3167 238.438 42.6836 238.448 42.2991 238.844L36.7286 244.586L30.9867 239.015C30.5903 238.631 29.9572 238.64 29.5726 239.037C29.1881 239.433 29.1976 240.066 29.594 240.451L36.0537 246.718ZM35.2501 213.015L35.2814 215.078L37.2811 215.047L37.2499 212.985L35.2501 213.015ZM35.3439 219.203L35.4064 223.328L37.4061 223.297L37.3436 219.172L35.3439 219.203ZM35.4689 227.453L35.5314 231.578L37.5311 231.547L37.4686 227.422L35.4689 227.453ZM35.5939 235.703L35.6564 239.828L37.6561 239.797L37.5936 235.672L35.5939 235.703ZM35.7189 243.953L35.7501 246.015L37.7499 245.985L37.7186 243.922L35.7189 243.953ZM37.2499 212.985C37.2415 212.433 36.7871 211.992 36.2349 212C35.6826 212.008 35.2417 212.463 35.2501 213.015L37.2499 212.985ZM36.0537 246.718C36.4501 247.102 37.0832 247.093 37.4677 246.696L43.7346 240.237C44.1191 239.84 44.1095 239.207 43.7131 238.823C43.3167 238.438 42.6836 238.448 42.2991 238.844L36.7286 244.586L30.9867 239.015C30.5903 238.631 29.9572 238.64 29.5726 239.037C29.1881 239.433 29.1976 240.066 29.594 240.451L36.0537 246.718ZM35.2501 213.015L35.2814 215.078L37.2811 215.047L37.2499 212.985L35.2501 213.015ZM35.3439 219.203L35.4064 223.328L37.4061 223.297L37.3436 219.172L35.3439 219.203ZM35.4689 227.453L35.5314 231.578L37.5311 231.547L37.4686 227.422L35.4689 227.453ZM35.5939 235.703L35.6564 239.828L37.6561 239.797L37.5936 235.672L35.5939 235.703ZM35.7189 243.953L35.7501 246.015L37.7499 245.985L37.7186 243.922L35.7189 243.953Z" fill="white"/>
<path d="M63.875 255.938H9.125C7.61244 255.938 6.16183 256.529 5.09228 257.582C4.02274 258.635 3.42188 260.063 3.42188 261.552V306.464C3.42188 307.953 4.02274 309.38 5.09228 310.433C6.16183 311.486 7.61244 312.078 9.125 312.078H63.875C65.3876 312.078 66.8382 311.486 67.9077 310.433C68.9773 309.38 69.5781 307.953 69.5781 306.464V261.552C69.5781 260.063 68.9773 258.635 67.9077 257.582C66.8382 256.529 65.3876 255.938 63.875 255.938ZM67.2969 306.464C67.2969 307.357 66.9364 308.214 66.2946 308.845C65.6529 309.477 64.7825 309.832 63.875 309.832H9.125C8.21746 309.832 7.3471 309.477 6.70537 308.845C6.06364 308.214 5.70312 307.357 5.70312 306.464V267.166H67.2969V306.464ZM5.70312 264.92V261.552C5.70312 260.658 6.06364 259.801 6.70537 259.17C7.3471 258.538 8.21746 258.183 9.125 258.183H63.875C64.7825 258.183 65.6529 258.538 66.2946 259.17C66.9364 259.801 67.2969 260.658 67.2969 261.552V264.92H5.70312ZM62.7344 261.552C62.7344 261.774 62.6675 261.991 62.5421 262.175C62.4168 262.36 62.2387 262.504 62.0302 262.589C61.8218 262.674 61.5925 262.696 61.3712 262.653C61.15 262.609 60.9467 262.502 60.7872 262.345C60.6277 262.188 60.5191 261.988 60.475 261.771C60.431 261.553 60.4536 261.327 60.54 261.122C60.6263 260.917 60.7725 260.741 60.9601 260.618C61.1476 260.495 61.3682 260.429 61.5938 260.429C61.8963 260.429 62.1864 260.547 62.4003 260.758C62.6142 260.968 62.7344 261.254 62.7344 261.552ZM59.3125 261.552C59.3125 261.774 59.2456 261.991 59.1203 262.175C58.9949 262.36 58.8168 262.504 58.6084 262.589C58.4 262.674 58.1706 262.696 57.9493 262.653C57.7281 262.609 57.5248 262.502 57.3653 262.345C57.2058 262.188 57.0972 261.988 57.0532 261.771C57.0092 261.553 57.0317 261.327 57.1181 261.122C57.2044 260.917 57.3506 260.741 57.5382 260.618C57.7258 260.495 57.9463 260.429 58.1719 260.429C58.4744 260.429 58.7645 260.547 58.9784 260.758C59.1923 260.968 59.3125 261.254 59.3125 261.552ZM55.8906 261.552C55.8906 261.774 55.8237 261.991 55.6984 262.175C55.5731 262.36 55.3949 262.504 55.1865 262.589C54.9781 262.674 54.7487 262.696 54.5275 262.653C54.3062 262.609 54.103 262.502 53.9435 262.345C53.7839 262.188 53.6753 261.988 53.6313 261.771C53.5873 261.553 53.6099 261.327 53.6962 261.122C53.7825 260.917 53.9287 260.741 54.1163 260.618C54.3039 260.495 54.5244 260.429 54.75 260.429C55.0525 260.429 55.3426 260.547 55.5565 260.758C55.7705 260.968 55.8906 261.254 55.8906 261.552ZM11.4062 307.586H34.2188C34.5213 307.586 34.8114 307.468 35.0253 307.258C35.2392 307.047 35.3594 306.761 35.3594 306.464V270.534C35.3594 270.236 35.2392 269.951 35.0253 269.74C34.8114 269.529 34.5213 269.411 34.2188 269.411H11.4062C11.1037 269.411 10.8136 269.529 10.5997 269.74C10.3858 269.951 10.2656 270.236 10.2656 270.534V306.464C10.2656 306.761 10.3858 307.047 10.5997 307.258C10.8136 307.468 11.1037 307.586 11.4062 307.586ZM12.5469 271.657H33.0781V305.341H12.5469V271.657ZM38.7812 280.639H61.5938C61.8963 280.639 62.1864 280.521 62.4003 280.31C62.6142 280.1 62.7344 279.814 62.7344 279.516V270.534C62.7344 270.236 62.6142 269.951 62.4003 269.74C62.1864 269.529 61.8963 269.411 61.5938 269.411H38.7812C38.4787 269.411 38.1886 269.529 37.9747 269.74C37.7608 269.951 37.6406 270.236 37.6406 270.534V279.516C37.6406 279.814 37.7608 280.1 37.9747 280.31C38.1886 280.521 38.4787 280.639 38.7812 280.639ZM39.9219 271.657H60.4531V278.394H39.9219V271.657ZM38.7812 294.113H61.5938C61.8963 294.113 62.1864 293.994 62.4003 293.784C62.6142 293.573 62.7344 293.288 62.7344 292.99V284.008C62.7344 283.71 62.6142 283.424 62.4003 283.214C62.1864 283.003 61.8963 282.885 61.5938 282.885H38.7812C38.4787 282.885 38.1886 283.003 37.9747 283.214C37.7608 283.424 37.6406 283.71 37.6406 284.008V292.99C37.6406 293.288 37.7608 293.573 37.9747 293.784C38.1886 293.994 38.4787 294.113 38.7812 294.113ZM39.9219 285.13H60.4531V291.867H39.9219V285.13ZM38.7812 307.586H61.5938C61.8963 307.586 62.1864 307.468 62.4003 307.258C62.6142 307.047 62.7344 306.761 62.7344 306.464V297.481C62.7344 297.183 62.6142 296.898 62.4003 296.687C62.1864 296.477 61.8963 296.358 61.5938 296.358H38.7812C38.4787 296.358 38.1886 296.477 37.9747 296.687C37.7608 296.898 37.6406 297.183 37.6406 297.481V306.464C37.6406 306.761 37.7608 307.047 37.9747 307.258C38.1886 307.468 38.4787 307.586 38.7812 307.586ZM39.9219 298.604H60.4531V305.341H39.9219V298.604Z" fill="white"/>
</svg>
