<svg width="73" height="316" viewBox="0 0 73 316" fill="none" xmlns="http://www.w3.org/2000/svg">
<path fill-rule="evenodd" clip-rule="evenodd" d="M15 10C15 8.01088 15.7902 6.10322 17.1967 4.6967C18.6032 3.29018 20.5109 2.5 22.5 2.5H50.5C52.0741 2.5 53.6083 2.99528 54.8853 3.91568C56.1623 4.83609 57.1174 6.13495 57.6151 7.62829C58.1129 9.12163 58.1282 10.7337 57.6589 12.2363C57.1895 13.7388 56.2593 15.0555 55 16C56.2593 16.9445 57.1895 18.2612 57.6589 19.7637C58.1282 21.2663 58.1129 22.8784 57.6151 24.3717C57.1174 25.865 56.1623 27.1639 54.8853 28.0843C53.6083 29.0047 52.0741 29.5 50.5 29.5H38V32.708C39.832 33.226 41.274 34.668 41.792 36.5H56.5C56.8978 36.5 57.2794 36.658 57.5607 36.9393C57.842 37.2206 58 37.6022 58 38C58 38.3978 57.842 38.7794 57.5607 39.0607C57.2794 39.342 56.8978 39.5 56.5 39.5H41.794C41.4671 40.6518 40.7735 41.6656 39.8182 42.3875C38.863 43.1094 37.6983 43.5 36.501 43.5C35.3037 43.5 34.139 43.1094 33.1838 42.3875C32.2286 41.6656 31.5349 40.6518 31.208 39.5H16.5C16.1022 39.5 15.7207 39.342 15.4393 39.0607C15.158 38.7794 15 38.3978 15 38C15 37.6022 15.158 37.2206 15.4393 36.9393C15.7207 36.658 16.1022 36.5 16.5 36.5H31.208C31.4657 35.5977 31.9491 34.7761 32.6126 34.1126C33.2761 33.4491 34.0978 32.9657 35 32.708V29.5H22.5C20.9259 29.5 19.3917 29.0047 18.1147 28.0843C16.8377 27.1639 15.8827 25.865 15.3849 24.3717C14.8871 22.8784 14.8718 21.2663 15.3412 19.7637C15.8105 18.2612 16.7407 16.9445 18 16C17.0674 15.3025 16.3105 14.3968 15.7897 13.3552C15.2689 12.3135 14.9984 11.1646 15 10ZM22.5 14.5C21.3065 14.5 20.1619 14.0259 19.318 13.182C18.4741 12.3381 18 11.1935 18 10C18 8.80653 18.4741 7.66193 19.318 6.81802C20.1619 5.97411 21.3065 5.5 22.5 5.5H50.5C51.6935 5.5 52.8381 5.97411 53.682 6.81802C54.5259 7.66193 55 8.80653 55 10C55 11.1935 54.5259 12.3381 53.682 13.182C52.8381 14.0259 51.6935 14.5 50.5 14.5H22.5ZM50.5 17.5H22.5C21.3065 17.5 20.1619 17.9741 19.318 18.818C18.4741 19.6619 18 20.8065 18 22C18 23.1935 18.4741 24.3381 19.318 25.182C20.1619 26.0259 21.3065 26.5 22.5 26.5H50.5C51.6935 26.5 52.8381 26.0259 53.682 25.182C54.5259 24.3381 55 23.1935 55 22C55 20.8065 54.5259 19.6619 53.682 18.818C52.8381 17.9741 51.6935 17.5 50.5 17.5ZM37 10C37 9.60218 37.158 9.22064 37.4393 8.93934C37.7207 8.65804 38.1022 8.5 38.5 8.5H50.5C50.8978 8.5 51.2794 8.65804 51.5607 8.93934C51.842 9.22064 52 9.60218 52 10C52 10.3978 51.842 10.7794 51.5607 11.0607C51.2794 11.342 50.8978 11.5 50.5 11.5H38.5C38.1022 11.5 37.7207 11.342 37.4393 11.0607C37.158 10.7794 37 10.3978 37 10ZM37 22C37 21.6022 37.158 21.2206 37.4393 20.9393C37.7207 20.658 38.1022 20.5 38.5 20.5H50.5C50.8978 20.5 51.2794 20.658 51.5607 20.9393C51.842 21.2206 52 21.6022 52 22C52 22.3978 51.842 22.7794 51.5607 23.0607C51.2794 23.342 50.8978 23.5 50.5 23.5H38.5C38.1022 23.5 37.7207 23.342 37.4393 23.0607C37.158 22.7794 37 22.3978 37 22ZM36.5 35.5C36.1717 35.5 35.8466 35.5647 35.5433 35.6903C35.24 35.8159 34.9644 36.0001 34.7322 36.2322C34.5001 36.4644 34.3159 36.74 34.1903 37.0433C34.0647 37.3466 34 37.6717 34 38C34 38.3283 34.0647 38.6534 34.1903 38.9567C34.3159 39.26 34.5001 39.5356 34.7322 39.7678C34.9644 39.9999 35.24 40.1841 35.5433 40.3097C35.8466 40.4353 36.1717 40.5 36.5 40.5C37.163 40.5 37.7989 40.2366 38.2678 39.7678C38.7366 39.2989 39 38.663 39 38C39 37.337 38.7366 36.7011 38.2678 36.2322C37.7989 35.7634 37.163 35.5 36.5 35.5Z" fill="white"/>
<path d="M26.5 10C26.5 10.5304 26.2893 11.0391 25.9142 11.4142C25.5391 11.7893 25.0304 12 24.5 12C23.9696 12 23.4609 11.7893 23.0858 11.4142C22.7107 11.0391 22.5 10.5304 22.5 10C22.5 9.46957 22.7107 8.96086 23.0858 8.58579C23.4609 8.21071 23.9696 8 24.5 8C25.0304 8 25.5391 8.21071 25.9142 8.58579C26.2893 8.96086 26.5 9.46957 26.5 10ZM26.5 22C26.5 22.5304 26.2893 23.0391 25.9142 23.4142C25.5391 23.7893 25.0304 24 24.5 24C23.9696 24 23.4609 23.7893 23.0858 23.4142C22.7107 23.0391 22.5 22.5304 22.5 22C22.5 21.4696 22.7107 20.9609 23.0858 20.5858C23.4609 20.2107 23.9696 20 24.5 20C25.0304 20 25.5391 20.2107 25.9142 20.5858C26.2893 20.9609 26.5 21.4696 26.5 22Z" fill="white"/>
<path d="M24.1506 54.9205L23.2472 55.1761C23.1903 55.0256 23.1065 54.8793 22.9957 54.7372C22.8878 54.5923 22.7401 54.473 22.5526 54.3793C22.3651 54.2855 22.125 54.2386 21.8324 54.2386C21.4318 54.2386 21.098 54.331 20.831 54.5156C20.5668 54.6974 20.4347 54.929 20.4347 55.2102C20.4347 55.4602 20.5256 55.6577 20.7074 55.8026C20.8892 55.9474 21.1733 56.0682 21.5597 56.1648L22.5312 56.4034C23.1165 56.5455 23.5526 56.7628 23.8395 57.0554C24.1264 57.3452 24.2699 57.7187 24.2699 58.1761C24.2699 58.5511 24.1619 58.8864 23.946 59.1818C23.733 59.4773 23.4347 59.7102 23.0511 59.8807C22.6676 60.0511 22.2216 60.1364 21.7131 60.1364C21.0455 60.1364 20.4929 59.9915 20.0554 59.7017C19.6179 59.4119 19.3409 58.9886 19.2244 58.4318L20.179 58.1932C20.2699 58.5455 20.4418 58.8097 20.6946 58.9858C20.9503 59.1619 21.2841 59.25 21.696 59.25C22.1648 59.25 22.5369 59.1506 22.8125 58.9517C23.0909 58.75 23.2301 58.5085 23.2301 58.2273C23.2301 58 23.1506 57.8097 22.9915 57.6562C22.8324 57.5 22.5881 57.3835 22.2585 57.3068L21.1676 57.0511C20.5682 56.9091 20.1278 56.6889 19.8466 56.3906C19.5682 56.0895 19.429 55.7131 19.429 55.2614C19.429 54.892 19.5327 54.5653 19.7401 54.2812C19.9503 53.9972 20.2358 53.7741 20.5966 53.6122C20.9602 53.4503 21.3722 53.3693 21.8324 53.3693C22.4801 53.3693 22.9886 53.5114 23.358 53.7955C23.7301 54.0795 23.9943 54.4545 24.1506 54.9205ZM28.5281 60.1364C27.8974 60.1364 27.3533 59.9972 26.896 59.7188C26.4414 59.4375 26.0906 59.0455 25.8434 58.5426C25.5991 58.0369 25.4769 57.4489 25.4769 56.7784C25.4769 56.108 25.5991 55.517 25.8434 55.0057C26.0906 54.4915 26.4343 54.0909 26.8746 53.804C27.3178 53.5142 27.8349 53.3693 28.4258 53.3693C28.7667 53.3693 29.1033 53.4261 29.4357 53.5398C29.7681 53.6534 30.0707 53.8381 30.3434 54.0938C30.6161 54.3466 30.8335 54.6818 30.9954 55.0994C31.1573 55.517 31.2383 56.0312 31.2383 56.642V57.0682H26.1928V56.1989H30.2156C30.2156 55.8295 30.1417 55.5 29.994 55.2102C29.8491 54.9205 29.6417 54.6918 29.3718 54.5241C29.1048 54.3565 28.7894 54.2727 28.4258 54.2727C28.0252 54.2727 27.6786 54.3722 27.386 54.571C27.0962 54.767 26.8732 55.0227 26.717 55.3381C26.5607 55.6534 26.4826 55.9915 26.4826 56.3523V56.9318C26.4826 57.4261 26.5678 57.8452 26.7383 58.1889C26.9116 58.5298 27.1516 58.7898 27.4585 58.9688C27.7653 59.1449 28.1218 59.233 28.5281 59.233C28.7923 59.233 29.0309 59.196 29.244 59.1222C29.4599 59.0455 29.646 58.9318 29.8022 58.7812C29.9585 58.6278 30.0792 58.4375 30.1644 58.2102L31.136 58.483C31.0337 58.8125 30.8619 59.1023 30.6204 59.3523C30.3789 59.5994 30.0806 59.7926 29.7255 59.9318C29.3704 60.0682 28.9712 60.1364 28.5281 60.1364ZM32.7681 60V53.4545H33.7397V54.4432H33.8079C33.9272 54.1193 34.1431 53.8565 34.4556 53.6548C34.7681 53.4531 35.1204 53.3523 35.5124 53.3523C35.5863 53.3523 35.6786 53.3537 35.7894 53.3565C35.9002 53.3594 35.984 53.3636 36.0408 53.3693V54.392C36.0067 54.3835 35.9286 54.3707 35.8065 54.3537C35.6871 54.3338 35.5607 54.3239 35.4272 54.3239C35.109 54.3239 34.8249 54.3906 34.5749 54.5241C34.3278 54.6548 34.1317 54.8366 33.9869 55.0696C33.8448 55.2997 33.7738 55.5625 33.7738 55.858V60H32.7681ZM42.7844 53.4545L40.364 60H39.3413L36.9208 53.4545H38.0117L39.8185 58.6705H39.8867L41.6935 53.4545H42.7844ZM46.6218 60.1364C45.9911 60.1364 45.4471 59.9972 44.9897 59.7188C44.5352 59.4375 44.1843 59.0455 43.9371 58.5426C43.6928 58.0369 43.5707 57.4489 43.5707 56.7784C43.5707 56.108 43.6928 55.517 43.9371 55.0057C44.1843 54.4915 44.5281 54.0909 44.9684 53.804C45.4116 53.5142 45.9286 53.3693 46.5195 53.3693C46.8604 53.3693 47.1971 53.4261 47.5295 53.5398C47.8619 53.6534 48.1644 53.8381 48.4371 54.0938C48.7099 54.3466 48.9272 54.6818 49.0891 55.0994C49.2511 55.517 49.332 56.0312 49.332 56.642V57.0682H44.2866V56.1989H48.3093C48.3093 55.8295 48.2354 55.5 48.0877 55.2102C47.9428 54.9205 47.7354 54.6918 47.4656 54.5241C47.1985 54.3565 46.8832 54.2727 46.5195 54.2727C46.119 54.2727 45.7724 54.3722 45.4798 54.571C45.19 54.767 44.967 55.0227 44.8107 55.3381C44.6545 55.6534 44.5763 55.9915 44.5763 56.3523V56.9318C44.5763 57.4261 44.6616 57.8452 44.832 58.1889C45.0053 58.5298 45.2454 58.7898 45.5522 58.9688C45.859 59.1449 46.2156 59.233 46.6218 59.233C46.886 59.233 47.1246 59.196 47.3377 59.1222C47.5536 59.0455 47.7397 58.9318 47.896 58.7812C48.0522 58.6278 48.1729 58.4375 48.2582 58.2102L49.2298 58.483C49.1275 58.8125 48.9556 59.1023 48.7141 59.3523C48.4727 59.5994 48.1744 59.7926 47.8192 59.9318C47.4641 60.0682 47.065 60.1364 46.6218 60.1364ZM50.8619 60V53.4545H51.8335V54.4432H51.9016C52.021 54.1193 52.2369 53.8565 52.5494 53.6548C52.8619 53.4531 53.2141 53.3523 53.6062 53.3523C53.68 53.3523 53.7724 53.3537 53.8832 53.3565C53.994 53.3594 54.0778 53.3636 54.1346 53.3693V54.392C54.1005 54.3835 54.0224 54.3707 53.9002 54.3537C53.7809 54.3338 53.6545 54.3239 53.521 54.3239C53.2028 54.3239 52.9187 54.3906 52.6687 54.5241C52.4215 54.6548 52.2255 54.8366 52.0806 55.0696C51.9386 55.2997 51.8675 55.5625 51.8675 55.858V60H50.8619Z" fill="white"/>
<path d="M37.5 70C37.5 69.4477 37.0523 69 36.5 69C35.9477 69 35.5 69.4477 35.5 70H37.5ZM35.7929 136.707C36.1834 137.098 36.8166 137.098 37.2071 136.707L43.5711 130.343C43.9616 129.953 43.9616 129.319 43.5711 128.929C43.1805 128.538 42.5474 128.538 42.1569 128.929L36.5 134.586L30.8431 128.929C30.4526 128.538 29.8195 128.538 29.4289 128.929C29.0384 129.319 29.0384 129.953 29.4289 130.343L35.7929 136.707ZM35.5 70L35.5 136H37.5L37.5 70H35.5Z" fill="white"/>
<path d="M27.5 146C25.9087 146 24.3826 146.632 23.2574 147.757C22.1321 148.883 21.5 150.409 21.5 152V182C21.5 183.591 22.1321 185.117 23.2574 186.243C24.3826 187.368 25.9087 188 27.5 188H45.5C47.0913 188 48.6174 187.368 49.7426 186.243C50.8679 185.117 51.5 183.591 51.5 182V159.242C51.4989 158.049 51.0242 156.905 50.18 156.062L41.441 147.317C41.0229 146.899 40.5267 146.568 39.9805 146.342C39.4344 146.116 38.8491 146 38.258 146H27.5ZM24.5 152C24.5 151.204 24.8161 150.441 25.3787 149.879C25.9413 149.316 26.7044 149 27.5 149H36.5V156.5C36.5 157.693 36.9741 158.838 37.818 159.682C38.6619 160.526 39.8065 161 41 161H48.5V182C48.5 182.796 48.1839 183.559 47.6213 184.121C47.0587 184.684 46.2956 185 45.5 185H27.5C26.7044 185 25.9413 184.684 25.3787 184.121C24.8161 183.559 24.5 182.796 24.5 182V152ZM47.879 158H41C40.6022 158 40.2206 157.842 39.9393 157.561C39.658 157.279 39.5 156.898 39.5 156.5V149.621L47.879 158Z" fill="white"/>
<path d="M20.5529 203V194.273H21.6097V198.159H26.2631V194.273H27.32V203H26.2631V199.097H21.6097V203H20.5529ZM28.9585 195.21V194.273H35.5039V195.21H32.7596V203H31.7028V195.21H28.9585ZM37.1349 194.273H38.3963L41.3622 201.517H41.4645L44.4304 194.273H45.6918V203H44.7031V196.369H44.6179L41.8906 203H40.9361L38.2088 196.369H38.1236V203H37.1349V194.273ZM47.8107 203V194.273H48.8675V202.062H52.9244V203H47.8107Z" fill="white"/>
<path d="M37.2499 212.985C37.2415 212.433 36.7871 211.992 36.2349 212C35.6826 212.008 35.2417 212.463 35.2501 213.015L37.2499 212.985ZM36.0537 246.718C36.4501 247.102 37.0832 247.093 37.4677 246.696L43.7346 240.237C44.1191 239.84 44.1095 239.207 43.7131 238.823C43.3167 238.438 42.6836 238.448 42.2991 238.844L36.7286 244.586L30.9867 239.015C30.5903 238.631 29.9572 238.64 29.5726 239.037C29.1881 239.433 29.1976 240.066 29.594 240.451L36.0537 246.718ZM35.2501 213.015L35.2814 215.078L37.2811 215.047L37.2499 212.985L35.2501 213.015ZM35.3439 219.203L35.4064 223.328L37.4061 223.297L37.3436 219.172L35.3439 219.203ZM35.4689 227.453L35.5314 231.578L37.5311 231.547L37.4686 227.422L35.4689 227.453ZM35.5939 235.703L35.6564 239.828L37.6561 239.797L37.5936 235.672L35.5939 235.703ZM35.7189 243.953L35.7501 246.015L37.7499 245.985L37.7186 243.922L35.7189 243.953ZM37.2499 212.985C37.2415 212.433 36.7871 211.992 36.2349 212C35.6826 212.008 35.2417 212.463 35.2501 213.015L37.2499 212.985ZM36.0537 246.718C36.4501 247.102 37.0832 247.093 37.4677 246.696L43.7346 240.237C44.1191 239.84 44.1095 239.207 43.7131 238.823C43.3167 238.438 42.6836 238.448 42.2991 238.844L36.7286 244.586L30.9867 239.015C30.5903 238.631 29.9572 238.64 29.5726 239.037C29.1881 239.433 29.1976 240.066 29.594 240.451L36.0537 246.718ZM35.2501 213.015L35.2814 215.078L37.2811 215.047L37.2499 212.985L35.2501 213.015ZM35.3439 219.203L35.4064 223.328L37.4061 223.297L37.3436 219.172L35.3439 219.203ZM35.4689 227.453L35.5314 231.578L37.5311 231.547L37.4686 227.422L35.4689 227.453ZM35.5939 235.703L35.6564 239.828L37.6561 239.797L37.5936 235.672L35.5939 235.703ZM35.7189 243.953L35.7501 246.015L37.7499 245.985L37.7186 243.922L35.7189 243.953Z" fill="white"/>
<path d="M63.875 255.984H9.125C7.61244 255.984 6.16183 256.585 5.09228 257.655C4.02274 258.724 3.42188 260.175 3.42188 261.688V307.312C3.42188 308.825 4.02274 310.276 5.09228 311.345C6.16183 312.415 7.61244 313.016 9.125 313.016H63.875C65.3876 313.016 66.8382 312.415 67.9077 311.345C68.9773 310.276 69.5781 308.825 69.5781 307.312V261.688C69.5781 260.175 68.9773 258.724 67.9077 257.655C66.8382 256.585 65.3876 255.984 63.875 255.984ZM67.2969 307.312C67.2969 308.22 66.9364 309.09 66.2946 309.732C65.6529 310.374 64.7825 310.734 63.875 310.734H9.125C8.21746 310.734 7.3471 310.374 6.70537 309.732C6.06364 309.09 5.70312 308.22 5.70312 307.312V267.391H67.2969V307.312ZM5.70312 265.109V261.688C5.70312 260.78 6.06364 259.91 6.70537 259.268C7.3471 258.626 8.21746 258.266 9.125 258.266H63.875C64.7825 258.266 65.6529 258.626 66.2946 259.268C66.9364 259.91 67.2969 260.78 67.2969 261.688V265.109H5.70312ZM62.7344 261.688C62.7344 261.913 62.6675 262.134 62.5421 262.321C62.4168 262.509 62.2387 262.655 62.0302 262.741C61.8218 262.828 61.5925 262.85 61.3712 262.806C61.15 262.762 60.9467 262.654 60.7872 262.494C60.6277 262.335 60.5191 262.131 60.475 261.91C60.431 261.689 60.4536 261.459 60.54 261.251C60.6263 261.043 60.7725 260.864 60.9601 260.739C61.1476 260.614 61.3682 260.547 61.5938 260.547C61.8963 260.547 62.1864 260.667 62.4003 260.881C62.6142 261.095 62.7344 261.385 62.7344 261.688ZM59.3125 261.688C59.3125 261.913 59.2456 262.134 59.1203 262.321C58.9949 262.509 58.8168 262.655 58.6084 262.741C58.3999 262.828 58.1706 262.85 57.9493 262.806C57.7281 262.762 57.5248 262.654 57.3653 262.494C57.2058 262.335 57.0972 262.131 57.0532 261.91C57.0092 261.689 57.0317 261.459 57.1181 261.251C57.2044 261.043 57.3506 260.864 57.5382 260.739C57.7258 260.614 57.9463 260.547 58.1719 260.547C58.4744 260.547 58.7645 260.667 58.9784 260.881C59.1923 261.095 59.3125 261.385 59.3125 261.688ZM55.8906 261.688C55.8906 261.913 55.8237 262.134 55.6984 262.321C55.5731 262.509 55.3949 262.655 55.1865 262.741C54.9781 262.828 54.7487 262.85 54.5275 262.806C54.3062 262.762 54.103 262.654 53.9435 262.494C53.7839 262.335 53.6753 262.131 53.6313 261.91C53.5873 261.689 53.6099 261.459 53.6962 261.251C53.7825 261.043 53.9287 260.864 54.1163 260.739C54.3039 260.614 54.5244 260.547 54.75 260.547C55.0525 260.547 55.3426 260.667 55.5565 260.881C55.7705 261.095 55.8906 261.385 55.8906 261.688Z" fill="white"/>
<rect x="17" y="285" width="39" height="7" rx="3.5" stroke="white" stroke-width="2"/>
<rect x="19.75" y="287.75" width="10.5" height="1.5" rx="0.75" fill="white" stroke="white" stroke-width="1.5"/>
</svg>
