<svg width="516" height="146" viewBox="0 0 516 146" fill="none" xmlns="http://www.w3.org/2000/svg">
<path d="M506.875 43.9844H452.125C450.612 43.9844 449.162 44.5852 448.092 45.6548C447.023 46.7243 446.422 48.1749 446.422 49.6875V95.3125C446.422 96.8251 447.023 98.2757 448.092 99.3452C449.162 100.415 450.612 101.016 452.125 101.016H506.875C508.388 101.016 509.838 100.415 510.908 99.3452C511.977 98.2757 512.578 96.8251 512.578 95.3125V49.6875C512.578 48.1749 511.977 46.7243 510.908 45.6548C509.838 44.5852 508.388 43.9844 506.875 43.9844ZM510.297 95.3125C510.297 96.22 509.936 97.0904 509.295 97.7321C508.653 98.3739 507.783 98.7344 506.875 98.7344H452.125C451.217 98.7344 450.347 98.3739 449.705 97.7321C449.064 97.0904 448.703 96.22 448.703 95.3125V55.3906H510.297V95.3125ZM448.703 53.1094V49.6875C448.703 48.78 449.064 47.9096 449.705 47.2679C450.347 46.6261 451.217 46.2656 452.125 46.2656H506.875C507.783 46.2656 508.653 46.6261 509.295 47.2679C509.936 47.9096 510.297 48.78 510.297 49.6875V53.1094H448.703ZM505.734 49.6875C505.734 49.9131 505.667 50.1336 505.542 50.3212C505.417 50.5088 505.239 50.655 505.03 50.7413C504.822 50.8276 504.592 50.8502 504.371 50.8062C504.15 50.7622 503.947 50.6536 503.787 50.494C503.628 50.3345 503.519 50.1313 503.475 49.91C503.431 49.6888 503.454 49.4594 503.54 49.251C503.626 49.0426 503.772 48.8644 503.96 48.7391C504.148 48.6138 504.368 48.5469 504.594 48.5469C504.896 48.5469 505.186 48.667 505.4 48.881C505.614 49.0949 505.734 49.385 505.734 49.6875ZM502.312 49.6875C502.312 49.9131 502.246 50.1336 502.12 50.3212C501.995 50.5088 501.817 50.655 501.608 50.7413C501.4 50.8276 501.171 50.8502 500.949 50.8062C500.728 50.7622 500.525 50.6536 500.365 50.494C500.206 50.3345 500.097 50.1313 500.053 49.91C500.009 49.6888 500.032 49.4594 500.118 49.251C500.204 49.0426 500.351 48.8644 500.538 48.7391C500.726 48.6138 500.946 48.5469 501.172 48.5469C501.474 48.5469 501.765 48.667 501.978 48.881C502.192 49.0949 502.312 49.385 502.312 49.6875ZM498.891 49.6875C498.891 49.9131 498.824 50.1336 498.698 50.3212C498.573 50.5088 498.395 50.655 498.186 50.7413C497.978 50.8276 497.749 50.8502 497.527 50.8062C497.306 50.7622 497.103 50.6536 496.943 50.494C496.784 50.3345 496.675 50.1313 496.631 49.91C496.587 49.6888 496.61 49.4594 496.696 49.251C496.783 49.0426 496.929 48.8644 497.116 48.7391C497.304 48.6138 497.524 48.5469 497.75 48.5469C498.053 48.5469 498.343 48.667 498.557 48.881C498.77 49.0949 498.891 49.385 498.891 49.6875ZM454.406 96.4531H477.219C477.521 96.4531 477.811 96.333 478.025 96.119C478.239 95.9051 478.359 95.615 478.359 95.3125V58.8125C478.359 58.51 478.239 58.2199 478.025 58.006C477.811 57.792 477.521 57.6719 477.219 57.6719H454.406C454.104 57.6719 453.814 57.792 453.6 58.006C453.386 58.2199 453.266 58.51 453.266 58.8125V95.3125C453.266 95.615 453.386 95.9051 453.6 96.119C453.814 96.333 454.104 96.4531 454.406 96.4531ZM455.547 59.9531H476.078V94.1719H455.547V59.9531ZM481.781 69.0781H504.594C504.896 69.0781 505.186 68.958 505.4 68.744C505.614 68.5301 505.734 68.24 505.734 67.9375V58.8125C505.734 58.51 505.614 58.2199 505.4 58.006C505.186 57.792 504.896 57.6719 504.594 57.6719H481.781C481.479 57.6719 481.189 57.792 480.975 58.006C480.761 58.2199 480.641 58.51 480.641 58.8125V67.9375C480.641 68.24 480.761 68.5301 480.975 68.744C481.189 68.958 481.479 69.0781 481.781 69.0781ZM482.922 59.9531H503.453V66.7969H482.922V59.9531ZM481.781 82.7656H504.594C504.896 82.7656 505.186 82.6455 505.4 82.4315C505.614 82.2176 505.734 81.9275 505.734 81.625V72.5C505.734 72.1975 505.614 71.9074 505.4 71.6935C505.186 71.4795 504.896 71.3594 504.594 71.3594H481.781C481.479 71.3594 481.189 71.4795 480.975 71.6935C480.761 71.9074 480.641 72.1975 480.641 72.5V81.625C480.641 81.9275 480.761 82.2176 480.975 82.4315C481.189 82.6455 481.479 82.7656 481.781 82.7656ZM482.922 73.6406H503.453V80.4844H482.922V73.6406ZM481.781 96.4531H504.594C504.896 96.4531 505.186 96.333 505.4 96.119C505.614 95.9051 505.734 95.615 505.734 95.3125V86.1875C505.734 85.885 505.614 85.5949 505.4 85.381C505.186 85.167 504.896 85.0469 504.594 85.0469H481.781C481.479 85.0469 481.189 85.167 480.975 85.381C480.761 85.5949 480.641 85.885 480.641 86.1875V95.3125C480.641 95.615 480.761 95.9051 480.975 96.119C481.189 96.333 481.479 96.4531 481.781 96.4531ZM482.922 87.3281H503.453V94.1719H482.922V87.3281Z" fill="white"/>
<path d="M351 89H339C337.343 89 336 90.3432 336 92V114C336 115.657 337.343 117 339 117H369C370.657 117 372 115.657 372 114V104" stroke="white" stroke-width="3" stroke-linecap="round" stroke-linejoin="round"/>
<path d="M354 117V125" stroke="white" stroke-width="3" stroke-linecap="round" stroke-linejoin="round"/>
<path d="M362 89L358 93L362 97" stroke="white" stroke-width="3" stroke-linecap="round" stroke-linejoin="round"/>
<path d="M368 89L372 93L368 97" stroke="white" stroke-width="3" stroke-linecap="round" stroke-linejoin="round"/>
<path d="M344 125H364" stroke="white" stroke-width="3" stroke-linecap="round" stroke-linejoin="round"/>
<path d="M342.199 143.136C341.585 143.136 341.057 142.991 340.613 142.702C340.17 142.412 339.829 142.013 339.591 141.504C339.352 140.996 339.233 140.415 339.233 139.761C339.233 139.097 339.355 138.51 339.599 138.001C339.846 137.49 340.19 137.091 340.631 136.804C341.074 136.514 341.591 136.369 342.182 136.369C342.642 136.369 343.057 136.455 343.426 136.625C343.795 136.795 344.098 137.034 344.334 137.341C344.569 137.648 344.716 138.006 344.773 138.415H343.767C343.69 138.116 343.52 137.852 343.256 137.622C342.994 137.389 342.642 137.273 342.199 137.273C341.807 137.273 341.463 137.375 341.167 137.58C340.875 137.781 340.646 138.067 340.481 138.436C340.319 138.803 340.238 139.233 340.238 139.727C340.238 140.233 340.318 140.673 340.477 141.048C340.639 141.423 340.866 141.714 341.159 141.922C341.454 142.129 341.801 142.233 342.199 142.233C342.46 142.233 342.697 142.188 342.91 142.097C343.123 142.006 343.304 141.875 343.452 141.705C343.599 141.534 343.704 141.33 343.767 141.091H344.773C344.716 141.477 344.575 141.825 344.351 142.135C344.129 142.442 343.835 142.686 343.469 142.868C343.105 143.047 342.682 143.136 342.199 143.136ZM347.248 134.273V143H346.243V134.273H347.248ZM349.09 143V136.455H350.096V143H349.09ZM349.602 135.364C349.406 135.364 349.237 135.297 349.095 135.163C348.955 135.03 348.886 134.869 348.886 134.682C348.886 134.494 348.955 134.334 349.095 134.2C349.237 134.067 349.406 134 349.602 134C349.798 134 349.965 134.067 350.105 134.2C350.247 134.334 350.318 134.494 350.318 134.682C350.318 134.869 350.247 135.03 350.105 135.163C349.965 135.297 349.798 135.364 349.602 135.364ZM354.682 143.136C354.052 143.136 353.508 142.997 353.05 142.719C352.596 142.438 352.245 142.045 351.998 141.543C351.753 141.037 351.631 140.449 351.631 139.778C351.631 139.108 351.753 138.517 351.998 138.006C352.245 137.491 352.589 137.091 353.029 136.804C353.472 136.514 353.989 136.369 354.58 136.369C354.921 136.369 355.258 136.426 355.59 136.54C355.922 136.653 356.225 136.838 356.498 137.094C356.77 137.347 356.988 137.682 357.15 138.099C357.312 138.517 357.393 139.031 357.393 139.642V140.068H352.347V139.199H356.37C356.37 138.83 356.296 138.5 356.148 138.21C356.003 137.92 355.796 137.692 355.526 137.524C355.259 137.357 354.944 137.273 354.58 137.273C354.18 137.273 353.833 137.372 353.54 137.571C353.251 137.767 353.028 138.023 352.871 138.338C352.715 138.653 352.637 138.991 352.637 139.352V139.932C352.637 140.426 352.722 140.845 352.893 141.189C353.066 141.53 353.306 141.79 353.613 141.969C353.92 142.145 354.276 142.233 354.682 142.233C354.947 142.233 355.185 142.196 355.398 142.122C355.614 142.045 355.8 141.932 355.956 141.781C356.113 141.628 356.233 141.437 356.319 141.21L357.29 141.483C357.188 141.812 357.016 142.102 356.775 142.352C356.533 142.599 356.235 142.793 355.88 142.932C355.525 143.068 355.126 143.136 354.682 143.136ZM359.928 139.062V143H358.922V136.455H359.894V137.477H359.979C360.133 137.145 360.366 136.878 360.678 136.676C360.991 136.472 361.394 136.369 361.888 136.369C362.331 136.369 362.719 136.46 363.052 136.642C363.384 136.821 363.643 137.094 363.827 137.46C364.012 137.824 364.104 138.284 364.104 138.841V143H363.099V138.909C363.099 138.395 362.965 137.994 362.698 137.707C362.431 137.418 362.064 137.273 361.599 137.273C361.278 137.273 360.991 137.342 360.738 137.482C360.488 137.621 360.29 137.824 360.145 138.091C360.001 138.358 359.928 138.682 359.928 139.062ZM368.789 136.455V137.307H365.396V136.455H368.789ZM366.385 134.886H367.391V141.125C367.391 141.409 367.432 141.622 367.514 141.764C367.6 141.903 367.708 141.997 367.838 142.045C367.972 142.091 368.112 142.114 368.26 142.114C368.371 142.114 368.462 142.108 368.533 142.097C368.604 142.082 368.661 142.071 368.703 142.062L368.908 142.966C368.84 142.991 368.744 143.017 368.622 143.043C368.5 143.071 368.345 143.085 368.158 143.085C367.874 143.085 367.595 143.024 367.323 142.902C367.053 142.78 366.828 142.594 366.649 142.344C366.473 142.094 366.385 141.778 366.385 141.398V134.886Z" fill="white"/>
<path d="M187.5 113.5C186.948 113.5 186.5 113.948 186.5 114.5C186.5 115.052 186.948 115.5 187.5 115.5V113.5ZM327.207 115.207C327.598 114.817 327.598 114.183 327.207 113.793L320.843 107.429C320.453 107.038 319.819 107.038 319.429 107.429C319.038 107.819 319.038 108.453 319.429 108.843L325.086 114.5L319.429 120.157C319.038 120.547 319.038 121.181 319.429 121.571C319.819 121.962 320.453 121.962 320.843 121.571L327.207 115.207ZM190.396 115.5C190.948 115.5 191.396 115.052 191.396 114.5C191.396 113.948 190.948 113.5 190.396 113.5V115.5ZM196.188 113.5C195.635 113.5 195.188 113.948 195.188 114.5C195.188 115.052 195.635 115.5 196.188 115.5V113.5ZM201.979 115.5C202.531 115.5 202.979 115.052 202.979 114.5C202.979 113.948 202.531 113.5 201.979 113.5V115.5ZM207.771 113.5C207.219 113.5 206.771 113.948 206.771 114.5C206.771 115.052 207.219 115.5 207.771 115.5V113.5ZM213.562 115.5C214.115 115.5 214.562 115.052 214.562 114.5C214.562 113.948 214.115 113.5 213.562 113.5V115.5ZM219.354 113.5C218.802 113.5 218.354 113.948 218.354 114.5C218.354 115.052 218.802 115.5 219.354 115.5V113.5ZM225.146 115.5C225.698 115.5 226.146 115.052 226.146 114.5C226.146 113.948 225.698 113.5 225.146 113.5V115.5ZM230.938 113.5C230.385 113.5 229.938 113.948 229.938 114.5C229.938 115.052 230.385 115.5 230.938 115.5V113.5ZM236.729 115.5C237.281 115.5 237.729 115.052 237.729 114.5C237.729 113.948 237.281 113.5 236.729 113.5V115.5ZM242.521 113.5C241.969 113.5 241.521 113.948 241.521 114.5C241.521 115.052 241.969 115.5 242.521 115.5V113.5ZM248.313 115.5C248.865 115.5 249.313 115.052 249.313 114.5C249.313 113.948 248.865 113.5 248.313 113.5V115.5ZM254.104 113.5C253.552 113.5 253.104 113.948 253.104 114.5C253.104 115.052 253.552 115.5 254.104 115.5V113.5ZM259.896 115.5C260.448 115.5 260.896 115.052 260.896 114.5C260.896 113.948 260.448 113.5 259.896 113.5V115.5ZM265.688 113.5C265.135 113.5 264.688 113.948 264.688 114.5C264.688 115.052 265.135 115.5 265.688 115.5V113.5ZM271.479 115.5C272.031 115.5 272.479 115.052 272.479 114.5C272.479 113.948 272.031 113.5 271.479 113.5V115.5ZM277.271 113.5C276.719 113.5 276.271 113.948 276.271 114.5C276.271 115.052 276.719 115.5 277.271 115.5V113.5ZM283.062 115.5C283.615 115.5 284.062 115.052 284.062 114.5C284.062 113.948 283.615 113.5 283.062 113.5V115.5ZM288.854 113.5C288.302 113.5 287.854 113.948 287.854 114.5C287.854 115.052 288.302 115.5 288.854 115.5V113.5ZM294.646 115.5C295.198 115.5 295.646 115.052 295.646 114.5C295.646 113.948 295.198 113.5 294.646 113.5V115.5ZM300.437 113.5C299.885 113.5 299.437 113.948 299.437 114.5C299.437 115.052 299.885 115.5 300.437 115.5V113.5ZM306.229 115.5C306.781 115.5 307.229 115.052 307.229 114.5C307.229 113.948 306.781 113.5 306.229 113.5V115.5ZM312.021 113.5C311.469 113.5 311.021 113.948 311.021 114.5C311.021 115.052 311.469 115.5 312.021 115.5V113.5ZM317.812 115.5C318.365 115.5 318.812 115.052 318.812 114.5C318.812 113.948 318.365 113.5 317.812 113.5V115.5ZM323.604 113.5C323.052 113.5 322.604 113.948 322.604 114.5C322.604 115.052 323.052 115.5 323.604 115.5V113.5ZM187.5 115.5H190.396V113.5H187.5V115.5ZM196.188 115.5H201.979V113.5H196.188V115.5ZM207.771 115.5H213.562V113.5H207.771V115.5ZM219.354 115.5H225.146V113.5H219.354V115.5ZM230.938 115.5H236.729V113.5H230.938V115.5ZM242.521 115.5H248.313V113.5H242.521V115.5ZM254.104 115.5H259.896V113.5H254.104V115.5ZM265.688 115.5H271.479V113.5H265.688V115.5ZM277.271 115.5H283.062V113.5H277.271V115.5ZM288.854 115.5H294.646V113.5H288.854V115.5ZM300.437 115.5H306.229V113.5H300.437V115.5ZM312.021 115.5H317.812V113.5H312.021V115.5ZM323.604 115.5H326.5V113.5H323.604V115.5Z" fill="white"/>
<path d="M381.5 113.5C380.948 113.5 380.5 113.948 380.5 114.5C380.5 115.052 380.948 115.5 381.5 115.5V113.5ZM440.207 73.7071C440.598 73.3166 440.598 72.6834 440.207 72.2929L433.843 65.9289C433.453 65.5384 432.819 65.5384 432.429 65.9289C432.038 66.3195 432.038 66.9526 432.429 67.3431L438.086 73L432.429 78.6569C432.038 79.0474 432.038 79.6805 432.429 80.0711C432.819 80.4616 433.453 80.4616 433.843 80.0711L440.207 73.7071ZM409.5 93.75C409.5 94.3023 409.948 94.75 410.5 94.75C411.052 94.75 411.5 94.3023 411.5 93.75H409.5ZM411.5 93.75C411.5 93.1977 411.052 92.75 410.5 92.75C409.948 92.75 409.5 93.1977 409.5 93.75H411.5ZM383.562 115.5C384.115 115.5 384.562 115.052 384.562 114.5C384.562 113.948 384.115 113.5 383.562 113.5V115.5ZM387.687 113.5C387.135 113.5 386.687 113.948 386.687 114.5C386.687 115.052 387.135 115.5 387.687 115.5V113.5ZM392.589 115.316C393.137 115.245 393.523 114.743 393.452 114.195C393.38 113.648 392.878 113.262 392.331 113.333L392.589 115.316ZM397.31 112.002C396.8 112.213 396.558 112.798 396.769 113.309C396.981 113.819 397.566 114.061 398.076 113.849L397.31 112.002ZM402.992 111.006C403.43 110.669 403.512 110.042 403.175 109.604C402.839 109.166 402.211 109.084 401.773 109.42L402.992 111.006ZM405.42 105.773C405.084 106.211 405.166 106.839 405.604 107.175C406.042 107.512 406.669 107.43 407.006 106.992L405.42 105.773ZM409.849 102.076C410.061 101.566 409.819 100.981 409.309 100.769C408.798 100.558 408.213 100.8 408.002 101.31L409.849 102.076ZM409.333 96.3308C409.262 96.8784 409.648 97.3803 410.195 97.4517C410.743 97.5232 411.245 97.1371 411.316 96.5895L409.333 96.3308ZM411.667 91.1692C411.738 90.6216 411.352 90.1197 410.805 90.0483C410.257 89.9768 409.755 90.3629 409.684 90.9105L411.667 91.1692ZM411.151 85.4241C410.939 85.9343 411.181 86.5193 411.691 86.7309C412.202 86.9424 412.787 86.7004 412.998 86.1902L411.151 85.4241ZM415.58 81.7271C415.916 81.2891 415.834 80.6613 415.396 80.3248C414.958 79.9883 414.331 80.0705 413.994 80.5084L415.58 81.7271ZM418.008 76.494C417.57 76.8306 417.488 77.4584 417.825 77.8963C418.161 78.3342 418.789 78.4164 419.227 78.0799L418.008 76.494ZM423.69 75.4982C424.2 75.2867 424.442 74.7016 424.231 74.1915C424.019 73.6813 423.434 73.4392 422.924 73.6508L423.69 75.4982ZM428.411 72.1838C427.863 72.2552 427.477 72.7571 427.548 73.3047C427.62 73.8524 428.122 74.2384 428.669 74.167L428.411 72.1838ZM433.312 74C433.865 74 434.312 73.5523 434.312 73C434.312 72.4477 433.865 72 433.312 72V74ZM437.437 72C436.885 72 436.437 72.4477 436.437 73C436.437 73.5523 436.885 74 437.437 74V72ZM381.5 115.5H383.562V113.5H381.5V115.5ZM387.687 115.5H389.75V113.5H387.687V115.5ZM389.75 115.5C390.712 115.5 391.66 115.437 392.589 115.316L392.331 113.333C391.487 113.443 390.625 113.5 389.75 113.5V115.5ZM398.076 113.849C399.845 113.116 401.495 112.156 402.992 111.006L401.773 109.42C400.414 110.465 398.915 111.336 397.31 112.002L398.076 113.849ZM407.006 106.992C408.156 105.495 409.116 103.845 409.849 102.076L408.002 101.31C407.336 102.915 406.465 104.414 405.42 105.773L407.006 106.992ZM411.316 96.5895C411.437 95.6597 411.5 94.7119 411.5 93.75H409.5C409.5 94.6252 409.443 95.4866 409.333 96.3308L411.316 96.5895ZM411.5 93.75C411.5 92.8748 411.557 92.0134 411.667 91.1692L409.684 90.9105C409.563 91.8403 409.5 92.7881 409.5 93.75H411.5ZM412.998 86.1902C413.664 84.5851 414.535 83.0864 415.58 81.7271L413.994 80.5084C412.844 82.0047 411.884 83.6553 411.151 85.4241L412.998 86.1902ZM419.227 78.0799C420.586 77.0353 422.085 76.1638 423.69 75.4982L422.924 73.6508C421.155 74.3843 419.505 75.3442 418.008 76.494L419.227 78.0799ZM428.669 74.167C429.513 74.0569 430.375 74 431.25 74V72C430.288 72 429.34 72.0625 428.411 72.1838L428.669 74.167ZM431.25 74H433.312V72H431.25V74ZM437.437 74H439.5V72H437.437V74Z" fill="white"/>
<path d="M327.207 115.207C327.598 114.817 327.598 114.183 327.207 113.793L320.843 107.429C320.453 107.038 319.819 107.038 319.429 107.429C319.038 107.819 319.038 108.453 319.429 108.843L325.086 114.5L319.429 120.157C319.038 120.547 319.038 121.181 319.429 121.571C319.819 121.962 320.453 121.962 320.843 121.571L327.207 115.207ZM261 94.75C261 94.1977 260.552 93.75 260 93.75C259.448 93.75 259 94.1977 259 94.75H261ZM259 94.75C259 95.3023 259.448 95.75 260 95.75C260.552 95.75 261 95.3023 261 94.75H259ZM355 66.5C355 65.9477 354.552 65.5 354 65.5C353.448 65.5 353 65.9477 353 66.5H355ZM323.578 113.5C323.026 113.5 322.578 113.948 322.578 114.5C322.578 115.052 323.026 115.5 323.578 115.5V113.5ZM317.734 115.5C318.287 115.5 318.734 115.052 318.734 114.5C318.734 113.948 318.287 113.5 317.734 113.5V115.5ZM311.891 113.5C311.338 113.5 310.891 113.948 310.891 114.5C310.891 115.052 311.338 115.5 311.891 115.5V113.5ZM306.047 115.5C306.599 115.5 307.047 115.052 307.047 114.5C307.047 113.948 306.599 113.5 306.047 113.5V115.5ZM300.203 113.5C299.651 113.5 299.203 113.948 299.203 114.5C299.203 115.052 299.651 115.5 300.203 115.5V113.5ZM294.359 115.5C294.912 115.5 295.359 115.052 295.359 114.5C295.359 113.948 294.912 113.5 294.359 113.5V115.5ZM288.516 113.5C287.963 113.5 287.516 113.948 287.516 114.5C287.516 115.052 287.963 115.5 288.516 115.5V113.5ZM282.672 115.5C283.224 115.5 283.672 115.052 283.672 114.5C283.672 113.948 283.224 113.5 282.672 113.5V115.5ZM277.3 113.341C276.752 113.27 276.25 113.656 276.179 114.204C276.107 114.751 276.493 115.253 277.041 115.325L277.3 113.341ZM271.807 113.925C272.317 114.137 272.902 113.895 273.114 113.384C273.325 112.874 273.083 112.289 272.573 112.078L271.807 113.925ZM268.336 109.627C267.898 109.29 267.27 109.372 266.934 109.81C266.597 110.248 266.679 110.876 267.117 111.213L268.336 109.627ZM263.287 107.383C263.624 107.821 264.252 107.903 264.69 107.566C265.128 107.23 265.21 106.602 264.873 106.164L263.287 107.383ZM262.422 101.927C262.211 101.417 261.626 101.175 261.116 101.386C260.605 101.598 260.363 102.183 260.575 102.693L262.422 101.927ZM259.175 97.4589C259.247 98.0065 259.749 98.3926 260.296 98.3211C260.844 98.2497 261.23 97.7478 261.159 97.2002L259.175 97.4589ZM261.159 92.2998C261.23 91.7522 260.844 91.2503 260.296 91.1789C259.749 91.1074 259.247 91.4935 259.175 92.0411L261.159 92.2998ZM260.575 86.8069C260.363 87.317 260.605 87.9021 261.116 88.1137C261.626 88.3252 262.211 88.0832 262.422 87.573L260.575 86.8069ZM264.873 83.3358C265.21 82.8979 265.128 82.2701 264.69 81.9336C264.252 81.5971 263.624 81.6793 263.287 82.1172L264.873 83.3358ZM267.117 78.2874C266.679 78.624 266.597 79.2518 266.934 79.6897C267.27 80.1276 267.898 80.2098 268.336 79.8733L267.117 78.2874ZM272.573 77.4224C273.083 77.2108 273.325 76.6257 273.114 76.1156C272.902 75.6054 272.317 75.3634 271.807 75.5749L272.573 77.4224ZM277.041 74.1753C276.493 74.2468 276.107 74.7486 276.179 75.2963C276.25 75.8439 276.752 76.23 277.3 76.1585L277.041 74.1753ZM283.037 76C283.59 76 284.037 75.5523 284.037 75C284.037 74.4477 283.59 74 283.037 74V76ZM289.612 74C289.06 74 288.612 74.4477 288.612 75C288.612 75.5523 289.06 76 289.612 76V74ZM296.187 76C296.74 76 297.187 75.5523 297.187 75C297.187 74.4477 296.74 74 296.187 74V76ZM302.763 74C302.21 74 301.763 74.4477 301.763 75C301.763 75.5523 302.21 76 302.763 76V74ZM309.338 76C309.89 76 310.338 75.5523 310.338 75C310.338 74.4477 309.89 74 309.338 74V76ZM315.913 74C315.36 74 314.913 74.4477 314.913 75C314.913 75.5523 315.36 76 315.913 76V74ZM322.488 76C323.04 76 323.488 75.5523 323.488 75C323.488 74.4477 323.04 74 322.488 74V76ZM329.063 74C328.51 74 328.063 74.4477 328.063 75C328.063 75.5523 328.51 76 329.063 76V74ZM335.638 76C336.19 76 336.638 75.5523 336.638 75C336.638 74.4477 336.19 74 335.638 74V76ZM342.213 74C341.66 74 341.213 74.4477 341.213 75C341.213 75.5523 341.66 76 342.213 76V74ZM349.137 75.2787C349.647 75.0672 349.889 74.4821 349.677 73.972C349.466 73.4618 348.881 73.2197 348.371 73.4313L349.137 75.2787ZM352.431 69.3706C352.22 69.8808 352.462 70.4659 352.972 70.6774C353.482 70.889 354.067 70.6469 354.279 70.1368L352.431 69.3706ZM326.5 113.5H323.578V115.5H326.5V113.5ZM317.734 113.5H311.891V115.5H317.734V113.5ZM306.047 113.5H300.203V115.5H306.047V113.5ZM294.359 113.5H288.516V115.5H294.359V113.5ZM282.672 113.5H279.75V115.5H282.672V113.5ZM279.75 113.5C278.919 113.5 278.101 113.446 277.3 113.341L277.041 115.325C277.928 115.44 278.832 115.5 279.75 115.5V113.5ZM272.573 112.078C271.049 111.446 269.626 110.618 268.336 109.627L267.117 111.213C268.545 112.31 270.119 113.225 271.807 113.925L272.573 112.078ZM264.873 106.164C263.882 104.874 263.054 103.451 262.422 101.927L260.575 102.693C261.275 104.381 262.19 105.955 263.287 107.383L264.873 106.164ZM261.159 97.2002C261.054 96.3987 261 95.5809 261 94.75H259C259 95.6676 259.06 96.5719 259.175 97.4589L261.159 97.2002ZM261 94.75C261 93.9191 261.054 93.1013 261.159 92.2998L259.175 92.0411C259.06 92.9281 259 93.8324 259 94.75H261ZM262.422 87.573C263.054 86.0492 263.882 84.6264 264.873 83.3358L263.287 82.1172C262.19 83.5447 261.275 85.1194 260.575 86.8069L262.422 87.573ZM268.336 79.8733C269.626 78.8816 271.049 78.0543 272.573 77.4224L271.807 75.5749C270.119 76.2747 268.545 77.1904 267.117 78.2874L268.336 79.8733ZM277.3 76.1585C278.101 76.054 278.919 76 279.75 76V74C278.832 74 277.928 74.0596 277.041 74.1753L277.3 76.1585ZM279.75 76H283.037V74H279.75V76ZM289.612 76H296.187V74H289.612V76ZM302.763 76H309.338V74H302.763V76ZM315.913 76H322.488V74H315.913V76ZM329.063 76H335.638V74H329.063V76ZM342.213 76H345.5V74H342.213V76ZM345.5 76C346.786 76 348.015 75.7438 349.137 75.2787L348.371 73.4313C347.488 73.7974 346.519 74 345.5 74V76ZM354.279 70.1368C354.744 69.0152 355 67.7863 355 66.5H353C353 67.5188 352.797 68.4877 352.431 69.3706L354.279 70.1368Z" fill="white"/>
</svg>
