<svg width="516" height="146" viewBox="0 0 516 146" fill="none" xmlns="http://www.w3.org/2000/svg">
<path d="M345 3C343.409 3 341.883 3.63214 340.757 4.75736C339.632 5.88258 339 7.4087 339 9V39C339 40.5913 339.632 42.1174 340.757 43.2426C341.883 44.3679 343.409 45 345 45H363C364.591 45 366.117 44.3679 367.243 43.2426C368.368 42.1174 369 40.5913 369 39V16.242C368.999 15.0489 368.524 13.9051 367.68 13.062L358.941 4.317C358.523 3.8992 358.027 3.56785 357.481 3.34188C356.934 3.1159 356.349 2.99973 355.758 3H345ZM342 9C342 8.20435 342.316 7.44129 342.879 6.87868C343.441 6.31607 344.204 6 345 6H354V13.5C354 14.6935 354.474 15.8381 355.318 16.682C356.162 17.5259 357.307 18 358.5 18H366V39C366 39.7956 365.684 40.5587 365.121 41.1213C364.559 41.6839 363.796 42 363 42H345C344.204 42 343.441 41.6839 342.879 41.1213C342.316 40.5587 342 39.7956 342 39V9ZM365.379 15H358.5C358.102 15 357.721 14.842 357.439 14.5607C357.158 14.2794 357 13.8978 357 13.5V6.621L365.379 15Z" fill="white"/>
<path d="M338.053 60V51.2727H339.11V55.1591H343.763V51.2727H344.82V60H343.763V56.0966H339.11V60H338.053ZM346.458 52.2102V51.2727H353.004V52.2102H350.26V60H349.203V52.2102H346.458ZM354.635 51.2727H355.896L358.862 58.517H358.964L361.93 51.2727H363.192V60H362.203V53.3693H362.118L359.391 60H358.436L355.709 53.3693H355.624V60H354.635V51.2727ZM365.311 60V51.2727H366.368V59.0625H370.424V60H365.311Z" fill="white"/>
<path fill-rule="evenodd" clip-rule="evenodd" d="M235.5 10C235.5 8.01088 236.29 6.10322 237.697 4.6967C239.103 3.29018 241.011 2.5 243 2.5H271C272.574 2.5 274.108 2.99528 275.385 3.91568C276.662 4.83609 277.617 6.13495 278.115 7.62829C278.613 9.12163 278.628 10.7337 278.159 12.2363C277.69 13.7388 276.759 15.0555 275.5 16C276.759 16.9445 277.69 18.2612 278.159 19.7637C278.628 21.2663 278.613 22.8784 278.115 24.3717C277.617 25.865 276.662 27.1639 275.385 28.0843C274.108 29.0047 272.574 29.5 271 29.5H258.5V32.708C260.332 33.226 261.774 34.668 262.292 36.5H277C277.398 36.5 277.779 36.658 278.061 36.9393C278.342 37.2206 278.5 37.6022 278.5 38C278.5 38.3978 278.342 38.7794 278.061 39.0607C277.779 39.342 277.398 39.5 277 39.5H262.294C261.967 40.6518 261.273 41.6656 260.318 42.3875C259.363 43.1094 258.198 43.5 257.001 43.5C255.804 43.5 254.639 43.1094 253.684 42.3875C252.729 41.6656 252.035 40.6518 251.708 39.5H237C236.602 39.5 236.221 39.342 235.939 39.0607C235.658 38.7794 235.5 38.3978 235.5 38C235.5 37.6022 235.658 37.2206 235.939 36.9393C236.221 36.658 236.602 36.5 237 36.5H251.708C251.966 35.5977 252.449 34.7761 253.113 34.1126C253.776 33.4491 254.598 32.9657 255.5 32.708V29.5H243C241.426 29.5 239.892 29.0047 238.615 28.0843C237.338 27.1639 236.383 25.865 235.885 24.3717C235.387 22.8784 235.372 21.2663 235.841 19.7637C236.311 18.2612 237.241 16.9445 238.5 16C237.567 15.3025 236.811 14.3968 236.29 13.3552C235.769 12.3135 235.498 11.1646 235.5 10ZM243 14.5C241.807 14.5 240.662 14.0259 239.818 13.182C238.974 12.3381 238.5 11.1935 238.5 10C238.5 8.80653 238.974 7.66193 239.818 6.81802C240.662 5.97411 241.807 5.5 243 5.5H271C272.193 5.5 273.338 5.97411 274.182 6.81802C275.026 7.66193 275.5 8.80653 275.5 10C275.5 11.1935 275.026 12.3381 274.182 13.182C273.338 14.0259 272.193 14.5 271 14.5H243ZM271 17.5H243C241.807 17.5 240.662 17.9741 239.818 18.818C238.974 19.6619 238.5 20.8065 238.5 22C238.5 23.1935 238.974 24.3381 239.818 25.182C240.662 26.0259 241.807 26.5 243 26.5H271C272.193 26.5 273.338 26.0259 274.182 25.182C275.026 24.3381 275.5 23.1935 275.5 22C275.5 20.8065 275.026 19.6619 274.182 18.818C273.338 17.9741 272.193 17.5 271 17.5ZM257.5 10C257.5 9.60218 257.658 9.22064 257.939 8.93934C258.221 8.65804 258.602 8.5 259 8.5H271C271.398 8.5 271.779 8.65804 272.061 8.93934C272.342 9.22064 272.5 9.60218 272.5 10C272.5 10.3978 272.342 10.7794 272.061 11.0607C271.779 11.342 271.398 11.5 271 11.5H259C258.602 11.5 258.221 11.342 257.939 11.0607C257.658 10.7794 257.5 10.3978 257.5 10ZM257.5 22C257.5 21.6022 257.658 21.2206 257.939 20.9393C258.221 20.658 258.602 20.5 259 20.5H271C271.398 20.5 271.779 20.658 272.061 20.9393C272.342 21.2206 272.5 21.6022 272.5 22C272.5 22.3978 272.342 22.7794 272.061 23.0607C271.779 23.342 271.398 23.5 271 23.5H259C258.602 23.5 258.221 23.342 257.939 23.0607C257.658 22.7794 257.5 22.3978 257.5 22ZM257 35.5C256.672 35.5 256.347 35.5647 256.043 35.6903C255.74 35.8159 255.464 36.0001 255.232 36.2322C255 36.4644 254.816 36.74 254.69 37.0433C254.565 37.3466 254.5 37.6717 254.5 38C254.5 38.3283 254.565 38.6534 254.69 38.9567C254.816 39.26 255 39.5356 255.232 39.7678C255.464 39.9999 255.74 40.1841 256.043 40.3097C256.347 40.4353 256.672 40.5 257 40.5C257.663 40.5 258.299 40.2366 258.768 39.7678C259.237 39.2989 259.5 38.663 259.5 38C259.5 37.337 259.237 36.7011 258.768 36.2322C258.299 35.7634 257.663 35.5 257 35.5Z" fill="white"/>
<path d="M247 10C247 10.5304 246.789 11.0391 246.414 11.4142C246.039 11.7893 245.53 12 245 12C244.47 12 243.961 11.7893 243.586 11.4142C243.211 11.0391 243 10.5304 243 10C243 9.46957 243.211 8.96086 243.586 8.58579C243.961 8.21071 244.47 8 245 8C245.53 8 246.039 8.21071 246.414 8.58579C246.789 8.96086 247 9.46957 247 10ZM247 22C247 22.5304 246.789 23.0391 246.414 23.4142C246.039 23.7893 245.53 24 245 24C244.47 24 243.961 23.7893 243.586 23.4142C243.211 23.0391 243 22.5304 243 22C243 21.4696 243.211 20.9609 243.586 20.5858C243.961 20.2107 244.47 20 245 20C245.53 20 246.039 20.2107 246.414 20.5858C246.789 20.9609 247 21.4696 247 22Z" fill="white"/>
<path d="M244.651 54.9205L243.747 55.1761C243.69 55.0256 243.607 54.8793 243.496 54.7372C243.388 54.5923 243.24 54.473 243.053 54.3793C242.865 54.2855 242.625 54.2386 242.332 54.2386C241.932 54.2386 241.598 54.331 241.331 54.5156C241.067 54.6974 240.935 54.929 240.935 55.2102C240.935 55.4602 241.026 55.6577 241.207 55.8026C241.389 55.9474 241.673 56.0682 242.06 56.1648L243.031 56.4034C243.616 56.5455 244.053 56.7628 244.339 57.0554C244.626 57.3452 244.77 57.7187 244.77 58.1761C244.77 58.5511 244.662 58.8864 244.446 59.1818C244.233 59.4773 243.935 59.7102 243.551 59.8807C243.168 60.0511 242.722 60.1364 242.213 60.1364C241.545 60.1364 240.993 59.9915 240.555 59.7017C240.118 59.4119 239.841 58.9886 239.724 58.4318L240.679 58.1932C240.77 58.5455 240.942 58.8097 241.195 58.9858C241.45 59.1619 241.784 59.25 242.196 59.25C242.665 59.25 243.037 59.1506 243.312 58.9517C243.591 58.75 243.73 58.5085 243.73 58.2273C243.73 58 243.651 57.8097 243.491 57.6562C243.332 57.5 243.088 57.3835 242.759 57.3068L241.668 57.0511C241.068 56.9091 240.628 56.6889 240.347 56.3906C240.068 56.0895 239.929 55.7131 239.929 55.2614C239.929 54.892 240.033 54.5653 240.24 54.2812C240.45 53.9972 240.736 53.7741 241.097 53.6122C241.46 53.4503 241.872 53.3693 242.332 53.3693C242.98 53.3693 243.489 53.5114 243.858 53.7955C244.23 54.0795 244.494 54.4545 244.651 54.9205ZM249.028 60.1364C248.397 60.1364 247.853 59.9972 247.396 59.7188C246.941 59.4375 246.591 59.0455 246.343 58.5426C246.099 58.0369 245.977 57.4489 245.977 56.7784C245.977 56.108 246.099 55.517 246.343 55.0057C246.591 54.4915 246.934 54.0909 247.375 53.804C247.818 53.5142 248.335 53.3693 248.926 53.3693C249.267 53.3693 249.603 53.4261 249.936 53.5398C250.268 53.6534 250.571 53.8381 250.843 54.0938C251.116 54.3466 251.333 54.6818 251.495 55.0994C251.657 55.517 251.738 56.0312 251.738 56.642V57.0682H246.693V56.1989H250.716C250.716 55.8295 250.642 55.5 250.494 55.2102C250.349 54.9205 250.142 54.6918 249.872 54.5241C249.605 54.3565 249.289 54.2727 248.926 54.2727C248.525 54.2727 248.179 54.3722 247.886 54.571C247.596 54.767 247.373 55.0227 247.217 55.3381C247.061 55.6534 246.983 55.9915 246.983 56.3523V56.9318C246.983 57.4261 247.068 57.8452 247.238 58.1889C247.412 58.5298 247.652 58.7898 247.958 58.9688C248.265 59.1449 248.622 59.233 249.028 59.233C249.292 59.233 249.531 59.196 249.744 59.1222C249.96 59.0455 250.146 58.9318 250.302 58.7812C250.458 58.6278 250.579 58.4375 250.664 58.2102L251.636 58.483C251.534 58.8125 251.362 59.1023 251.12 59.3523C250.879 59.5994 250.581 59.7926 250.225 59.9318C249.87 60.0682 249.471 60.1364 249.028 60.1364ZM253.268 60V53.4545H254.24V54.4432H254.308C254.427 54.1193 254.643 53.8565 254.956 53.6548C255.268 53.4531 255.62 53.3523 256.012 53.3523C256.086 53.3523 256.179 53.3537 256.289 53.3565C256.4 53.3594 256.484 53.3636 256.541 53.3693V54.392C256.507 54.3835 256.429 54.3707 256.306 54.3537C256.187 54.3338 256.061 54.3239 255.927 54.3239C255.609 54.3239 255.325 54.3906 255.075 54.5241C254.828 54.6548 254.632 54.8366 254.487 55.0696C254.345 55.2997 254.274 55.5625 254.274 55.858V60H253.268ZM263.284 53.4545L260.864 60H259.841L257.421 53.4545H258.512L260.319 58.6705H260.387L262.194 53.4545H263.284ZM267.122 60.1364C266.491 60.1364 265.947 59.9972 265.49 59.7188C265.035 59.4375 264.684 59.0455 264.437 58.5426C264.193 58.0369 264.071 57.4489 264.071 56.7784C264.071 56.108 264.193 55.517 264.437 55.0057C264.684 54.4915 265.028 54.0909 265.468 53.804C265.912 53.5142 266.429 53.3693 267.02 53.3693C267.36 53.3693 267.697 53.4261 268.029 53.5398C268.362 53.6534 268.664 53.8381 268.937 54.0938C269.21 54.3466 269.427 54.6818 269.589 55.0994C269.751 55.517 269.832 56.0312 269.832 56.642V57.0682H264.787V56.1989H268.809C268.809 55.8295 268.735 55.5 268.588 55.2102C268.443 54.9205 268.235 54.6918 267.966 54.5241C267.699 54.3565 267.383 54.2727 267.02 54.2727C266.619 54.2727 266.272 54.3722 265.98 54.571C265.69 54.767 265.467 55.0227 265.311 55.3381C265.154 55.6534 265.076 55.9915 265.076 56.3523V56.9318C265.076 57.4261 265.162 57.8452 265.332 58.1889C265.505 58.5298 265.745 58.7898 266.052 58.9688C266.359 59.1449 266.716 59.233 267.122 59.233C267.386 59.233 267.625 59.196 267.838 59.1222C268.054 59.0455 268.24 58.9318 268.396 58.7812C268.552 58.6278 268.673 58.4375 268.758 58.2102L269.73 58.483C269.627 58.8125 269.456 59.1023 269.214 59.3523C268.973 59.5994 268.674 59.7926 268.319 59.9318C267.964 60.0682 267.565 60.1364 267.122 60.1364ZM271.362 60V53.4545H272.333V54.4432H272.402C272.521 54.1193 272.737 53.8565 273.049 53.6548C273.362 53.4531 273.714 53.3523 274.106 53.3523C274.18 53.3523 274.272 53.3537 274.383 53.3565C274.494 53.3594 274.578 53.3636 274.635 53.3693V54.392C274.6 54.3835 274.522 54.3707 274.4 54.3537C274.281 54.3338 274.154 54.3239 274.021 54.3239C273.703 54.3239 273.419 54.3906 273.169 54.5241C272.922 54.6548 272.725 54.8366 272.581 55.0696C272.439 55.2997 272.368 55.5625 272.368 55.858V60H271.362Z" fill="white"/>
<path d="M187.5 30.5C186.948 30.5 186.5 30.9477 186.5 31.5C186.5 32.0523 186.948 32.5 187.5 32.5V30.5ZM230.207 32.2071C230.598 31.8166 230.598 31.1834 230.207 30.7929L223.843 24.4289C223.453 24.0384 222.819 24.0384 222.429 24.4289C222.038 24.8195 222.038 25.4526 222.429 25.8431L228.086 31.5L222.429 37.1569C222.038 37.5474 222.038 38.1805 222.429 38.5711C222.819 38.9616 223.453 38.9616 223.843 38.5711L230.207 32.2071ZM190.125 32.5C190.677 32.5 191.125 32.0523 191.125 31.5C191.125 30.9477 190.677 30.5 190.125 30.5V32.5ZM195.375 30.5C194.823 30.5 194.375 30.9477 194.375 31.5C194.375 32.0523 194.823 32.5 195.375 32.5V30.5ZM200.625 32.5C201.177 32.5 201.625 32.0523 201.625 31.5C201.625 30.9477 201.177 30.5 200.625 30.5V32.5ZM205.875 30.5C205.323 30.5 204.875 30.9477 204.875 31.5C204.875 32.0523 205.323 32.5 205.875 32.5V30.5ZM211.125 32.5C211.677 32.5 212.125 32.0523 212.125 31.5C212.125 30.9477 211.677 30.5 211.125 30.5V32.5ZM216.375 30.5C215.823 30.5 215.375 30.9477 215.375 31.5C215.375 32.0523 215.823 32.5 216.375 32.5V30.5ZM221.625 32.5C222.177 32.5 222.625 32.0523 222.625 31.5C222.625 30.9477 222.177 30.5 221.625 30.5V32.5ZM226.875 30.5C226.323 30.5 225.875 30.9477 225.875 31.5C225.875 32.0523 226.323 32.5 226.875 32.5V30.5ZM187.5 32.5H190.125V30.5H187.5V32.5ZM195.375 32.5H200.625V30.5H195.375V32.5ZM205.875 32.5H211.125V30.5H205.875V32.5ZM216.375 32.5H221.625V30.5H216.375V32.5ZM226.875 32.5H229.5V30.5H226.875V32.5Z" fill="white"/>
<path d="M284.5 30.5C283.948 30.5 283.5 30.9477 283.5 31.5C283.5 32.0523 283.948 32.5 284.5 32.5V30.5ZM327.207 32.2071C327.598 31.8166 327.598 31.1834 327.207 30.7929L320.843 24.4289C320.453 24.0384 319.819 24.0384 319.429 24.4289C319.038 24.8195 319.038 25.4526 319.429 25.8431L325.086 31.5L319.429 37.1569C319.038 37.5474 319.038 38.1805 319.429 38.5711C319.819 38.9616 320.453 38.9616 320.843 38.5711L327.207 32.2071ZM287.125 32.5C287.677 32.5 288.125 32.0523 288.125 31.5C288.125 30.9477 287.677 30.5 287.125 30.5V32.5ZM292.375 30.5C291.823 30.5 291.375 30.9477 291.375 31.5C291.375 32.0523 291.823 32.5 292.375 32.5V30.5ZM297.625 32.5C298.177 32.5 298.625 32.0523 298.625 31.5C298.625 30.9477 298.177 30.5 297.625 30.5V32.5ZM302.875 30.5C302.323 30.5 301.875 30.9477 301.875 31.5C301.875 32.0523 302.323 32.5 302.875 32.5V30.5ZM308.125 32.5C308.677 32.5 309.125 32.0523 309.125 31.5C309.125 30.9477 308.677 30.5 308.125 30.5V32.5ZM313.375 30.5C312.823 30.5 312.375 30.9477 312.375 31.5C312.375 32.0523 312.823 32.5 313.375 32.5V30.5ZM318.625 32.5C319.177 32.5 319.625 32.0523 319.625 31.5C319.625 30.9477 319.177 30.5 318.625 30.5V32.5ZM323.875 30.5C323.323 30.5 322.875 30.9477 322.875 31.5C322.875 32.0523 323.323 32.5 323.875 32.5V30.5ZM284.5 32.5H287.125V30.5H284.5V32.5ZM292.375 32.5H297.625V30.5H292.375V32.5ZM302.875 32.5H308.125V30.5H302.875V32.5ZM313.375 32.5H318.625V30.5H313.375V32.5ZM323.875 32.5H326.5V30.5H323.875V32.5Z" fill="white"/>
</svg>
