<svg width="97" height="316" viewBox="0 0 97 316" fill="none" xmlns="http://www.w3.org/2000/svg">
<path d="M39.5 3C37.9087 3 36.3826 3.63214 35.2574 4.75736C34.1321 5.88258 33.5 7.4087 33.5 9V39C33.5 40.5913 34.1321 42.1174 35.2574 43.2426C36.3826 44.3679 37.9087 45 39.5 45H57.5C59.0913 45 60.6174 44.3679 61.7426 43.2426C62.8679 42.1174 63.5 40.5913 63.5 39V16.242C63.4989 15.0489 63.0242 13.9051 62.18 13.062L53.441 4.317C53.0229 3.8992 52.5267 3.56785 51.9805 3.34188C51.4344 3.1159 50.8491 2.99973 50.258 3H39.5ZM36.5 9C36.5 8.20435 36.8161 7.44129 37.3787 6.87868C37.9413 6.31607 38.7044 6 39.5 6H48.5V13.5C48.5 14.6935 48.9741 15.8381 49.818 16.682C50.6619 17.5259 51.8065 18 53 18H60.5V39C60.5 39.7956 60.1839 40.5587 59.6213 41.1213C59.0587 41.6839 58.2956 42 57.5 42H39.5C38.7044 42 37.9413 41.6839 37.3787 41.1213C36.8161 40.5587 36.5 39.7956 36.5 39V9ZM59.879 15H53C52.6022 15 52.2206 14.842 51.9393 14.5607C51.658 14.2794 51.5 13.8978 51.5 13.5V6.621L59.879 15Z" fill="white"/>
<path d="M32.5529 60V51.2727H33.6097V55.1591H38.2631V51.2727H39.32V60H38.2631V56.0966H33.6097V60H32.5529ZM40.9585 52.2102V51.2727H47.5039V52.2102H44.7596V60H43.7028V52.2102H40.9585ZM49.1349 51.2727H50.3963L53.3622 58.517H53.4645L56.4304 51.2727H57.6918V60H56.7031V53.3693H56.6179L53.8906 60H52.9361L50.2088 53.3693H50.1236V60H49.1349V51.2727ZM59.8107 60V51.2727H60.8675V59.0625H64.9244V60H59.8107Z" fill="white"/>
<path d="M49.5 70C49.5 69.4477 49.0523 69 48.5 69C47.9477 69 47.5 69.4477 47.5 70H49.5ZM47.7929 136.707C48.1834 137.098 48.8166 137.098 49.2071 136.707L55.5711 130.343C55.9616 129.953 55.9616 129.319 55.5711 128.929C55.1805 128.538 54.5474 128.538 54.1569 128.929L48.5 134.586L42.8431 128.929C42.4526 128.538 41.8195 128.538 41.4289 128.929C41.0384 129.319 41.0384 129.953 41.4289 130.343L47.7929 136.707ZM47.5 70L47.5 136H49.5L49.5 70H47.5Z" fill="white"/>
<path d="M15.5 146C13.9087 146 12.3826 146.632 11.2574 147.757C10.1321 148.883 9.5 150.409 9.5 152V182C9.5 183.591 10.1321 185.117 11.2574 186.243C12.3826 187.368 13.9087 188 15.5 188H33.5C35.0913 188 36.6174 187.368 37.7426 186.243C38.8679 185.117 39.5 183.591 39.5 182V159.242C39.4989 158.049 39.0242 156.905 38.18 156.062L29.441 147.317C29.0229 146.899 28.5267 146.568 27.9805 146.342C27.4344 146.116 26.8491 146 26.258 146H15.5ZM12.5 152C12.5 151.204 12.8161 150.441 13.3787 149.879C13.9413 149.316 14.7044 149 15.5 149H24.5V156.5C24.5 157.693 24.9741 158.838 25.818 159.682C26.6619 160.526 27.8065 161 29 161H36.5V182C36.5 182.796 36.1839 183.559 35.6213 184.121C35.0587 184.684 34.2956 185 33.5 185H15.5C14.7044 185 13.9413 184.684 13.3787 184.121C12.8161 183.559 12.5 182.796 12.5 182V152ZM35.879 158H29C28.6022 158 28.2206 157.842 27.9393 157.561C27.658 157.279 27.5 156.898 27.5 156.5V149.621L35.879 158Z" fill="white"/>
<path d="M20.562 197H19.5051C19.4426 196.696 19.3333 196.429 19.177 196.199C19.0236 195.969 18.8361 195.776 18.6145 195.619C18.3958 195.46 18.1529 195.341 17.8858 195.261C17.6188 195.182 17.3404 195.142 17.0506 195.142C16.5222 195.142 16.0435 195.276 15.6145 195.543C15.1884 195.81 14.8489 196.203 14.5961 196.723C14.3461 197.243 14.2211 197.881 14.2211 198.636C14.2211 199.392 14.3461 200.03 14.5961 200.55C14.8489 201.07 15.1884 201.463 15.6145 201.73C16.0435 201.997 16.5222 202.131 17.0506 202.131C17.3404 202.131 17.6188 202.091 17.8858 202.011C18.1529 201.932 18.3958 201.814 18.6145 201.658C18.8361 201.499 19.0236 201.304 19.177 201.074C19.3333 200.841 19.4426 200.574 19.5051 200.273H20.562C20.4824 200.719 20.3375 201.118 20.1273 201.47C19.9171 201.822 19.6557 202.122 19.3432 202.369C19.0307 202.614 18.6799 202.8 18.2907 202.928C17.9043 203.055 17.4909 203.119 17.0506 203.119C16.3063 203.119 15.6444 202.938 15.0648 202.574C14.4853 202.21 14.0293 201.693 13.6969 201.023C13.3645 200.352 13.1983 199.557 13.1983 198.636C13.1983 197.716 13.3645 196.92 13.6969 196.25C14.0293 195.58 14.4853 195.062 15.0648 194.699C15.6444 194.335 16.3063 194.153 17.0506 194.153C17.4909 194.153 17.9043 194.217 18.2907 194.345C18.6799 194.473 19.0307 194.661 19.3432 194.908C19.6557 195.152 19.9171 195.45 20.1273 195.803C20.3375 196.152 20.4824 196.551 20.562 197ZM27.0424 196.455C26.9913 196.023 26.7839 195.688 26.4203 195.449C26.0566 195.21 25.6106 195.091 25.0822 195.091C24.6958 195.091 24.3578 195.153 24.068 195.278C23.7811 195.403 23.5566 195.575 23.3947 195.794C23.2356 196.013 23.1561 196.261 23.1561 196.54C23.1561 196.773 23.2115 196.973 23.3223 197.141C23.4359 197.305 23.5808 197.443 23.7569 197.554C23.9331 197.662 24.1177 197.751 24.3109 197.822C24.5041 197.891 24.6816 197.946 24.8436 197.989L25.7299 198.227C25.9572 198.287 26.21 198.369 26.4885 198.474C26.7697 198.58 27.0382 198.723 27.2939 198.905C27.5524 199.084 27.7654 199.314 27.9331 199.595C28.1007 199.876 28.1845 200.222 28.1845 200.631C28.1845 201.102 28.0609 201.528 27.8137 201.909C27.5694 202.29 27.2115 202.592 26.7399 202.817C26.2711 203.041 25.7015 203.153 25.0311 203.153C24.4061 203.153 23.8649 203.053 23.4075 202.851C22.9529 202.649 22.595 202.368 22.3336 202.007C22.0751 201.646 21.9288 201.227 21.8947 200.75H22.9856C23.014 201.08 23.1248 201.352 23.318 201.568C23.514 201.781 23.7612 201.94 24.0595 202.045C24.3606 202.148 24.6845 202.199 25.0311 202.199C25.4345 202.199 25.7967 202.134 26.1177 202.003C26.4387 201.869 26.693 201.685 26.8805 201.449C27.068 201.21 27.1618 200.932 27.1618 200.614C27.1618 200.324 27.0808 200.088 26.9189 199.906C26.7569 199.724 26.5439 199.577 26.2797 199.463C26.0154 199.349 25.7299 199.25 25.4231 199.165L24.3493 198.858C23.6674 198.662 23.1277 198.382 22.7299 198.018C22.3322 197.655 22.1333 197.179 22.1333 196.591C22.1333 196.102 22.2654 195.676 22.5297 195.312C22.7967 194.946 23.1547 194.662 23.6035 194.46C24.0552 194.256 24.5595 194.153 25.1163 194.153C25.6788 194.153 26.1788 194.254 26.6163 194.456C27.0538 194.655 27.4004 194.928 27.6561 195.274C27.9146 195.621 28.051 196.014 28.0652 196.455H27.0424ZM34.6948 196.455C34.6436 196.023 34.4363 195.688 34.0726 195.449C33.709 195.21 33.263 195.091 32.7346 195.091C32.3482 195.091 32.0101 195.153 31.7203 195.278C31.4334 195.403 31.209 195.575 31.0471 195.794C30.888 196.013 30.8084 196.261 30.8084 196.54C30.8084 196.773 30.8638 196.973 30.9746 197.141C31.0882 197.305 31.2331 197.443 31.4093 197.554C31.5854 197.662 31.7701 197.751 31.9632 197.822C32.1564 197.891 32.334 197.946 32.4959 197.989L33.3823 198.227C33.6096 198.287 33.8624 198.369 34.1408 198.474C34.4221 198.58 34.6905 198.723 34.9462 198.905C35.2047 199.084 35.4178 199.314 35.5854 199.595C35.753 199.876 35.8368 200.222 35.8368 200.631C35.8368 201.102 35.7132 201.528 35.4661 201.909C35.2218 202.29 34.8638 202.592 34.3922 202.817C33.9235 203.041 33.3539 203.153 32.6834 203.153C32.0584 203.153 31.5172 203.053 31.0598 202.851C30.6053 202.649 30.2473 202.368 29.986 202.007C29.7275 201.646 29.5811 201.227 29.5471 200.75H30.638C30.6664 201.08 30.7772 201.352 30.9703 201.568C31.1664 201.781 31.4135 201.94 31.7118 202.045C32.013 202.148 32.3368 202.199 32.6834 202.199C33.0868 202.199 33.449 202.134 33.7701 202.003C34.0911 201.869 34.3453 201.685 34.5328 201.449C34.7203 201.21 34.8141 200.932 34.8141 200.614C34.8141 200.324 34.7331 200.088 34.5712 199.906C34.4093 199.724 34.1962 199.577 33.932 199.463C33.6678 199.349 33.3823 199.25 33.0755 199.165L32.0016 198.858C31.3198 198.662 30.78 198.382 30.3823 198.018C29.9846 197.655 29.7857 197.179 29.7857 196.591C29.7857 196.102 29.9178 195.676 30.182 195.312C30.449 194.946 30.807 194.662 31.2559 194.46C31.7076 194.256 32.2118 194.153 32.7686 194.153C33.3311 194.153 33.8311 194.254 34.2686 194.456C34.7061 194.655 35.0527 194.928 35.3084 195.274C35.5669 195.621 35.7033 196.014 35.7175 196.455H34.6948Z" fill="white"/>
<path d="M63.5 146C61.9087 146 60.3826 146.632 59.2574 147.757C58.1321 148.883 57.5 150.409 57.5 152V182C57.5 183.591 58.1321 185.117 59.2574 186.243C60.3826 187.368 61.9087 188 63.5 188H81.5C83.0913 188 84.6174 187.368 85.7426 186.243C86.8679 185.117 87.5 183.591 87.5 182V159.242C87.4989 158.049 87.0242 156.905 86.18 156.062L77.441 147.317C77.0229 146.899 76.5267 146.568 75.9805 146.342C75.4344 146.116 74.8491 146 74.258 146H63.5ZM60.5 152C60.5 151.204 60.8161 150.441 61.3787 149.879C61.9413 149.316 62.7044 149 63.5 149H72.5V156.5C72.5 157.693 72.9741 158.838 73.818 159.682C74.6619 160.526 75.8065 161 77 161H84.5V182C84.5 182.796 84.1839 183.559 83.6213 184.121C83.0587 184.684 82.2956 185 81.5 185H63.5C62.7044 185 61.9413 184.684 61.3787 184.121C60.8161 183.559 60.5 182.796 60.5 182V152ZM83.879 158H77C76.6022 158 76.2206 157.842 75.9393 157.561C75.658 157.279 75.5 156.898 75.5 156.5V149.621L83.879 158Z" fill="white"/>
<path d="M69.8137 194.273H70.8706V200.511C70.8706 201.068 70.7683 201.541 70.5637 201.93C70.3592 202.32 70.0708 202.615 69.6987 202.817C69.3265 203.018 68.8876 203.119 68.3819 203.119C67.9047 203.119 67.4799 203.033 67.1078 202.859C66.7356 202.683 66.443 202.433 66.2299 202.109C66.0169 201.786 65.9103 201.401 65.9103 200.955H66.9501C66.9501 201.202 67.0112 201.418 67.1333 201.602C67.2583 201.784 67.4288 201.926 67.6447 202.028C67.8606 202.131 68.1064 202.182 68.3819 202.182C68.6859 202.182 68.9444 202.118 69.1575 201.99C69.3706 201.862 69.5325 201.675 69.6433 201.428C69.7569 201.178 69.8137 200.872 69.8137 200.511V194.273ZM77.7612 196.455C77.71 196.023 77.5027 195.688 77.139 195.449C76.7754 195.21 76.3294 195.091 75.801 195.091C75.4146 195.091 75.0765 195.153 74.7868 195.278C74.4998 195.403 74.2754 195.575 74.1135 195.794C73.9544 196.013 73.8748 196.261 73.8748 196.54C73.8748 196.773 73.9302 196.973 74.041 197.141C74.1547 197.305 74.2995 197.443 74.4757 197.554C74.6518 197.662 74.8365 197.751 75.0297 197.822C75.2228 197.891 75.4004 197.946 75.5623 197.989L76.4487 198.227C76.676 198.287 76.9288 198.369 77.2072 198.474C77.4885 198.58 77.7569 198.723 78.0126 198.905C78.2711 199.084 78.4842 199.314 78.6518 199.595C78.8194 199.876 78.9032 200.222 78.9032 200.631C78.9032 201.102 78.7797 201.528 78.5325 201.909C78.2882 202.29 77.9302 202.592 77.4586 202.817C76.9899 203.041 76.4203 203.153 75.7498 203.153C75.1248 203.153 74.5836 203.053 74.1262 202.851C73.6717 202.649 73.3137 202.368 73.0524 202.007C72.7939 201.646 72.6475 201.227 72.6135 200.75H73.7044C73.7328 201.08 73.8436 201.352 74.0368 201.568C74.2328 201.781 74.4799 201.94 74.7782 202.045C75.0794 202.148 75.4032 202.199 75.7498 202.199C76.1532 202.199 76.5154 202.134 76.8365 202.003C77.1575 201.869 77.4118 201.685 77.5993 201.449C77.7868 201.21 77.8805 200.932 77.8805 200.614C77.8805 200.324 77.7995 200.088 77.6376 199.906C77.4757 199.724 77.2626 199.577 76.9984 199.463C76.7342 199.349 76.4487 199.25 76.1419 199.165L75.068 198.858C74.3862 198.662 73.8464 198.382 73.4487 198.018C73.051 197.655 72.8521 197.179 72.8521 196.591C72.8521 196.102 72.9842 195.676 73.2484 195.312C73.5154 194.946 73.8734 194.662 74.3223 194.46C74.774 194.256 75.2782 194.153 75.835 194.153C76.3975 194.153 76.8975 194.254 77.335 194.456C77.7725 194.655 78.1191 194.928 78.3748 195.274C78.6333 195.621 78.7697 196.014 78.7839 196.455H77.7612Z" fill="white"/>
<path d="M49.2499 212.985C49.2415 212.433 48.7871 211.992 48.2349 212C47.6826 212.008 47.2417 212.463 47.2501 213.015L49.2499 212.985ZM48.0537 246.718C48.4501 247.102 49.0832 247.093 49.4677 246.696L55.7346 240.237C56.1191 239.84 56.1095 239.207 55.7131 238.823C55.3167 238.438 54.6836 238.448 54.2991 238.844L48.7286 244.586L42.9867 239.015C42.5903 238.631 41.9572 238.64 41.5726 239.037C41.1881 239.433 41.1976 240.066 41.594 240.451L48.0537 246.718ZM47.2501 213.015L47.2814 215.078L49.2811 215.047L49.2499 212.985L47.2501 213.015ZM47.3439 219.203L47.4064 223.328L49.4061 223.297L49.3436 219.172L47.3439 219.203ZM47.4689 227.453L47.5314 231.578L49.5311 231.547L49.4686 227.422L47.4689 227.453ZM47.5939 235.703L47.6564 239.828L49.6561 239.797L49.5936 235.672L47.5939 235.703ZM47.7189 243.953L47.7501 246.015L49.7499 245.985L49.7186 243.922L47.7189 243.953ZM49.2499 212.985C49.2415 212.433 48.7871 211.992 48.2349 212C47.6826 212.008 47.2417 212.463 47.2501 213.015L49.2499 212.985ZM48.0537 246.718C48.4501 247.102 49.0832 247.093 49.4677 246.696L55.7346 240.237C56.1191 239.84 56.1095 239.207 55.7131 238.823C55.3167 238.438 54.6836 238.448 54.2991 238.844L48.7286 244.586L42.9867 239.015C42.5903 238.631 41.9572 238.64 41.5726 239.037C41.1881 239.433 41.1976 240.066 41.594 240.451L48.0537 246.718ZM47.2501 213.015L47.2814 215.078L49.2811 215.047L49.2499 212.985L47.2501 213.015ZM47.3439 219.203L47.4064 223.328L49.4061 223.297L49.3436 219.172L47.3439 219.203ZM47.4689 227.453L47.5314 231.578L49.5311 231.547L49.4686 227.422L47.4689 227.453ZM47.5939 235.703L47.6564 239.828L49.6561 239.797L49.5936 235.672L47.5939 235.703ZM47.7189 243.953L47.7501 246.015L49.7499 245.985L49.7186 243.922L47.7189 243.953Z" fill="white"/>
<path d="M75.875 255.938H21.125C19.6124 255.938 18.1618 256.529 17.0923 257.582C16.0227 258.635 15.4219 260.063 15.4219 261.552V306.464C15.4219 307.953 16.0227 309.38 17.0923 310.433C18.1618 311.486 19.6124 312.078 21.125 312.078H75.875C77.3876 312.078 78.8382 311.486 79.9077 310.433C80.9773 309.38 81.5781 307.953 81.5781 306.464V261.552C81.5781 260.063 80.9773 258.635 79.9077 257.582C78.8382 256.529 77.3876 255.938 75.875 255.938ZM79.2969 306.464C79.2969 307.357 78.9364 308.214 78.2946 308.845C77.6529 309.477 76.7825 309.832 75.875 309.832H21.125C20.2175 309.832 19.3471 309.477 18.7054 308.845C18.0636 308.214 17.7031 307.357 17.7031 306.464V267.166H79.2969V306.464ZM17.7031 264.92V261.552C17.7031 260.658 18.0636 259.801 18.7054 259.17C19.3471 258.538 20.2175 258.183 21.125 258.183H75.875C76.7825 258.183 77.6529 258.538 78.2946 259.17C78.9364 259.801 79.2969 260.658 79.2969 261.552V264.92H17.7031ZM74.7344 261.552C74.7344 261.774 74.6675 261.991 74.5421 262.175C74.4168 262.36 74.2387 262.504 74.0302 262.589C73.8218 262.674 73.5925 262.696 73.3712 262.653C73.15 262.609 72.9467 262.502 72.7872 262.345C72.6277 262.188 72.5191 261.988 72.475 261.771C72.431 261.553 72.4536 261.327 72.54 261.122C72.6263 260.917 72.7725 260.741 72.9601 260.618C73.1476 260.495 73.3682 260.429 73.5938 260.429C73.8963 260.429 74.1864 260.547 74.4003 260.758C74.6142 260.968 74.7344 261.254 74.7344 261.552ZM71.3125 261.552C71.3125 261.774 71.2456 261.991 71.1203 262.175C70.9949 262.36 70.8168 262.504 70.6084 262.589C70.4 262.674 70.1706 262.696 69.9493 262.653C69.7281 262.609 69.5248 262.502 69.3653 262.345C69.2058 262.188 69.0972 261.988 69.0532 261.771C69.0092 261.553 69.0317 261.327 69.1181 261.122C69.2044 260.917 69.3506 260.741 69.5382 260.618C69.7258 260.495 69.9463 260.429 70.1719 260.429C70.4744 260.429 70.7645 260.547 70.9784 260.758C71.1923 260.968 71.3125 261.254 71.3125 261.552ZM67.8906 261.552C67.8906 261.774 67.8237 261.991 67.6984 262.175C67.5731 262.36 67.3949 262.504 67.1865 262.589C66.9781 262.674 66.7487 262.696 66.5275 262.653C66.3062 262.609 66.103 262.502 65.9435 262.345C65.7839 262.188 65.6753 261.988 65.6313 261.771C65.5873 261.553 65.6099 261.327 65.6962 261.122C65.7825 260.917 65.9287 260.741 66.1163 260.618C66.3039 260.495 66.5244 260.429 66.75 260.429C67.0525 260.429 67.3426 260.547 67.5565 260.758C67.7705 260.968 67.8906 261.254 67.8906 261.552ZM23.4062 307.586H46.2188C46.5213 307.586 46.8114 307.468 47.0253 307.258C47.2392 307.047 47.3594 306.761 47.3594 306.464V270.534C47.3594 270.236 47.2392 269.951 47.0253 269.74C46.8114 269.529 46.5213 269.411 46.2188 269.411H23.4062C23.1037 269.411 22.8136 269.529 22.5997 269.74C22.3858 269.951 22.2656 270.236 22.2656 270.534V306.464C22.2656 306.761 22.3858 307.047 22.5997 307.258C22.8136 307.468 23.1037 307.586 23.4062 307.586ZM24.5469 271.657H45.0781V305.341H24.5469V271.657ZM50.7812 280.639H73.5938C73.8963 280.639 74.1864 280.521 74.4003 280.31C74.6142 280.1 74.7344 279.814 74.7344 279.516V270.534C74.7344 270.236 74.6142 269.951 74.4003 269.74C74.1864 269.529 73.8963 269.411 73.5938 269.411H50.7812C50.4787 269.411 50.1886 269.529 49.9747 269.74C49.7608 269.951 49.6406 270.236 49.6406 270.534V279.516C49.6406 279.814 49.7608 280.1 49.9747 280.31C50.1886 280.521 50.4787 280.639 50.7812 280.639ZM51.9219 271.657H72.4531V278.394H51.9219V271.657ZM50.7812 294.113H73.5938C73.8963 294.113 74.1864 293.994 74.4003 293.784C74.6142 293.573 74.7344 293.288 74.7344 292.99V284.008C74.7344 283.71 74.6142 283.424 74.4003 283.214C74.1864 283.003 73.8963 282.885 73.5938 282.885H50.7812C50.4787 282.885 50.1886 283.003 49.9747 283.214C49.7608 283.424 49.6406 283.71 49.6406 284.008V292.99C49.6406 293.288 49.7608 293.573 49.9747 293.784C50.1886 293.994 50.4787 294.113 50.7812 294.113ZM51.9219 285.13H72.4531V291.867H51.9219V285.13ZM50.7812 307.586H73.5938C73.8963 307.586 74.1864 307.468 74.4003 307.258C74.6142 307.047 74.7344 306.761 74.7344 306.464V297.481C74.7344 297.183 74.6142 296.898 74.4003 296.687C74.1864 296.477 73.8963 296.358 73.5938 296.358H50.7812C50.4787 296.358 50.1886 296.477 49.9747 296.687C49.7608 296.898 49.6406 297.183 49.6406 297.481V306.464C49.6406 306.761 49.7608 307.047 49.9747 307.258C50.1886 307.468 50.4787 307.586 50.7812 307.586ZM51.9219 298.604H72.4531V305.341H51.9219V298.604Z" fill="white"/>
</svg>
